%TF.GenerationSoftware,KiCad,Pcbnew,(6.0.4-0)*%
%TF.CreationDate,2022-12-20T09:13:05-08:00*%
%TF.ProjectId,reverb_v2,72657665-7262-45f7-9632-2e6b69636164,rev?*%
%TF.SameCoordinates,Original*%
%TF.FileFunction,Copper,L2,Bot*%
%TF.FilePolarity,Positive*%
%FSLAX46Y46*%
G04 Gerber Fmt 4.6, Leading zero omitted, Abs format (unit mm)*
G04 Created by KiCad (PCBNEW (6.0.4-0)) date 2022-12-20 09:13:05*
%MOMM*%
%LPD*%
G01*
G04 APERTURE LIST*
G04 Aperture macros list*
%AMRoundRect*
0 Rectangle with rounded corners*
0 $1 Rounding radius*
0 $2 $3 $4 $5 $6 $7 $8 $9 X,Y pos of 4 corners*
0 Add a 4 corners polygon primitive as box body*
4,1,4,$2,$3,$4,$5,$6,$7,$8,$9,$2,$3,0*
0 Add four circle primitives for the rounded corners*
1,1,$1+$1,$2,$3*
1,1,$1+$1,$4,$5*
1,1,$1+$1,$6,$7*
1,1,$1+$1,$8,$9*
0 Add four rect primitives between the rounded corners*
20,1,$1+$1,$2,$3,$4,$5,0*
20,1,$1+$1,$4,$5,$6,$7,0*
20,1,$1+$1,$6,$7,$8,$9,0*
20,1,$1+$1,$8,$9,$2,$3,0*%
G04 Aperture macros list end*
%TA.AperFunction,ComponentPad*%
%ADD10C,1.600000*%
%TD*%
%TA.AperFunction,ComponentPad*%
%ADD11O,1.600000X1.600000*%
%TD*%
%TA.AperFunction,ComponentPad*%
%ADD12C,2.000000*%
%TD*%
%TA.AperFunction,ComponentPad*%
%ADD13R,1.600000X1.600000*%
%TD*%
%TA.AperFunction,ComponentPad*%
%ADD14R,1.700000X1.700000*%
%TD*%
%TA.AperFunction,ComponentPad*%
%ADD15O,1.700000X1.700000*%
%TD*%
%TA.AperFunction,ComponentPad*%
%ADD16R,1.800000X1.800000*%
%TD*%
%TA.AperFunction,ComponentPad*%
%ADD17O,1.800000X1.800000*%
%TD*%
%TA.AperFunction,ComponentPad*%
%ADD18C,1.800000*%
%TD*%
%TA.AperFunction,ComponentPad*%
%ADD19RoundRect,0.750000X0.750000X-1.250000X0.750000X1.250000X-0.750000X1.250000X-0.750000X-1.250000X0*%
%TD*%
%TA.AperFunction,ComponentPad*%
%ADD20R,1.930000X1.830000*%
%TD*%
%TA.AperFunction,ComponentPad*%
%ADD21C,2.130000*%
%TD*%
%TA.AperFunction,ViaPad*%
%ADD22C,0.800000*%
%TD*%
%TA.AperFunction,Conductor*%
%ADD23C,0.500000*%
%TD*%
%TA.AperFunction,Conductor*%
%ADD24C,0.250000*%
%TD*%
G04 APERTURE END LIST*
D10*
%TO.P,R6,1*%
%TO.N,Net-(R2-Pad2)*%
X165685000Y-87000000D03*
D11*
%TO.P,R6,2*%
%TO.N,Net-(R6-Pad2)*%
X170765000Y-87000000D03*
%TD*%
D10*
%TO.P,R2,1*%
%TO.N,Net-(R2-Pad1)*%
X160685000Y-91000000D03*
D11*
%TO.P,R2,2*%
%TO.N,Net-(R2-Pad2)*%
X165765000Y-91000000D03*
%TD*%
D10*
%TO.P,R1,1*%
%TO.N,Net-(D1-Pad2)*%
X158315000Y-132000000D03*
D11*
%TO.P,R1,2*%
%TO.N,GND*%
X153235000Y-132000000D03*
%TD*%
D12*
%TO.P,C3,1*%
%TO.N,-12V*%
X158000000Y-100000000D03*
%TO.P,C3,2*%
%TO.N,GND*%
X158000000Y-107500000D03*
%TD*%
D13*
%TO.P,U1,1*%
%TO.N,Net-(C1-Pad1)*%
X147200000Y-92375000D03*
D11*
%TO.P,U1,2,-*%
%TO.N,Net-(R3-Pad2)*%
X147200000Y-94915000D03*
%TO.P,U1,3,+*%
%TO.N,GND*%
X147200000Y-97455000D03*
%TO.P,U1,4,V+*%
%TO.N,+12V*%
X147200000Y-99995000D03*
%TO.P,U1,5,+*%
%TO.N,Net-(RV_dry/wet1-Pad2)*%
X147200000Y-102535000D03*
%TO.P,U1,6,-*%
%TO.N,Net-(R4-Pad1)*%
X147200000Y-105075000D03*
%TO.P,U1,7*%
X147200000Y-107615000D03*
%TO.P,U1,8*%
%TO.N,Net-(U1-Pad8)*%
X154820000Y-107615000D03*
%TO.P,U1,9,-*%
%TO.N,Net-(R2-Pad2)*%
X154820000Y-105075000D03*
%TO.P,U1,10,+*%
%TO.N,GND*%
X154820000Y-102535000D03*
%TO.P,U1,11,V-*%
%TO.N,-12V*%
X154820000Y-99995000D03*
%TO.P,U1,12,+*%
%TO.N,dry*%
X154820000Y-97455000D03*
%TO.P,U1,13,-*%
%TO.N,Net-(R2-Pad1)*%
X154820000Y-94915000D03*
%TO.P,U1,14*%
X154820000Y-92375000D03*
%TD*%
D14*
%TO.P,J5,1,Pin_1*%
%TO.N,-12V*%
X144000000Y-127000000D03*
D15*
%TO.P,J5,2,Pin_2*%
X146540000Y-127000000D03*
%TO.P,J5,3,Pin_3*%
%TO.N,GND*%
X144000000Y-129540000D03*
%TO.P,J5,4,Pin_4*%
X146540000Y-129540000D03*
%TO.P,J5,5,Pin_5*%
X144000000Y-132080000D03*
%TO.P,J5,6,Pin_6*%
X146540000Y-132080000D03*
%TO.P,J5,7,Pin_7*%
X144000000Y-134620000D03*
%TO.P,J5,8,Pin_8*%
X146540000Y-134620000D03*
%TO.P,J5,9,Pin_9*%
%TO.N,+12V*%
X144000000Y-137160000D03*
%TO.P,J5,10,Pin_10*%
X146540000Y-137160000D03*
%TD*%
D10*
%TO.P,R5,1*%
%TO.N,dry*%
X170315000Y-61000000D03*
D11*
%TO.P,R5,2*%
%TO.N,GND*%
X165235000Y-61000000D03*
%TD*%
D10*
%TO.P,R4,1*%
%TO.N,Net-(R4-Pad1)*%
X147685000Y-119000000D03*
D11*
%TO.P,R4,2*%
%TO.N,Net-(J6-PadT)*%
X152765000Y-119000000D03*
%TD*%
D14*
%TO.P,J1,1,Pin_1*%
%TO.N,GND*%
X144000000Y-146000000D03*
D15*
%TO.P,J1,2,Pin_2*%
%TO.N,Net-(D1-Pad2)*%
X146540000Y-146000000D03*
%TD*%
D16*
%TO.P,D1,1,K*%
%TO.N,+12V*%
X151190000Y-137000000D03*
D17*
%TO.P,D1,2,A*%
%TO.N,Net-(D1-Pad2)*%
X158810000Y-137000000D03*
%TD*%
D13*
%TO.P,C1,1*%
%TO.N,Net-(C1-Pad1)*%
X146000000Y-84000000D03*
D10*
%TO.P,C1,2*%
%TO.N,Net-(C1-Pad2)*%
X146000000Y-81500000D03*
%TD*%
%TO.P,R3,1*%
%TO.N,Net-(D1-Pad2)*%
X165685000Y-114000000D03*
D11*
%TO.P,R3,2*%
%TO.N,Net-(R3-Pad2)*%
X170765000Y-114000000D03*
%TD*%
D14*
%TO.P,J4,1,Pin_1*%
%TO.N,Net-(U1-Pad8)*%
X144000000Y-44000000D03*
D15*
%TO.P,J4,2,Pin_2*%
%TO.N,GND*%
X146540000Y-44000000D03*
%TD*%
D16*
%TO.P,D2,1,K*%
%TO.N,Net-(D1-Pad2)*%
X158810000Y-127000000D03*
D17*
%TO.P,D2,2,A*%
%TO.N,-12V*%
X151190000Y-127000000D03*
%TD*%
D10*
%TO.P,R_filter1,1*%
%TO.N,Net-(C1-Pad2)*%
X145685000Y-73000000D03*
D11*
%TO.P,R_filter1,2*%
%TO.N,GND*%
X150765000Y-73000000D03*
%TD*%
D12*
%TO.P,C2,1*%
%TO.N,+12V*%
X144000000Y-100000000D03*
%TO.P,C2,2*%
%TO.N,GND*%
X144000000Y-107500000D03*
%TD*%
D16*
%TO.P,RV_dry/wet1,1,1*%
%TO.N,dry*%
X170500000Y-55050000D03*
D18*
%TO.P,RV_dry/wet1,2,2*%
%TO.N,Net-(RV_dry/wet1-Pad2)*%
X168000000Y-55050000D03*
%TO.P,RV_dry/wet1,3,3*%
%TO.N,Net-(C1-Pad2)*%
X165500000Y-55050000D03*
D19*
%TO.P,RV_dry/wet1,MP*%
%TO.N,N/C*%
X163600000Y-48050000D03*
X172400000Y-48050000D03*
%TD*%
D16*
%TO.P,RV_send_gain1,1*%
%TO.N,Net-(R6-Pad2)*%
X170500000Y-82050000D03*
D18*
%TO.P,RV_send_gain1,2*%
%TO.N,Net-(U1-Pad8)*%
X168000000Y-82050000D03*
%TO.P,RV_send_gain1,3*%
%TO.N,N/C*%
X165500000Y-82050000D03*
D19*
%TO.P,RV_send_gain1,MP*%
X163600000Y-75050000D03*
X172400000Y-75050000D03*
%TD*%
D20*
%TO.P,J3,S*%
%TO.N,GND*%
X171000000Y-130780000D03*
D21*
%TO.P,J3,T*%
%TO.N,dry*%
X171000000Y-119380000D03*
%TO.P,J3,TN*%
%TO.N,unconnected-(J3-PadTN)*%
X171000000Y-127680000D03*
%TD*%
D20*
%TO.P,J6,S*%
%TO.N,GND*%
X171000000Y-146780000D03*
D21*
%TO.P,J6,T*%
%TO.N,Net-(J6-PadT)*%
X171000000Y-135380000D03*
%TO.P,J6,TN*%
%TO.N,unconnected-(J6-PadTN)*%
X171000000Y-143680000D03*
%TD*%
D16*
%TO.P,RV_return_gain1,1*%
%TO.N,Net-(R3-Pad2)*%
X170500000Y-109050000D03*
D18*
%TO.P,RV_return_gain1,2*%
%TO.N,Net-(C1-Pad1)*%
X168000000Y-109050000D03*
%TO.P,RV_return_gain1,3*%
%TO.N,N/C*%
X165500000Y-109050000D03*
D19*
%TO.P,RV_return_gain1,MP*%
X163600000Y-102050000D03*
X172400000Y-102050000D03*
%TD*%
D22*
%TO.N,Net-(C1-Pad1)*%
X168000000Y-100000000D03*
%TO.N,Net-(J6-PadT)*%
X163000000Y-127000000D03*
%TD*%
D23*
%TO.N,GND*%
X150765000Y-73000000D02*
X149800000Y-73965000D01*
X149800000Y-73965000D02*
X149800000Y-97200000D01*
X149800000Y-97200000D02*
X149545000Y-97455000D01*
X149545000Y-97455000D02*
X147200000Y-97455000D01*
D24*
%TO.N,Net-(R2-Pad1)*%
X154820000Y-92375000D02*
X158125000Y-92375000D01*
X158125000Y-92375000D02*
X159500000Y-91000000D01*
X159500000Y-91000000D02*
X160685000Y-91000000D01*
D23*
%TO.N,GND*%
X153235000Y-132000000D02*
X155535000Y-129700000D01*
X155535000Y-129700000D02*
X169920000Y-129700000D01*
X169920000Y-129700000D02*
X171000000Y-130780000D01*
D24*
%TO.N,Net-(C1-Pad1)*%
X147200000Y-85200000D02*
X146000000Y-84000000D01*
X147200000Y-92375000D02*
X147200000Y-85200000D01*
X168000000Y-100000000D02*
X168000000Y-109050000D01*
%TO.N,Net-(C1-Pad2)*%
X165500000Y-55050000D02*
X163635000Y-55050000D01*
X163635000Y-55050000D02*
X145685000Y-73000000D01*
X146000000Y-73315000D02*
X145685000Y-73000000D01*
X146000000Y-81500000D02*
X146000000Y-73315000D01*
D23*
%TO.N,+12V*%
X142000000Y-135160000D02*
X142000000Y-102000000D01*
X144000000Y-137160000D02*
X142000000Y-135160000D01*
X147195000Y-100000000D02*
X147200000Y-99995000D01*
X144000000Y-100000000D02*
X147195000Y-100000000D01*
X142000000Y-102000000D02*
X144000000Y-100000000D01*
%TO.N,GND*%
X171000000Y-146780000D02*
X170950000Y-146780000D01*
X158000000Y-105715000D02*
X154820000Y-102535000D01*
X165235000Y-61000000D02*
X162765000Y-61000000D01*
X170950000Y-146780000D02*
X165000000Y-140830000D01*
X165000000Y-140830000D02*
X165000000Y-136780000D01*
X165000000Y-136780000D02*
X171000000Y-130780000D01*
X162765000Y-61000000D02*
X150765000Y-73000000D01*
X158000000Y-107500000D02*
X158000000Y-105715000D01*
D24*
%TO.N,dry*%
X175000000Y-65685000D02*
X175000000Y-99000000D01*
X175000000Y-115380000D02*
X175000000Y-99000000D01*
X170500000Y-60815000D02*
X170315000Y-61000000D01*
X170500000Y-55050000D02*
X170500000Y-60815000D01*
X170315000Y-61000000D02*
X175000000Y-65685000D01*
X173455000Y-97455000D02*
X154820000Y-97455000D01*
X171000000Y-119380000D02*
X175000000Y-115380000D01*
X175000000Y-99000000D02*
X173455000Y-97455000D01*
%TO.N,Net-(J6-PadT)*%
X161380000Y-119380000D02*
X153145000Y-119380000D01*
X153145000Y-119380000D02*
X152765000Y-119000000D01*
X163000000Y-121000000D02*
X161380000Y-119380000D01*
X163000000Y-127000000D02*
X163000000Y-121000000D01*
%TO.N,Net-(R2-Pad1)*%
X154820000Y-94915000D02*
X154820000Y-92375000D01*
%TO.N,Net-(R4-Pad1)*%
X147000000Y-118315000D02*
X147000000Y-107815000D01*
X147000000Y-107815000D02*
X147200000Y-107615000D01*
X147685000Y-119000000D02*
X147000000Y-118315000D01*
X147200000Y-107615000D02*
X147200000Y-105075000D01*
%TO.N,Net-(RV_dry/wet1-Pad2)*%
X151000000Y-98735000D02*
X151000000Y-78000000D01*
X151000000Y-78000000D02*
X168000000Y-61000000D01*
X147200000Y-102535000D02*
X151000000Y-98735000D01*
X168000000Y-61000000D02*
X168000000Y-55050000D01*
%TO.N,Net-(U1-Pad8)*%
X152000000Y-104795000D02*
X152000000Y-88000000D01*
X154820000Y-107615000D02*
X152000000Y-104795000D01*
X156000000Y-84000000D02*
X166050000Y-84000000D01*
X152000000Y-88000000D02*
X156000000Y-84000000D01*
X166050000Y-84000000D02*
X168000000Y-82050000D01*
%TO.N,Net-(R2-Pad2)*%
X165765000Y-87080000D02*
X165685000Y-87000000D01*
X165765000Y-91000000D02*
X165765000Y-87080000D01*
X153000000Y-103255000D02*
X153000000Y-90000000D01*
X154820000Y-105075000D02*
X153000000Y-103255000D01*
X153000000Y-90000000D02*
X156000000Y-87000000D01*
X156000000Y-87000000D02*
X165685000Y-87000000D01*
%TD*%
M02*
