%TF.GenerationSoftware,KiCad,Pcbnew,(6.0.4-0)*%
%TF.CreationDate,2022-12-20T09:13:06-08:00*%
%TF.ProjectId,reverb_v2,72657665-7262-45f7-9632-2e6b69636164,rev?*%
%TF.SameCoordinates,Original*%
%TF.FileFunction,Legend,Top*%
%TF.FilePolarity,Positive*%
%FSLAX46Y46*%
G04 Gerber Fmt 4.6, Leading zero omitted, Abs format (unit mm)*
G04 Created by KiCad (PCBNEW (6.0.4-0)) date 2022-12-20 09:13:06*
%MOMM*%
%LPD*%
G01*
G04 APERTURE LIST*
%ADD10C,0.150000*%
%ADD11C,0.120000*%
G04 APERTURE END LIST*
D10*
X145485714Y-124071428D02*
X146247619Y-124071428D01*
X147247619Y-124452380D02*
X146676190Y-124452380D01*
X146961904Y-124452380D02*
X146961904Y-123452380D01*
X146866666Y-123595238D01*
X146771428Y-123690476D01*
X146676190Y-123738095D01*
X147628571Y-123547619D02*
X147676190Y-123500000D01*
X147771428Y-123452380D01*
X148009523Y-123452380D01*
X148104761Y-123500000D01*
X148152380Y-123547619D01*
X148200000Y-123642857D01*
X148200000Y-123738095D01*
X148152380Y-123880952D01*
X147580952Y-124452380D01*
X148200000Y-124452380D01*
X148533333Y-123785714D02*
X148771428Y-124452380D01*
X149009523Y-123785714D01*
D11*
X155236068Y-44000000D02*
G75*
G03*
X155236068Y-44000000I-2236068J0D01*
G01*
X155236068Y-146000000D02*
G75*
G03*
X155236068Y-146000000I-2236068J0D01*
G01*
D10*
X142690476Y-61452380D02*
X142690476Y-60785714D01*
X142690476Y-60976190D02*
X142738095Y-60880952D01*
X142785714Y-60833333D01*
X142880952Y-60785714D01*
X142976190Y-60785714D01*
X143690476Y-61404761D02*
X143595238Y-61452380D01*
X143404761Y-61452380D01*
X143309523Y-61404761D01*
X143261904Y-61309523D01*
X143261904Y-60928571D01*
X143309523Y-60833333D01*
X143404761Y-60785714D01*
X143595238Y-60785714D01*
X143690476Y-60833333D01*
X143738095Y-60928571D01*
X143738095Y-61023809D01*
X143261904Y-61119047D01*
X144071428Y-60785714D02*
X144309523Y-61452380D01*
X144547619Y-60785714D01*
X145309523Y-61404761D02*
X145214285Y-61452380D01*
X145023809Y-61452380D01*
X144928571Y-61404761D01*
X144880952Y-61309523D01*
X144880952Y-60928571D01*
X144928571Y-60833333D01*
X145023809Y-60785714D01*
X145214285Y-60785714D01*
X145309523Y-60833333D01*
X145357142Y-60928571D01*
X145357142Y-61023809D01*
X144880952Y-61119047D01*
X145785714Y-61452380D02*
X145785714Y-60785714D01*
X145785714Y-60976190D02*
X145833333Y-60880952D01*
X145880952Y-60833333D01*
X145976190Y-60785714D01*
X146071428Y-60785714D01*
X146404761Y-61452380D02*
X146404761Y-60452380D01*
X146404761Y-60833333D02*
X146500000Y-60785714D01*
X146690476Y-60785714D01*
X146785714Y-60833333D01*
X146833333Y-60880952D01*
X146880952Y-60976190D01*
X146880952Y-61261904D01*
X146833333Y-61357142D01*
X146785714Y-61404761D01*
X146690476Y-61452380D01*
X146500000Y-61452380D01*
X146404761Y-61404761D01*
X147976190Y-60785714D02*
X148214285Y-61452380D01*
X148452380Y-60785714D01*
X149357142Y-61452380D02*
X148785714Y-61452380D01*
X149071428Y-61452380D02*
X149071428Y-60452380D01*
X148976190Y-60595238D01*
X148880952Y-60690476D01*
X148785714Y-60738095D01*
X144428571Y-140452380D02*
X143857142Y-140452380D01*
X144142857Y-140452380D02*
X144142857Y-139452380D01*
X144047619Y-139595238D01*
X143952380Y-139690476D01*
X143857142Y-139738095D01*
X144809523Y-139547619D02*
X144857142Y-139500000D01*
X144952380Y-139452380D01*
X145190476Y-139452380D01*
X145285714Y-139500000D01*
X145333333Y-139547619D01*
X145380952Y-139642857D01*
X145380952Y-139738095D01*
X145333333Y-139880952D01*
X144761904Y-140452380D01*
X145380952Y-140452380D01*
X145714285Y-139785714D02*
X145952380Y-140452380D01*
X146190476Y-139785714D01*
%TO.C,R6*%
X168058333Y-85082380D02*
X167725000Y-84606190D01*
X167486904Y-85082380D02*
X167486904Y-84082380D01*
X167867857Y-84082380D01*
X167963095Y-84130000D01*
X168010714Y-84177619D01*
X168058333Y-84272857D01*
X168058333Y-84415714D01*
X168010714Y-84510952D01*
X167963095Y-84558571D01*
X167867857Y-84606190D01*
X167486904Y-84606190D01*
X168915476Y-84082380D02*
X168725000Y-84082380D01*
X168629761Y-84130000D01*
X168582142Y-84177619D01*
X168486904Y-84320476D01*
X168439285Y-84510952D01*
X168439285Y-84891904D01*
X168486904Y-84987142D01*
X168534523Y-85034761D01*
X168629761Y-85082380D01*
X168820238Y-85082380D01*
X168915476Y-85034761D01*
X168963095Y-84987142D01*
X169010714Y-84891904D01*
X169010714Y-84653809D01*
X168963095Y-84558571D01*
X168915476Y-84510952D01*
X168820238Y-84463333D01*
X168629761Y-84463333D01*
X168534523Y-84510952D01*
X168486904Y-84558571D01*
X168439285Y-84653809D01*
X170714285Y-88822380D02*
X170238095Y-88822380D01*
X170190476Y-89298571D01*
X170238095Y-89250952D01*
X170333333Y-89203333D01*
X170571428Y-89203333D01*
X170666666Y-89250952D01*
X170714285Y-89298571D01*
X170761904Y-89393809D01*
X170761904Y-89631904D01*
X170714285Y-89727142D01*
X170666666Y-89774761D01*
X170571428Y-89822380D01*
X170333333Y-89822380D01*
X170238095Y-89774761D01*
X170190476Y-89727142D01*
X171380952Y-88822380D02*
X171476190Y-88822380D01*
X171571428Y-88870000D01*
X171619047Y-88917619D01*
X171666666Y-89012857D01*
X171714285Y-89203333D01*
X171714285Y-89441428D01*
X171666666Y-89631904D01*
X171619047Y-89727142D01*
X171571428Y-89774761D01*
X171476190Y-89822380D01*
X171380952Y-89822380D01*
X171285714Y-89774761D01*
X171238095Y-89727142D01*
X171190476Y-89631904D01*
X171142857Y-89441428D01*
X171142857Y-89203333D01*
X171190476Y-89012857D01*
X171238095Y-88917619D01*
X171285714Y-88870000D01*
X171380952Y-88822380D01*
X172333333Y-88822380D02*
X172428571Y-88822380D01*
X172523809Y-88870000D01*
X172571428Y-88917619D01*
X172619047Y-89012857D01*
X172666666Y-89203333D01*
X172666666Y-89441428D01*
X172619047Y-89631904D01*
X172571428Y-89727142D01*
X172523809Y-89774761D01*
X172428571Y-89822380D01*
X172333333Y-89822380D01*
X172238095Y-89774761D01*
X172190476Y-89727142D01*
X172142857Y-89631904D01*
X172095238Y-89441428D01*
X172095238Y-89203333D01*
X172142857Y-89012857D01*
X172190476Y-88917619D01*
X172238095Y-88870000D01*
X172333333Y-88822380D01*
X173238095Y-89822380D02*
X173142857Y-89774761D01*
X173095238Y-89727142D01*
X173047619Y-89631904D01*
X173047619Y-89346190D01*
X173095238Y-89250952D01*
X173142857Y-89203333D01*
X173238095Y-89155714D01*
X173380952Y-89155714D01*
X173476190Y-89203333D01*
X173523809Y-89250952D01*
X173571428Y-89346190D01*
X173571428Y-89631904D01*
X173523809Y-89727142D01*
X173476190Y-89774761D01*
X173380952Y-89822380D01*
X173238095Y-89822380D01*
X174000000Y-89822380D02*
X174000000Y-88822380D01*
X174428571Y-89822380D02*
X174428571Y-89298571D01*
X174380952Y-89203333D01*
X174285714Y-89155714D01*
X174142857Y-89155714D01*
X174047619Y-89203333D01*
X174000000Y-89250952D01*
X174904761Y-89822380D02*
X174904761Y-89155714D01*
X174904761Y-89250952D02*
X174952380Y-89203333D01*
X175047619Y-89155714D01*
X175190476Y-89155714D01*
X175285714Y-89203333D01*
X175333333Y-89298571D01*
X175333333Y-89822380D01*
X175333333Y-89298571D02*
X175380952Y-89203333D01*
X175476190Y-89155714D01*
X175619047Y-89155714D01*
X175714285Y-89203333D01*
X175761904Y-89298571D01*
X175761904Y-89822380D01*
%TO.C,R2*%
X160833333Y-89082380D02*
X160500000Y-88606190D01*
X160261904Y-89082380D02*
X160261904Y-88082380D01*
X160642857Y-88082380D01*
X160738095Y-88130000D01*
X160785714Y-88177619D01*
X160833333Y-88272857D01*
X160833333Y-88415714D01*
X160785714Y-88510952D01*
X160738095Y-88558571D01*
X160642857Y-88606190D01*
X160261904Y-88606190D01*
X161214285Y-88177619D02*
X161261904Y-88130000D01*
X161357142Y-88082380D01*
X161595238Y-88082380D01*
X161690476Y-88130000D01*
X161738095Y-88177619D01*
X161785714Y-88272857D01*
X161785714Y-88368095D01*
X161738095Y-88510952D01*
X161166666Y-89082380D01*
X161785714Y-89082380D01*
X164880952Y-93822380D02*
X164309523Y-93822380D01*
X164595238Y-93822380D02*
X164595238Y-92822380D01*
X164500000Y-92965238D01*
X164404761Y-93060476D01*
X164309523Y-93108095D01*
X165309523Y-93822380D02*
X165309523Y-92822380D01*
X165404761Y-93441428D02*
X165690476Y-93822380D01*
X165690476Y-93155714D02*
X165309523Y-93536666D01*
%TO.C,R1*%
X161833333Y-131452380D02*
X161500000Y-130976190D01*
X161261904Y-131452380D02*
X161261904Y-130452380D01*
X161642857Y-130452380D01*
X161738095Y-130500000D01*
X161785714Y-130547619D01*
X161833333Y-130642857D01*
X161833333Y-130785714D01*
X161785714Y-130880952D01*
X161738095Y-130928571D01*
X161642857Y-130976190D01*
X161261904Y-130976190D01*
X162785714Y-131452380D02*
X162214285Y-131452380D01*
X162500000Y-131452380D02*
X162500000Y-130452380D01*
X162404761Y-130595238D01*
X162309523Y-130690476D01*
X162214285Y-130738095D01*
X161714285Y-133452380D02*
X161142857Y-133452380D01*
X161428571Y-133452380D02*
X161428571Y-132452380D01*
X161333333Y-132595238D01*
X161238095Y-132690476D01*
X161142857Y-132738095D01*
X162142857Y-133452380D02*
X162142857Y-132452380D01*
X162476190Y-133166666D01*
X162809523Y-132452380D01*
X162809523Y-133452380D01*
%TO.C,C3*%
X158357142Y-103916666D02*
X158404761Y-103964285D01*
X158452380Y-104107142D01*
X158452380Y-104202380D01*
X158404761Y-104345238D01*
X158309523Y-104440476D01*
X158214285Y-104488095D01*
X158023809Y-104535714D01*
X157880952Y-104535714D01*
X157690476Y-104488095D01*
X157595238Y-104440476D01*
X157500000Y-104345238D01*
X157452380Y-104202380D01*
X157452380Y-104107142D01*
X157500000Y-103964285D01*
X157547619Y-103916666D01*
X157452380Y-103583333D02*
X157452380Y-102964285D01*
X157833333Y-103297619D01*
X157833333Y-103154761D01*
X157880952Y-103059523D01*
X157928571Y-103011904D01*
X158023809Y-102964285D01*
X158261904Y-102964285D01*
X158357142Y-103011904D01*
X158404761Y-103059523D01*
X158452380Y-103154761D01*
X158452380Y-103440476D01*
X158404761Y-103535714D01*
X158357142Y-103583333D01*
X158452380Y-112071428D02*
X158452380Y-112642857D01*
X158452380Y-112357142D02*
X157452380Y-112357142D01*
X157595238Y-112452380D01*
X157690476Y-112547619D01*
X157738095Y-112642857D01*
X157452380Y-111452380D02*
X157452380Y-111357142D01*
X157500000Y-111261904D01*
X157547619Y-111214285D01*
X157642857Y-111166666D01*
X157833333Y-111119047D01*
X158071428Y-111119047D01*
X158261904Y-111166666D01*
X158357142Y-111214285D01*
X158404761Y-111261904D01*
X158452380Y-111357142D01*
X158452380Y-111452380D01*
X158404761Y-111547619D01*
X158357142Y-111595238D01*
X158261904Y-111642857D01*
X158071428Y-111690476D01*
X157833333Y-111690476D01*
X157642857Y-111642857D01*
X157547619Y-111595238D01*
X157500000Y-111547619D01*
X157452380Y-111452380D01*
X157785714Y-110261904D02*
X158452380Y-110261904D01*
X157785714Y-110690476D02*
X158309523Y-110690476D01*
X158404761Y-110642857D01*
X158452380Y-110547619D01*
X158452380Y-110404761D01*
X158404761Y-110309523D01*
X158357142Y-110261904D01*
X157928571Y-109452380D02*
X157928571Y-109785714D01*
X158452380Y-109785714D02*
X157452380Y-109785714D01*
X157452380Y-109309523D01*
%TO.C,U1*%
X150248095Y-89497380D02*
X150248095Y-90306904D01*
X150295714Y-90402142D01*
X150343333Y-90449761D01*
X150438571Y-90497380D01*
X150629047Y-90497380D01*
X150724285Y-90449761D01*
X150771904Y-90402142D01*
X150819523Y-90306904D01*
X150819523Y-89497380D01*
X151819523Y-90497380D02*
X151248095Y-90497380D01*
X151533809Y-90497380D02*
X151533809Y-89497380D01*
X151438571Y-89640238D01*
X151343333Y-89735476D01*
X151248095Y-89783095D01*
X148890952Y-109397380D02*
X149462380Y-109397380D01*
X149176666Y-110397380D02*
X149176666Y-109397380D01*
X150271904Y-110397380D02*
X149795714Y-110397380D01*
X149795714Y-109397380D01*
X150795714Y-109397380D02*
X150890952Y-109397380D01*
X150986190Y-109445000D01*
X151033809Y-109492619D01*
X151081428Y-109587857D01*
X151129047Y-109778333D01*
X151129047Y-110016428D01*
X151081428Y-110206904D01*
X151033809Y-110302142D01*
X150986190Y-110349761D01*
X150890952Y-110397380D01*
X150795714Y-110397380D01*
X150700476Y-110349761D01*
X150652857Y-110302142D01*
X150605238Y-110206904D01*
X150557619Y-110016428D01*
X150557619Y-109778333D01*
X150605238Y-109587857D01*
X150652857Y-109492619D01*
X150700476Y-109445000D01*
X150795714Y-109397380D01*
X151462380Y-109397380D02*
X152129047Y-109397380D01*
X151700476Y-110397380D01*
X152938571Y-109730714D02*
X152938571Y-110397380D01*
X152700476Y-109349761D02*
X152462380Y-110064047D01*
X153081428Y-110064047D01*
%TO.C,J5*%
X142966666Y-123552380D02*
X142966666Y-124266666D01*
X142919047Y-124409523D01*
X142823809Y-124504761D01*
X142680952Y-124552380D01*
X142585714Y-124552380D01*
X143919047Y-123552380D02*
X143442857Y-123552380D01*
X143395238Y-124028571D01*
X143442857Y-123980952D01*
X143538095Y-123933333D01*
X143776190Y-123933333D01*
X143871428Y-123980952D01*
X143919047Y-124028571D01*
X143966666Y-124123809D01*
X143966666Y-124361904D01*
X143919047Y-124457142D01*
X143871428Y-124504761D01*
X143776190Y-124552380D01*
X143538095Y-124552380D01*
X143442857Y-124504761D01*
X143395238Y-124457142D01*
%TO.C,R5*%
X167608333Y-63822380D02*
X167275000Y-63346190D01*
X167036904Y-63822380D02*
X167036904Y-62822380D01*
X167417857Y-62822380D01*
X167513095Y-62870000D01*
X167560714Y-62917619D01*
X167608333Y-63012857D01*
X167608333Y-63155714D01*
X167560714Y-63250952D01*
X167513095Y-63298571D01*
X167417857Y-63346190D01*
X167036904Y-63346190D01*
X168513095Y-62822380D02*
X168036904Y-62822380D01*
X167989285Y-63298571D01*
X168036904Y-63250952D01*
X168132142Y-63203333D01*
X168370238Y-63203333D01*
X168465476Y-63250952D01*
X168513095Y-63298571D01*
X168560714Y-63393809D01*
X168560714Y-63631904D01*
X168513095Y-63727142D01*
X168465476Y-63774761D01*
X168370238Y-63822380D01*
X168132142Y-63822380D01*
X168036904Y-63774761D01*
X167989285Y-63727142D01*
X166703571Y-59082380D02*
X166132142Y-59082380D01*
X166417857Y-59082380D02*
X166417857Y-58082380D01*
X166322619Y-58225238D01*
X166227380Y-58320476D01*
X166132142Y-58368095D01*
X167322619Y-58082380D02*
X167417857Y-58082380D01*
X167513095Y-58130000D01*
X167560714Y-58177619D01*
X167608333Y-58272857D01*
X167655952Y-58463333D01*
X167655952Y-58701428D01*
X167608333Y-58891904D01*
X167560714Y-58987142D01*
X167513095Y-59034761D01*
X167417857Y-59082380D01*
X167322619Y-59082380D01*
X167227380Y-59034761D01*
X167179761Y-58987142D01*
X167132142Y-58891904D01*
X167084523Y-58701428D01*
X167084523Y-58463333D01*
X167132142Y-58272857D01*
X167179761Y-58177619D01*
X167227380Y-58130000D01*
X167322619Y-58082380D01*
X168275000Y-58082380D02*
X168370238Y-58082380D01*
X168465476Y-58130000D01*
X168513095Y-58177619D01*
X168560714Y-58272857D01*
X168608333Y-58463333D01*
X168608333Y-58701428D01*
X168560714Y-58891904D01*
X168513095Y-58987142D01*
X168465476Y-59034761D01*
X168370238Y-59082380D01*
X168275000Y-59082380D01*
X168179761Y-59034761D01*
X168132142Y-58987142D01*
X168084523Y-58891904D01*
X168036904Y-58701428D01*
X168036904Y-58463333D01*
X168084523Y-58272857D01*
X168132142Y-58177619D01*
X168179761Y-58130000D01*
X168275000Y-58082380D01*
X169036904Y-59082380D02*
X169036904Y-58082380D01*
X169132142Y-58701428D02*
X169417857Y-59082380D01*
X169417857Y-58415714D02*
X169036904Y-58796666D01*
%TO.C,R4*%
X150058333Y-117082380D02*
X149725000Y-116606190D01*
X149486904Y-117082380D02*
X149486904Y-116082380D01*
X149867857Y-116082380D01*
X149963095Y-116130000D01*
X150010714Y-116177619D01*
X150058333Y-116272857D01*
X150058333Y-116415714D01*
X150010714Y-116510952D01*
X149963095Y-116558571D01*
X149867857Y-116606190D01*
X149486904Y-116606190D01*
X150915476Y-116415714D02*
X150915476Y-117082380D01*
X150677380Y-116034761D02*
X150439285Y-116749047D01*
X151058333Y-116749047D01*
X150105952Y-121822380D02*
X149534523Y-121822380D01*
X149820238Y-121822380D02*
X149820238Y-120822380D01*
X149725000Y-120965238D01*
X149629761Y-121060476D01*
X149534523Y-121108095D01*
X150534523Y-121822380D02*
X150534523Y-120822380D01*
X150629761Y-121441428D02*
X150915476Y-121822380D01*
X150915476Y-121155714D02*
X150534523Y-121536666D01*
%TO.C,J1*%
X143666666Y-142452380D02*
X143666666Y-143166666D01*
X143619047Y-143309523D01*
X143523809Y-143404761D01*
X143380952Y-143452380D01*
X143285714Y-143452380D01*
X144666666Y-143452380D02*
X144095238Y-143452380D01*
X144380952Y-143452380D02*
X144380952Y-142452380D01*
X144285714Y-142595238D01*
X144190476Y-142690476D01*
X144095238Y-142738095D01*
X145261904Y-142785714D02*
X145261904Y-143785714D01*
X145261904Y-142833333D02*
X145357142Y-142785714D01*
X145547619Y-142785714D01*
X145642857Y-142833333D01*
X145690476Y-142880952D01*
X145738095Y-142976190D01*
X145738095Y-143261904D01*
X145690476Y-143357142D01*
X145642857Y-143404761D01*
X145547619Y-143452380D01*
X145357142Y-143452380D01*
X145261904Y-143404761D01*
X146166666Y-143452380D02*
X146166666Y-142785714D01*
X146166666Y-142452380D02*
X146119047Y-142500000D01*
X146166666Y-142547619D01*
X146214285Y-142500000D01*
X146166666Y-142452380D01*
X146166666Y-142547619D01*
X147023809Y-143404761D02*
X146928571Y-143452380D01*
X146738095Y-143452380D01*
X146642857Y-143404761D01*
X146595238Y-143309523D01*
X146595238Y-142928571D01*
X146642857Y-142833333D01*
X146738095Y-142785714D01*
X146928571Y-142785714D01*
X147023809Y-142833333D01*
X147071428Y-142928571D01*
X147071428Y-143023809D01*
X146595238Y-143119047D01*
X147404761Y-142785714D02*
X147928571Y-142785714D01*
X147404761Y-143452380D01*
X147928571Y-143452380D01*
X148452380Y-143452380D02*
X148357142Y-143404761D01*
X148309523Y-143357142D01*
X148261904Y-143261904D01*
X148261904Y-142976190D01*
X148309523Y-142880952D01*
X148357142Y-142833333D01*
X148452380Y-142785714D01*
X148595238Y-142785714D01*
X148690476Y-142833333D01*
X148738095Y-142880952D01*
X148785714Y-142976190D01*
X148785714Y-143261904D01*
X148738095Y-143357142D01*
X148690476Y-143404761D01*
X148595238Y-143452380D01*
X148452380Y-143452380D01*
%TO.C,D1*%
X154261904Y-137452380D02*
X154261904Y-136452380D01*
X154500000Y-136452380D01*
X154642857Y-136500000D01*
X154738095Y-136595238D01*
X154785714Y-136690476D01*
X154833333Y-136880952D01*
X154833333Y-137023809D01*
X154785714Y-137214285D01*
X154738095Y-137309523D01*
X154642857Y-137404761D01*
X154500000Y-137452380D01*
X154261904Y-137452380D01*
X155785714Y-137452380D02*
X155214285Y-137452380D01*
X155500000Y-137452380D02*
X155500000Y-136452380D01*
X155404761Y-136595238D01*
X155309523Y-136690476D01*
X155214285Y-136738095D01*
X150928095Y-140452380D02*
X150928095Y-139452380D01*
X151499523Y-140452380D02*
X151070952Y-139880952D01*
X151499523Y-139452380D02*
X150928095Y-140023809D01*
%TO.C,C1*%
X142607142Y-82916666D02*
X142654761Y-82964285D01*
X142702380Y-83107142D01*
X142702380Y-83202380D01*
X142654761Y-83345238D01*
X142559523Y-83440476D01*
X142464285Y-83488095D01*
X142273809Y-83535714D01*
X142130952Y-83535714D01*
X141940476Y-83488095D01*
X141845238Y-83440476D01*
X141750000Y-83345238D01*
X141702380Y-83202380D01*
X141702380Y-83107142D01*
X141750000Y-82964285D01*
X141797619Y-82916666D01*
X142702380Y-81964285D02*
X142702380Y-82535714D01*
X142702380Y-82250000D02*
X141702380Y-82250000D01*
X141845238Y-82345238D01*
X141940476Y-82440476D01*
X141988095Y-82535714D01*
%TO.C,R3*%
X168058333Y-112082380D02*
X167725000Y-111606190D01*
X167486904Y-112082380D02*
X167486904Y-111082380D01*
X167867857Y-111082380D01*
X167963095Y-111130000D01*
X168010714Y-111177619D01*
X168058333Y-111272857D01*
X168058333Y-111415714D01*
X168010714Y-111510952D01*
X167963095Y-111558571D01*
X167867857Y-111606190D01*
X167486904Y-111606190D01*
X168391666Y-111082380D02*
X169010714Y-111082380D01*
X168677380Y-111463333D01*
X168820238Y-111463333D01*
X168915476Y-111510952D01*
X168963095Y-111558571D01*
X169010714Y-111653809D01*
X169010714Y-111891904D01*
X168963095Y-111987142D01*
X168915476Y-112034761D01*
X168820238Y-112082380D01*
X168534523Y-112082380D01*
X168439285Y-112034761D01*
X168391666Y-111987142D01*
X168105952Y-116822380D02*
X167534523Y-116822380D01*
X167820238Y-116822380D02*
X167820238Y-115822380D01*
X167725000Y-115965238D01*
X167629761Y-116060476D01*
X167534523Y-116108095D01*
X168534523Y-116822380D02*
X168534523Y-115822380D01*
X168629761Y-116441428D02*
X168915476Y-116822380D01*
X168915476Y-116155714D02*
X168534523Y-116536666D01*
%TO.C,J4*%
X143666666Y-46452380D02*
X143666666Y-47166666D01*
X143619047Y-47309523D01*
X143523809Y-47404761D01*
X143380952Y-47452380D01*
X143285714Y-47452380D01*
X144571428Y-46785714D02*
X144571428Y-47452380D01*
X144333333Y-46404761D02*
X144095238Y-47119047D01*
X144714285Y-47119047D01*
X141452380Y-48785714D02*
X141833333Y-48785714D01*
X141595238Y-48452380D02*
X141595238Y-49309523D01*
X141642857Y-49404761D01*
X141738095Y-49452380D01*
X141833333Y-49452380D01*
X142309523Y-49452380D02*
X142214285Y-49404761D01*
X142166666Y-49357142D01*
X142119047Y-49261904D01*
X142119047Y-48976190D01*
X142166666Y-48880952D01*
X142214285Y-48833333D01*
X142309523Y-48785714D01*
X142452380Y-48785714D01*
X142547619Y-48833333D01*
X142595238Y-48880952D01*
X142642857Y-48976190D01*
X142642857Y-49261904D01*
X142595238Y-49357142D01*
X142547619Y-49404761D01*
X142452380Y-49452380D01*
X142309523Y-49452380D01*
X144214285Y-49404761D02*
X144119047Y-49452380D01*
X143928571Y-49452380D01*
X143833333Y-49404761D01*
X143785714Y-49309523D01*
X143785714Y-48928571D01*
X143833333Y-48833333D01*
X143928571Y-48785714D01*
X144119047Y-48785714D01*
X144214285Y-48833333D01*
X144261904Y-48928571D01*
X144261904Y-49023809D01*
X143785714Y-49119047D01*
X144595238Y-49452380D02*
X145119047Y-48785714D01*
X144595238Y-48785714D02*
X145119047Y-49452380D01*
X145928571Y-49404761D02*
X145833333Y-49452380D01*
X145642857Y-49452380D01*
X145547619Y-49404761D01*
X145500000Y-49357142D01*
X145452380Y-49261904D01*
X145452380Y-48976190D01*
X145500000Y-48880952D01*
X145547619Y-48833333D01*
X145642857Y-48785714D01*
X145833333Y-48785714D01*
X145928571Y-48833333D01*
X146357142Y-49452380D02*
X146357142Y-48785714D01*
X146357142Y-48452380D02*
X146309523Y-48500000D01*
X146357142Y-48547619D01*
X146404761Y-48500000D01*
X146357142Y-48452380D01*
X146357142Y-48547619D01*
X146690476Y-48785714D02*
X147071428Y-48785714D01*
X146833333Y-48452380D02*
X146833333Y-49309523D01*
X146880952Y-49404761D01*
X146976190Y-49452380D01*
X147071428Y-49452380D01*
X147785714Y-49404761D02*
X147690476Y-49452380D01*
X147500000Y-49452380D01*
X147404761Y-49404761D01*
X147357142Y-49309523D01*
X147357142Y-48928571D01*
X147404761Y-48833333D01*
X147500000Y-48785714D01*
X147690476Y-48785714D01*
X147785714Y-48833333D01*
X147833333Y-48928571D01*
X147833333Y-49023809D01*
X147357142Y-49119047D01*
X148261904Y-49452380D02*
X148261904Y-48785714D01*
X148261904Y-48976190D02*
X148309523Y-48880952D01*
X148357142Y-48833333D01*
X148452380Y-48785714D01*
X148547619Y-48785714D01*
%TO.C,D2*%
X154261904Y-127452380D02*
X154261904Y-126452380D01*
X154500000Y-126452380D01*
X154642857Y-126500000D01*
X154738095Y-126595238D01*
X154785714Y-126690476D01*
X154833333Y-126880952D01*
X154833333Y-127023809D01*
X154785714Y-127214285D01*
X154738095Y-127309523D01*
X154642857Y-127404761D01*
X154500000Y-127452380D01*
X154261904Y-127452380D01*
X155214285Y-126547619D02*
X155261904Y-126500000D01*
X155357142Y-126452380D01*
X155595238Y-126452380D01*
X155690476Y-126500000D01*
X155738095Y-126547619D01*
X155785714Y-126642857D01*
X155785714Y-126738095D01*
X155738095Y-126880952D01*
X155166666Y-127452380D01*
X155785714Y-127452380D01*
X160738095Y-127452380D02*
X160738095Y-126452380D01*
X161309523Y-127452380D02*
X160880952Y-126880952D01*
X161309523Y-126452380D02*
X160738095Y-127023809D01*
%TO.C,R_filter1*%
X145867857Y-71082380D02*
X145534523Y-70606190D01*
X145296428Y-71082380D02*
X145296428Y-70082380D01*
X145677380Y-70082380D01*
X145772619Y-70130000D01*
X145820238Y-70177619D01*
X145867857Y-70272857D01*
X145867857Y-70415714D01*
X145820238Y-70510952D01*
X145772619Y-70558571D01*
X145677380Y-70606190D01*
X145296428Y-70606190D01*
X146058333Y-71177619D02*
X146820238Y-71177619D01*
X146915476Y-70415714D02*
X147296428Y-70415714D01*
X147058333Y-71082380D02*
X147058333Y-70225238D01*
X147105952Y-70130000D01*
X147201190Y-70082380D01*
X147296428Y-70082380D01*
X147629761Y-71082380D02*
X147629761Y-70415714D01*
X147629761Y-70082380D02*
X147582142Y-70130000D01*
X147629761Y-70177619D01*
X147677380Y-70130000D01*
X147629761Y-70082380D01*
X147629761Y-70177619D01*
X148248809Y-71082380D02*
X148153571Y-71034761D01*
X148105952Y-70939523D01*
X148105952Y-70082380D01*
X148486904Y-70415714D02*
X148867857Y-70415714D01*
X148629761Y-70082380D02*
X148629761Y-70939523D01*
X148677380Y-71034761D01*
X148772619Y-71082380D01*
X148867857Y-71082380D01*
X149582142Y-71034761D02*
X149486904Y-71082380D01*
X149296428Y-71082380D01*
X149201190Y-71034761D01*
X149153571Y-70939523D01*
X149153571Y-70558571D01*
X149201190Y-70463333D01*
X149296428Y-70415714D01*
X149486904Y-70415714D01*
X149582142Y-70463333D01*
X149629761Y-70558571D01*
X149629761Y-70653809D01*
X149153571Y-70749047D01*
X150058333Y-71082380D02*
X150058333Y-70415714D01*
X150058333Y-70606190D02*
X150105952Y-70510952D01*
X150153571Y-70463333D01*
X150248809Y-70415714D01*
X150344047Y-70415714D01*
X151201190Y-71082380D02*
X150629761Y-71082380D01*
X150915476Y-71082380D02*
X150915476Y-70082380D01*
X150820238Y-70225238D01*
X150725000Y-70320476D01*
X150629761Y-70368095D01*
%TO.C,C2*%
X144357142Y-103916666D02*
X144404761Y-103964285D01*
X144452380Y-104107142D01*
X144452380Y-104202380D01*
X144404761Y-104345238D01*
X144309523Y-104440476D01*
X144214285Y-104488095D01*
X144023809Y-104535714D01*
X143880952Y-104535714D01*
X143690476Y-104488095D01*
X143595238Y-104440476D01*
X143500000Y-104345238D01*
X143452380Y-104202380D01*
X143452380Y-104107142D01*
X143500000Y-103964285D01*
X143547619Y-103916666D01*
X143547619Y-103535714D02*
X143500000Y-103488095D01*
X143452380Y-103392857D01*
X143452380Y-103154761D01*
X143500000Y-103059523D01*
X143547619Y-103011904D01*
X143642857Y-102964285D01*
X143738095Y-102964285D01*
X143880952Y-103011904D01*
X144452380Y-103583333D01*
X144452380Y-102964285D01*
X144452380Y-112071428D02*
X144452380Y-112642857D01*
X144452380Y-112357142D02*
X143452380Y-112357142D01*
X143595238Y-112452380D01*
X143690476Y-112547619D01*
X143738095Y-112642857D01*
X143452380Y-111452380D02*
X143452380Y-111357142D01*
X143500000Y-111261904D01*
X143547619Y-111214285D01*
X143642857Y-111166666D01*
X143833333Y-111119047D01*
X144071428Y-111119047D01*
X144261904Y-111166666D01*
X144357142Y-111214285D01*
X144404761Y-111261904D01*
X144452380Y-111357142D01*
X144452380Y-111452380D01*
X144404761Y-111547619D01*
X144357142Y-111595238D01*
X144261904Y-111642857D01*
X144071428Y-111690476D01*
X143833333Y-111690476D01*
X143642857Y-111642857D01*
X143547619Y-111595238D01*
X143500000Y-111547619D01*
X143452380Y-111452380D01*
X143785714Y-110261904D02*
X144452380Y-110261904D01*
X143785714Y-110690476D02*
X144309523Y-110690476D01*
X144404761Y-110642857D01*
X144452380Y-110547619D01*
X144452380Y-110404761D01*
X144404761Y-110309523D01*
X144357142Y-110261904D01*
X143928571Y-109452380D02*
X143928571Y-109785714D01*
X144452380Y-109785714D02*
X143452380Y-109785714D01*
X143452380Y-109309523D01*
D11*
%TO.C,R6*%
X167055000Y-87000000D02*
X169665000Y-87000000D01*
X167055000Y-87000000D02*
G75*
G03*
X167055000Y-87000000I-1370000J0D01*
G01*
%TO.C,R2*%
X162055000Y-91000000D02*
X164665000Y-91000000D01*
X162055000Y-91000000D02*
G75*
G03*
X162055000Y-91000000I-1370000J0D01*
G01*
%TO.C,R1*%
X156945000Y-132000000D02*
X154335000Y-132000000D01*
X159685000Y-132000000D02*
G75*
G03*
X159685000Y-132000000I-1370000J0D01*
G01*
%TO.C,C3*%
X159370000Y-108870000D02*
X156630000Y-108870000D01*
X159370000Y-98630000D02*
X156630000Y-98630000D01*
X156630000Y-98630000D02*
X156630000Y-108870000D01*
X159370000Y-98630000D02*
X159370000Y-108870000D01*
%TO.C,U1*%
X153660000Y-108945000D02*
X153660000Y-91045000D01*
X148360000Y-91045000D02*
X148360000Y-108945000D01*
X148360000Y-108945000D02*
X153660000Y-108945000D01*
X150010000Y-91045000D02*
X148360000Y-91045000D01*
X153660000Y-91045000D02*
X152010000Y-91045000D01*
X150010000Y-91045000D02*
G75*
G03*
X152010000Y-91045000I1000000J0D01*
G01*
%TO.C,J5*%
X142670000Y-138490000D02*
X147870000Y-138490000D01*
X142670000Y-127000000D02*
X142670000Y-125670000D01*
X145270000Y-125670000D02*
X147870000Y-125670000D01*
X142670000Y-125670000D02*
X144000000Y-125670000D01*
X145270000Y-128270000D02*
X145270000Y-125670000D01*
X142670000Y-128270000D02*
X142670000Y-138490000D01*
X142670000Y-128270000D02*
X145270000Y-128270000D01*
X147870000Y-125670000D02*
X147870000Y-138490000D01*
%TO.C,R5*%
X168945000Y-61000000D02*
X166335000Y-61000000D01*
X171685000Y-61000000D02*
G75*
G03*
X171685000Y-61000000I-1370000J0D01*
G01*
%TO.C,R4*%
X149055000Y-119000000D02*
X151665000Y-119000000D01*
X149055000Y-119000000D02*
G75*
G03*
X149055000Y-119000000I-1370000J0D01*
G01*
%TO.C,J1*%
X144000000Y-147330000D02*
X142670000Y-147330000D01*
X145270000Y-147330000D02*
X147870000Y-147330000D01*
X145270000Y-144670000D02*
X147870000Y-144670000D01*
X145270000Y-147330000D02*
X145270000Y-144670000D01*
X147870000Y-147330000D02*
X147870000Y-144670000D01*
X142670000Y-147330000D02*
X142670000Y-146000000D01*
%TO.C,D1*%
X153180000Y-135530000D02*
X153180000Y-138470000D01*
X152280000Y-135860000D02*
X152280000Y-135530000D01*
X157720000Y-135530000D02*
X157720000Y-135860000D01*
X152280000Y-135530000D02*
X157720000Y-135530000D01*
X153300000Y-135530000D02*
X153300000Y-138470000D01*
X157720000Y-138470000D02*
X157720000Y-138140000D01*
X152280000Y-138470000D02*
X157720000Y-138470000D01*
X152280000Y-138140000D02*
X152280000Y-138470000D01*
X153060000Y-135530000D02*
X153060000Y-138470000D01*
%TO.C,C1*%
X143905000Y-81229000D02*
X144960000Y-81229000D01*
X147040000Y-81789000D02*
X148398000Y-81789000D01*
X143439000Y-82430000D02*
X144960000Y-82430000D01*
X147040000Y-82470000D02*
X148565000Y-82470000D01*
X144500000Y-80629000D02*
X144960000Y-80629000D01*
X147040000Y-82110000D02*
X148501000Y-82110000D01*
X147040000Y-81429000D02*
X148224000Y-81429000D01*
X143618000Y-81749000D02*
X144960000Y-81749000D01*
X147040000Y-82430000D02*
X148561000Y-82430000D01*
X144822000Y-80429000D02*
X147178000Y-80429000D01*
X143690000Y-81589000D02*
X144960000Y-81589000D01*
X147040000Y-80549000D02*
X147383000Y-80549000D01*
X143671000Y-81629000D02*
X144960000Y-81629000D01*
X143545000Y-81949000D02*
X144960000Y-81949000D01*
X147040000Y-81189000D02*
X148065000Y-81189000D01*
X147040000Y-81349000D02*
X148175000Y-81349000D01*
X143652000Y-81669000D02*
X144960000Y-81669000D01*
X144174000Y-80909000D02*
X144960000Y-80909000D01*
X143635000Y-81709000D02*
X144960000Y-81709000D01*
X147040000Y-81309000D02*
X148149000Y-81309000D01*
X143431000Y-82510000D02*
X144960000Y-82510000D01*
X144099000Y-80989000D02*
X144960000Y-80989000D01*
X143753000Y-81469000D02*
X144960000Y-81469000D01*
X143420000Y-82750000D02*
X148580000Y-82750000D01*
X147040000Y-81149000D02*
X148035000Y-81149000D01*
X147040000Y-81269000D02*
X148122000Y-81269000D01*
X145482000Y-80189000D02*
X146518000Y-80189000D01*
X147040000Y-80829000D02*
X147743000Y-80829000D01*
X143586000Y-81829000D02*
X144960000Y-81829000D01*
X147040000Y-80709000D02*
X147605000Y-80709000D01*
X147040000Y-81989000D02*
X148468000Y-81989000D01*
X144301000Y-80789000D02*
X144960000Y-80789000D01*
X147040000Y-81069000D02*
X147971000Y-81069000D01*
X147040000Y-80589000D02*
X147443000Y-80589000D01*
X147040000Y-80949000D02*
X147864000Y-80949000D01*
X143935000Y-81189000D02*
X144960000Y-81189000D01*
X147040000Y-81229000D02*
X148095000Y-81229000D01*
X143710000Y-81549000D02*
X144960000Y-81549000D01*
X144063000Y-81029000D02*
X144960000Y-81029000D01*
X147040000Y-81469000D02*
X148247000Y-81469000D01*
X147040000Y-80509000D02*
X147319000Y-80509000D01*
X147040000Y-81829000D02*
X148414000Y-81829000D01*
X143602000Y-81789000D02*
X144960000Y-81789000D01*
X147040000Y-81709000D02*
X148365000Y-81709000D01*
X145085000Y-80309000D02*
X146915000Y-80309000D01*
X147040000Y-80669000D02*
X147554000Y-80669000D01*
X143457000Y-82310000D02*
X144960000Y-82310000D01*
X144902000Y-80389000D02*
X147098000Y-80389000D01*
X144681000Y-80509000D02*
X144960000Y-80509000D01*
X144215000Y-80869000D02*
X144960000Y-80869000D01*
X147040000Y-81389000D02*
X148200000Y-81389000D01*
X144275000Y-85304775D02*
X144775000Y-85304775D01*
X144617000Y-80549000D02*
X144960000Y-80549000D01*
X145716000Y-80149000D02*
X146284000Y-80149000D01*
X143509000Y-82070000D02*
X144960000Y-82070000D01*
X143464000Y-82270000D02*
X144960000Y-82270000D01*
X143878000Y-81269000D02*
X144960000Y-81269000D01*
X143520000Y-82029000D02*
X144960000Y-82029000D01*
X143435000Y-82470000D02*
X144960000Y-82470000D01*
X143825000Y-81349000D02*
X144960000Y-81349000D01*
X143965000Y-81149000D02*
X144960000Y-81149000D01*
X144525000Y-85554775D02*
X144525000Y-85054775D01*
X147040000Y-82350000D02*
X148550000Y-82350000D01*
X147040000Y-82310000D02*
X148543000Y-82310000D01*
X147040000Y-81629000D02*
X148329000Y-81629000D01*
X143427000Y-82550000D02*
X148573000Y-82550000D01*
X147040000Y-82070000D02*
X148491000Y-82070000D01*
X143532000Y-81989000D02*
X144960000Y-81989000D01*
X147040000Y-82150000D02*
X148511000Y-82150000D01*
X143450000Y-82350000D02*
X144960000Y-82350000D01*
X147040000Y-82230000D02*
X148528000Y-82230000D01*
X143732000Y-81509000D02*
X144960000Y-81509000D01*
X147040000Y-80989000D02*
X147901000Y-80989000D01*
X147040000Y-81909000D02*
X148442000Y-81909000D01*
X143480000Y-82190000D02*
X144960000Y-82190000D01*
X143472000Y-82230000D02*
X144960000Y-82230000D01*
X144029000Y-81069000D02*
X144960000Y-81069000D01*
X143558000Y-81909000D02*
X144960000Y-81909000D01*
X147040000Y-82029000D02*
X148480000Y-82029000D01*
X147040000Y-80749000D02*
X147653000Y-80749000D01*
X147040000Y-82510000D02*
X148569000Y-82510000D01*
X147040000Y-80789000D02*
X147699000Y-80789000D01*
X147040000Y-81029000D02*
X147937000Y-81029000D01*
X147040000Y-82270000D02*
X148536000Y-82270000D01*
X145195000Y-80269000D02*
X146805000Y-80269000D01*
X147040000Y-81669000D02*
X148348000Y-81669000D01*
X143444000Y-82390000D02*
X144960000Y-82390000D01*
X143424000Y-82590000D02*
X148576000Y-82590000D01*
X145323000Y-80229000D02*
X146677000Y-80229000D01*
X143996000Y-81109000D02*
X144960000Y-81109000D01*
X144257000Y-80829000D02*
X144960000Y-80829000D01*
X144136000Y-80949000D02*
X144960000Y-80949000D01*
X143420000Y-82710000D02*
X148580000Y-82710000D01*
X147040000Y-81589000D02*
X148310000Y-81589000D01*
X144989000Y-80349000D02*
X147011000Y-80349000D01*
X147040000Y-81949000D02*
X148455000Y-81949000D01*
X147040000Y-80469000D02*
X147251000Y-80469000D01*
X147040000Y-81509000D02*
X148268000Y-81509000D01*
X147040000Y-81109000D02*
X148004000Y-81109000D01*
X147040000Y-81869000D02*
X148428000Y-81869000D01*
X143851000Y-81309000D02*
X144960000Y-81309000D01*
X144446000Y-80669000D02*
X144960000Y-80669000D01*
X147040000Y-82190000D02*
X148520000Y-82190000D01*
X144749000Y-80469000D02*
X144960000Y-80469000D01*
X143572000Y-81869000D02*
X144960000Y-81869000D01*
X144557000Y-80589000D02*
X144960000Y-80589000D01*
X147040000Y-80909000D02*
X147826000Y-80909000D01*
X147040000Y-81549000D02*
X148290000Y-81549000D01*
X144395000Y-80709000D02*
X144960000Y-80709000D01*
X147040000Y-80629000D02*
X147500000Y-80629000D01*
X147040000Y-81749000D02*
X148382000Y-81749000D01*
X143499000Y-82110000D02*
X144960000Y-82110000D01*
X147040000Y-82390000D02*
X148556000Y-82390000D01*
X143422000Y-82630000D02*
X148578000Y-82630000D01*
X143489000Y-82150000D02*
X144960000Y-82150000D01*
X143421000Y-82670000D02*
X148579000Y-82670000D01*
X144347000Y-80749000D02*
X144960000Y-80749000D01*
X147040000Y-80869000D02*
X147785000Y-80869000D01*
X143800000Y-81389000D02*
X144960000Y-81389000D01*
X143776000Y-81429000D02*
X144960000Y-81429000D01*
X148620000Y-82750000D02*
G75*
G03*
X148620000Y-82750000I-2620000J0D01*
G01*
%TO.C,R3*%
X167055000Y-114000000D02*
X169665000Y-114000000D01*
X167055000Y-114000000D02*
G75*
G03*
X167055000Y-114000000I-1370000J0D01*
G01*
%TO.C,J4*%
X145270000Y-42670000D02*
X147870000Y-42670000D01*
X142670000Y-45330000D02*
X142670000Y-44000000D01*
X147870000Y-45330000D02*
X147870000Y-42670000D01*
X144000000Y-45330000D02*
X142670000Y-45330000D01*
X145270000Y-45330000D02*
X145270000Y-42670000D01*
X145270000Y-45330000D02*
X147870000Y-45330000D01*
%TO.C,D2*%
X157720000Y-125530000D02*
X152280000Y-125530000D01*
X157720000Y-128470000D02*
X152280000Y-128470000D01*
X152280000Y-128470000D02*
X152280000Y-128140000D01*
X157720000Y-125860000D02*
X157720000Y-125530000D01*
X156940000Y-128470000D02*
X156940000Y-125530000D01*
X156820000Y-128470000D02*
X156820000Y-125530000D01*
X156700000Y-128470000D02*
X156700000Y-125530000D01*
X157720000Y-128140000D02*
X157720000Y-128470000D01*
X152280000Y-125530000D02*
X152280000Y-125860000D01*
%TO.C,R_filter1*%
X147055000Y-73000000D02*
X149665000Y-73000000D01*
X147055000Y-73000000D02*
G75*
G03*
X147055000Y-73000000I-1370000J0D01*
G01*
%TO.C,C2*%
X142630000Y-98630000D02*
X142630000Y-108870000D01*
X145370000Y-98630000D02*
X145370000Y-108870000D01*
X145370000Y-98630000D02*
X142630000Y-98630000D01*
X145370000Y-108870000D02*
X142630000Y-108870000D01*
%TD*%
M02*
