%TF.GenerationSoftware,KiCad,Pcbnew,(6.0.4-0)*%
%TF.CreationDate,2022-12-20T09:13:06-08:00*%
%TF.ProjectId,reverb_v2,72657665-7262-45f7-9632-2e6b69636164,rev?*%
%TF.SameCoordinates,Original*%
%TF.FileFunction,Legend,Bot*%
%TF.FilePolarity,Positive*%
%FSLAX46Y46*%
G04 Gerber Fmt 4.6, Leading zero omitted, Abs format (unit mm)*
G04 Created by KiCad (PCBNEW (6.0.4-0)) date 2022-12-20 09:13:06*
%MOMM*%
%LPD*%
G01*
G04 APERTURE LIST*
%ADD10C,0.150000*%
%ADD11C,0.120000*%
G04 APERTURE END LIST*
D10*
%TO.C,RV_dry/wet1*%
X176102380Y-45119047D02*
X175626190Y-44785714D01*
X176102380Y-44547619D02*
X175102380Y-44547619D01*
X175102380Y-44928571D01*
X175150000Y-45023809D01*
X175197619Y-45071428D01*
X175292857Y-45119047D01*
X175435714Y-45119047D01*
X175530952Y-45071428D01*
X175578571Y-45023809D01*
X175626190Y-44928571D01*
X175626190Y-44547619D01*
X175102380Y-45404761D02*
X176102380Y-45738095D01*
X175102380Y-46071428D01*
X176197619Y-46166666D02*
X176197619Y-46928571D01*
X176102380Y-47595238D02*
X175102380Y-47595238D01*
X176054761Y-47595238D02*
X176102380Y-47500000D01*
X176102380Y-47309523D01*
X176054761Y-47214285D01*
X176007142Y-47166666D01*
X175911904Y-47119047D01*
X175626190Y-47119047D01*
X175530952Y-47166666D01*
X175483333Y-47214285D01*
X175435714Y-47309523D01*
X175435714Y-47500000D01*
X175483333Y-47595238D01*
X176102380Y-48071428D02*
X175435714Y-48071428D01*
X175626190Y-48071428D02*
X175530952Y-48119047D01*
X175483333Y-48166666D01*
X175435714Y-48261904D01*
X175435714Y-48357142D01*
X175435714Y-48595238D02*
X176102380Y-48833333D01*
X175435714Y-49071428D02*
X176102380Y-48833333D01*
X176340476Y-48738095D01*
X176388095Y-48690476D01*
X176435714Y-48595238D01*
X175054761Y-50166666D02*
X176340476Y-49309523D01*
X175435714Y-50404761D02*
X176102380Y-50595238D01*
X175626190Y-50785714D01*
X176102380Y-50976190D01*
X175435714Y-51166666D01*
X176054761Y-51928571D02*
X176102380Y-51833333D01*
X176102380Y-51642857D01*
X176054761Y-51547619D01*
X175959523Y-51500000D01*
X175578571Y-51500000D01*
X175483333Y-51547619D01*
X175435714Y-51642857D01*
X175435714Y-51833333D01*
X175483333Y-51928571D01*
X175578571Y-51976190D01*
X175673809Y-51976190D01*
X175769047Y-51500000D01*
X175435714Y-52261904D02*
X175435714Y-52642857D01*
X175102380Y-52404761D02*
X175959523Y-52404761D01*
X176054761Y-52452380D01*
X176102380Y-52547619D01*
X176102380Y-52642857D01*
X176102380Y-53500000D02*
X176102380Y-52928571D01*
X176102380Y-53214285D02*
X175102380Y-53214285D01*
X175245238Y-53119047D01*
X175340476Y-53023809D01*
X175388095Y-52928571D01*
X160802380Y-47928571D02*
X160802380Y-47357142D01*
X160802380Y-47642857D02*
X159802380Y-47642857D01*
X159945238Y-47547619D01*
X160040476Y-47452380D01*
X160088095Y-47357142D01*
X159802380Y-48547619D02*
X159802380Y-48642857D01*
X159850000Y-48738095D01*
X159897619Y-48785714D01*
X159992857Y-48833333D01*
X160183333Y-48880952D01*
X160421428Y-48880952D01*
X160611904Y-48833333D01*
X160707142Y-48785714D01*
X160754761Y-48738095D01*
X160802380Y-48642857D01*
X160802380Y-48547619D01*
X160754761Y-48452380D01*
X160707142Y-48404761D01*
X160611904Y-48357142D01*
X160421428Y-48309523D01*
X160183333Y-48309523D01*
X159992857Y-48357142D01*
X159897619Y-48404761D01*
X159850000Y-48452380D01*
X159802380Y-48547619D01*
X159802380Y-49500000D02*
X159802380Y-49595238D01*
X159850000Y-49690476D01*
X159897619Y-49738095D01*
X159992857Y-49785714D01*
X160183333Y-49833333D01*
X160421428Y-49833333D01*
X160611904Y-49785714D01*
X160707142Y-49738095D01*
X160754761Y-49690476D01*
X160802380Y-49595238D01*
X160802380Y-49500000D01*
X160754761Y-49404761D01*
X160707142Y-49357142D01*
X160611904Y-49309523D01*
X160421428Y-49261904D01*
X160183333Y-49261904D01*
X159992857Y-49309523D01*
X159897619Y-49357142D01*
X159850000Y-49404761D01*
X159802380Y-49500000D01*
X160802380Y-50261904D02*
X159802380Y-50261904D01*
X160421428Y-50357142D02*
X160802380Y-50642857D01*
X160135714Y-50642857D02*
X160516666Y-50261904D01*
%TO.C,RV_send_gain1*%
X176102380Y-71309523D02*
X175626190Y-70976190D01*
X176102380Y-70738095D02*
X175102380Y-70738095D01*
X175102380Y-71119047D01*
X175150000Y-71214285D01*
X175197619Y-71261904D01*
X175292857Y-71309523D01*
X175435714Y-71309523D01*
X175530952Y-71261904D01*
X175578571Y-71214285D01*
X175626190Y-71119047D01*
X175626190Y-70738095D01*
X175102380Y-71595238D02*
X176102380Y-71928571D01*
X175102380Y-72261904D01*
X176197619Y-72357142D02*
X176197619Y-73119047D01*
X176054761Y-73309523D02*
X176102380Y-73404761D01*
X176102380Y-73595238D01*
X176054761Y-73690476D01*
X175959523Y-73738095D01*
X175911904Y-73738095D01*
X175816666Y-73690476D01*
X175769047Y-73595238D01*
X175769047Y-73452380D01*
X175721428Y-73357142D01*
X175626190Y-73309523D01*
X175578571Y-73309523D01*
X175483333Y-73357142D01*
X175435714Y-73452380D01*
X175435714Y-73595238D01*
X175483333Y-73690476D01*
X176054761Y-74547619D02*
X176102380Y-74452380D01*
X176102380Y-74261904D01*
X176054761Y-74166666D01*
X175959523Y-74119047D01*
X175578571Y-74119047D01*
X175483333Y-74166666D01*
X175435714Y-74261904D01*
X175435714Y-74452380D01*
X175483333Y-74547619D01*
X175578571Y-74595238D01*
X175673809Y-74595238D01*
X175769047Y-74119047D01*
X175435714Y-75023809D02*
X176102380Y-75023809D01*
X175530952Y-75023809D02*
X175483333Y-75071428D01*
X175435714Y-75166666D01*
X175435714Y-75309523D01*
X175483333Y-75404761D01*
X175578571Y-75452380D01*
X176102380Y-75452380D01*
X176102380Y-76357142D02*
X175102380Y-76357142D01*
X176054761Y-76357142D02*
X176102380Y-76261904D01*
X176102380Y-76071428D01*
X176054761Y-75976190D01*
X176007142Y-75928571D01*
X175911904Y-75880952D01*
X175626190Y-75880952D01*
X175530952Y-75928571D01*
X175483333Y-75976190D01*
X175435714Y-76071428D01*
X175435714Y-76261904D01*
X175483333Y-76357142D01*
X176197619Y-76595238D02*
X176197619Y-77357142D01*
X175435714Y-78023809D02*
X176245238Y-78023809D01*
X176340476Y-77976190D01*
X176388095Y-77928571D01*
X176435714Y-77833333D01*
X176435714Y-77690476D01*
X176388095Y-77595238D01*
X176054761Y-78023809D02*
X176102380Y-77928571D01*
X176102380Y-77738095D01*
X176054761Y-77642857D01*
X176007142Y-77595238D01*
X175911904Y-77547619D01*
X175626190Y-77547619D01*
X175530952Y-77595238D01*
X175483333Y-77642857D01*
X175435714Y-77738095D01*
X175435714Y-77928571D01*
X175483333Y-78023809D01*
X176102380Y-78928571D02*
X175578571Y-78928571D01*
X175483333Y-78880952D01*
X175435714Y-78785714D01*
X175435714Y-78595238D01*
X175483333Y-78500000D01*
X176054761Y-78928571D02*
X176102380Y-78833333D01*
X176102380Y-78595238D01*
X176054761Y-78500000D01*
X175959523Y-78452380D01*
X175864285Y-78452380D01*
X175769047Y-78500000D01*
X175721428Y-78595238D01*
X175721428Y-78833333D01*
X175673809Y-78928571D01*
X176102380Y-79404761D02*
X175435714Y-79404761D01*
X175102380Y-79404761D02*
X175150000Y-79357142D01*
X175197619Y-79404761D01*
X175150000Y-79452380D01*
X175102380Y-79404761D01*
X175197619Y-79404761D01*
X175435714Y-79880952D02*
X176102380Y-79880952D01*
X175530952Y-79880952D02*
X175483333Y-79928571D01*
X175435714Y-80023809D01*
X175435714Y-80166666D01*
X175483333Y-80261904D01*
X175578571Y-80309523D01*
X176102380Y-80309523D01*
X176102380Y-81309523D02*
X176102380Y-80738095D01*
X176102380Y-81023809D02*
X175102380Y-81023809D01*
X175245238Y-80928571D01*
X175340476Y-80833333D01*
X175388095Y-80738095D01*
X172595238Y-68452380D02*
X173166666Y-68452380D01*
X172880952Y-68452380D02*
X172880952Y-67452380D01*
X172976190Y-67595238D01*
X173071428Y-67690476D01*
X173166666Y-67738095D01*
X171976190Y-67452380D02*
X171880952Y-67452380D01*
X171785714Y-67500000D01*
X171738095Y-67547619D01*
X171690476Y-67642857D01*
X171642857Y-67833333D01*
X171642857Y-68071428D01*
X171690476Y-68261904D01*
X171738095Y-68357142D01*
X171785714Y-68404761D01*
X171880952Y-68452380D01*
X171976190Y-68452380D01*
X172071428Y-68404761D01*
X172119047Y-68357142D01*
X172166666Y-68261904D01*
X172214285Y-68071428D01*
X172214285Y-67833333D01*
X172166666Y-67642857D01*
X172119047Y-67547619D01*
X172071428Y-67500000D01*
X171976190Y-67452380D01*
X171214285Y-68452380D02*
X171214285Y-67452380D01*
X171119047Y-68071428D02*
X170833333Y-68452380D01*
X170833333Y-67785714D02*
X171214285Y-68166666D01*
%TO.C,J3*%
X167303333Y-129152380D02*
X167303333Y-129866666D01*
X167350952Y-130009523D01*
X167446190Y-130104761D01*
X167589047Y-130152380D01*
X167684285Y-130152380D01*
X166922380Y-129152380D02*
X166303333Y-129152380D01*
X166636666Y-129533333D01*
X166493809Y-129533333D01*
X166398571Y-129580952D01*
X166350952Y-129628571D01*
X166303333Y-129723809D01*
X166303333Y-129961904D01*
X166350952Y-130057142D01*
X166398571Y-130104761D01*
X166493809Y-130152380D01*
X166779523Y-130152380D01*
X166874761Y-130104761D01*
X166922380Y-130057142D01*
X165742857Y-124404761D02*
X165647619Y-124452380D01*
X165457142Y-124452380D01*
X165361904Y-124404761D01*
X165314285Y-124309523D01*
X165314285Y-124261904D01*
X165361904Y-124166666D01*
X165457142Y-124119047D01*
X165600000Y-124119047D01*
X165695238Y-124071428D01*
X165742857Y-123976190D01*
X165742857Y-123928571D01*
X165695238Y-123833333D01*
X165600000Y-123785714D01*
X165457142Y-123785714D01*
X165361904Y-123833333D01*
X164885714Y-124452380D02*
X164885714Y-123785714D01*
X164885714Y-123452380D02*
X164933333Y-123500000D01*
X164885714Y-123547619D01*
X164838095Y-123500000D01*
X164885714Y-123452380D01*
X164885714Y-123547619D01*
X163980952Y-123785714D02*
X163980952Y-124595238D01*
X164028571Y-124690476D01*
X164076190Y-124738095D01*
X164171428Y-124785714D01*
X164314285Y-124785714D01*
X164409523Y-124738095D01*
X163980952Y-124404761D02*
X164076190Y-124452380D01*
X164266666Y-124452380D01*
X164361904Y-124404761D01*
X164409523Y-124357142D01*
X164457142Y-124261904D01*
X164457142Y-123976190D01*
X164409523Y-123880952D01*
X164361904Y-123833333D01*
X164266666Y-123785714D01*
X164076190Y-123785714D01*
X163980952Y-123833333D01*
X163504761Y-123785714D02*
X163504761Y-124452380D01*
X163504761Y-123880952D02*
X163457142Y-123833333D01*
X163361904Y-123785714D01*
X163219047Y-123785714D01*
X163123809Y-123833333D01*
X163076190Y-123928571D01*
X163076190Y-124452380D01*
X162171428Y-124452380D02*
X162171428Y-123928571D01*
X162219047Y-123833333D01*
X162314285Y-123785714D01*
X162504761Y-123785714D01*
X162600000Y-123833333D01*
X162171428Y-124404761D02*
X162266666Y-124452380D01*
X162504761Y-124452380D01*
X162600000Y-124404761D01*
X162647619Y-124309523D01*
X162647619Y-124214285D01*
X162600000Y-124119047D01*
X162504761Y-124071428D01*
X162266666Y-124071428D01*
X162171428Y-124023809D01*
X161552380Y-124452380D02*
X161647619Y-124404761D01*
X161695238Y-124309523D01*
X161695238Y-123452380D01*
X160409523Y-124452380D02*
X160409523Y-123785714D01*
X160409523Y-123452380D02*
X160457142Y-123500000D01*
X160409523Y-123547619D01*
X160361904Y-123500000D01*
X160409523Y-123452380D01*
X160409523Y-123547619D01*
X159933333Y-123785714D02*
X159933333Y-124452380D01*
X159933333Y-123880952D02*
X159885714Y-123833333D01*
X159790476Y-123785714D01*
X159647619Y-123785714D01*
X159552380Y-123833333D01*
X159504761Y-123928571D01*
X159504761Y-124452380D01*
%TO.C,J6*%
X167303333Y-145152380D02*
X167303333Y-145866666D01*
X167350952Y-146009523D01*
X167446190Y-146104761D01*
X167589047Y-146152380D01*
X167684285Y-146152380D01*
X166398571Y-145152380D02*
X166589047Y-145152380D01*
X166684285Y-145200000D01*
X166731904Y-145247619D01*
X166827142Y-145390476D01*
X166874761Y-145580952D01*
X166874761Y-145961904D01*
X166827142Y-146057142D01*
X166779523Y-146104761D01*
X166684285Y-146152380D01*
X166493809Y-146152380D01*
X166398571Y-146104761D01*
X166350952Y-146057142D01*
X166303333Y-145961904D01*
X166303333Y-145723809D01*
X166350952Y-145628571D01*
X166398571Y-145580952D01*
X166493809Y-145533333D01*
X166684285Y-145533333D01*
X166779523Y-145580952D01*
X166827142Y-145628571D01*
X166874761Y-145723809D01*
X164809523Y-140452380D02*
X164904761Y-140404761D01*
X164952380Y-140357142D01*
X165000000Y-140261904D01*
X165000000Y-139976190D01*
X164952380Y-139880952D01*
X164904761Y-139833333D01*
X164809523Y-139785714D01*
X164666666Y-139785714D01*
X164571428Y-139833333D01*
X164523809Y-139880952D01*
X164476190Y-139976190D01*
X164476190Y-140261904D01*
X164523809Y-140357142D01*
X164571428Y-140404761D01*
X164666666Y-140452380D01*
X164809523Y-140452380D01*
X163619047Y-139785714D02*
X163619047Y-140452380D01*
X164047619Y-139785714D02*
X164047619Y-140309523D01*
X164000000Y-140404761D01*
X163904761Y-140452380D01*
X163761904Y-140452380D01*
X163666666Y-140404761D01*
X163619047Y-140357142D01*
X163285714Y-139785714D02*
X162904761Y-139785714D01*
X163142857Y-139452380D02*
X163142857Y-140309523D01*
X163095238Y-140404761D01*
X163000000Y-140452380D01*
X162904761Y-140452380D01*
%TO.C,RV_return_gain1*%
X176102380Y-97809523D02*
X175626190Y-97476190D01*
X176102380Y-97238095D02*
X175102380Y-97238095D01*
X175102380Y-97619047D01*
X175150000Y-97714285D01*
X175197619Y-97761904D01*
X175292857Y-97809523D01*
X175435714Y-97809523D01*
X175530952Y-97761904D01*
X175578571Y-97714285D01*
X175626190Y-97619047D01*
X175626190Y-97238095D01*
X175102380Y-98095238D02*
X176102380Y-98428571D01*
X175102380Y-98761904D01*
X176197619Y-98857142D02*
X176197619Y-99619047D01*
X176102380Y-99857142D02*
X175435714Y-99857142D01*
X175626190Y-99857142D02*
X175530952Y-99904761D01*
X175483333Y-99952380D01*
X175435714Y-100047619D01*
X175435714Y-100142857D01*
X176054761Y-100857142D02*
X176102380Y-100761904D01*
X176102380Y-100571428D01*
X176054761Y-100476190D01*
X175959523Y-100428571D01*
X175578571Y-100428571D01*
X175483333Y-100476190D01*
X175435714Y-100571428D01*
X175435714Y-100761904D01*
X175483333Y-100857142D01*
X175578571Y-100904761D01*
X175673809Y-100904761D01*
X175769047Y-100428571D01*
X175435714Y-101190476D02*
X175435714Y-101571428D01*
X175102380Y-101333333D02*
X175959523Y-101333333D01*
X176054761Y-101380952D01*
X176102380Y-101476190D01*
X176102380Y-101571428D01*
X175435714Y-102333333D02*
X176102380Y-102333333D01*
X175435714Y-101904761D02*
X175959523Y-101904761D01*
X176054761Y-101952380D01*
X176102380Y-102047619D01*
X176102380Y-102190476D01*
X176054761Y-102285714D01*
X176007142Y-102333333D01*
X176102380Y-102809523D02*
X175435714Y-102809523D01*
X175626190Y-102809523D02*
X175530952Y-102857142D01*
X175483333Y-102904761D01*
X175435714Y-103000000D01*
X175435714Y-103095238D01*
X175435714Y-103428571D02*
X176102380Y-103428571D01*
X175530952Y-103428571D02*
X175483333Y-103476190D01*
X175435714Y-103571428D01*
X175435714Y-103714285D01*
X175483333Y-103809523D01*
X175578571Y-103857142D01*
X176102380Y-103857142D01*
X176197619Y-104095238D02*
X176197619Y-104857142D01*
X175435714Y-105523809D02*
X176245238Y-105523809D01*
X176340476Y-105476190D01*
X176388095Y-105428571D01*
X176435714Y-105333333D01*
X176435714Y-105190476D01*
X176388095Y-105095238D01*
X176054761Y-105523809D02*
X176102380Y-105428571D01*
X176102380Y-105238095D01*
X176054761Y-105142857D01*
X176007142Y-105095238D01*
X175911904Y-105047619D01*
X175626190Y-105047619D01*
X175530952Y-105095238D01*
X175483333Y-105142857D01*
X175435714Y-105238095D01*
X175435714Y-105428571D01*
X175483333Y-105523809D01*
X176102380Y-106428571D02*
X175578571Y-106428571D01*
X175483333Y-106380952D01*
X175435714Y-106285714D01*
X175435714Y-106095238D01*
X175483333Y-106000000D01*
X176054761Y-106428571D02*
X176102380Y-106333333D01*
X176102380Y-106095238D01*
X176054761Y-106000000D01*
X175959523Y-105952380D01*
X175864285Y-105952380D01*
X175769047Y-106000000D01*
X175721428Y-106095238D01*
X175721428Y-106333333D01*
X175673809Y-106428571D01*
X176102380Y-106904761D02*
X175435714Y-106904761D01*
X175102380Y-106904761D02*
X175150000Y-106857142D01*
X175197619Y-106904761D01*
X175150000Y-106952380D01*
X175102380Y-106904761D01*
X175197619Y-106904761D01*
X175435714Y-107380952D02*
X176102380Y-107380952D01*
X175530952Y-107380952D02*
X175483333Y-107428571D01*
X175435714Y-107523809D01*
X175435714Y-107666666D01*
X175483333Y-107761904D01*
X175578571Y-107809523D01*
X176102380Y-107809523D01*
X176102380Y-108809523D02*
X176102380Y-108238095D01*
X176102380Y-108523809D02*
X175102380Y-108523809D01*
X175245238Y-108428571D01*
X175340476Y-108333333D01*
X175388095Y-108238095D01*
X172595238Y-95452380D02*
X173166666Y-95452380D01*
X172880952Y-95452380D02*
X172880952Y-94452380D01*
X172976190Y-94595238D01*
X173071428Y-94690476D01*
X173166666Y-94738095D01*
X171976190Y-94452380D02*
X171880952Y-94452380D01*
X171785714Y-94500000D01*
X171738095Y-94547619D01*
X171690476Y-94642857D01*
X171642857Y-94833333D01*
X171642857Y-95071428D01*
X171690476Y-95261904D01*
X171738095Y-95357142D01*
X171785714Y-95404761D01*
X171880952Y-95452380D01*
X171976190Y-95452380D01*
X172071428Y-95404761D01*
X172119047Y-95357142D01*
X172166666Y-95261904D01*
X172214285Y-95071428D01*
X172214285Y-94833333D01*
X172166666Y-94642857D01*
X172119047Y-94547619D01*
X172071428Y-94500000D01*
X171976190Y-94452380D01*
X171214285Y-95452380D02*
X171214285Y-94452380D01*
X171119047Y-95071428D02*
X170833333Y-95452380D01*
X170833333Y-94785714D02*
X171214285Y-95166666D01*
D11*
%TO.C,RV_dry/wet1*%
X162980000Y-45866000D02*
X162980000Y-41930000D01*
X173021000Y-41930000D02*
X162980000Y-41930000D01*
X164630000Y-54170000D02*
X162980000Y-54170000D01*
X173021000Y-45866000D02*
X173021000Y-41930000D01*
X162980000Y-54170000D02*
X162980000Y-50233000D01*
X173021000Y-54170000D02*
X171700000Y-54170000D01*
X169250000Y-54170000D02*
X168870000Y-54170000D01*
X173021000Y-54170000D02*
X173021000Y-50233000D01*
X167129000Y-54170000D02*
X166370000Y-54170000D01*
%TO.C,RV_send_gain1*%
X167129000Y-81170000D02*
X166370000Y-81170000D01*
X162980000Y-81170000D02*
X162980000Y-77233000D01*
X173021000Y-81170000D02*
X171700000Y-81170000D01*
X169250000Y-81170000D02*
X168870000Y-81170000D01*
X162980000Y-72866000D02*
X162980000Y-68930000D01*
X173021000Y-68930000D02*
X162980000Y-68930000D01*
X173021000Y-72866000D02*
X173021000Y-68930000D01*
X164630000Y-81170000D02*
X162980000Y-81170000D01*
X173021000Y-81170000D02*
X173021000Y-77233000D01*
%TO.C,J3*%
X166500000Y-128800000D02*
X166500000Y-118300000D01*
X170280000Y-128800000D02*
X166500000Y-128800000D01*
X170200000Y-118300000D02*
X166500000Y-118300000D01*
X175500000Y-128800000D02*
X175500000Y-118300000D01*
X175500000Y-118300000D02*
X171800000Y-118300000D01*
X169770000Y-131950000D02*
X169770000Y-131150000D01*
X175500000Y-128800000D02*
X171720000Y-128800000D01*
X169770000Y-131950000D02*
X170630000Y-131950000D01*
X172800000Y-124300000D02*
G75*
G03*
X172800000Y-124300000I-1800000J0D01*
G01*
%TO.C,J6*%
X175500000Y-144800000D02*
X175500000Y-134300000D01*
X175500000Y-134300000D02*
X171800000Y-134300000D01*
X170200000Y-134300000D02*
X166500000Y-134300000D01*
X175500000Y-144800000D02*
X171720000Y-144800000D01*
X170280000Y-144800000D02*
X166500000Y-144800000D01*
X166500000Y-144800000D02*
X166500000Y-134300000D01*
X169770000Y-147950000D02*
X170630000Y-147950000D01*
X169770000Y-147950000D02*
X169770000Y-147150000D01*
X172800000Y-140300000D02*
G75*
G03*
X172800000Y-140300000I-1800000J0D01*
G01*
%TO.C,RV_return_gain1*%
X173021000Y-99866000D02*
X173021000Y-95930000D01*
X173021000Y-95930000D02*
X162980000Y-95930000D01*
X164630000Y-108170000D02*
X162980000Y-108170000D01*
X173021000Y-108170000D02*
X173021000Y-104233000D01*
X162980000Y-99866000D02*
X162980000Y-95930000D01*
X169250000Y-108170000D02*
X168870000Y-108170000D01*
X173021000Y-108170000D02*
X171700000Y-108170000D01*
X167129000Y-108170000D02*
X166370000Y-108170000D01*
X162980000Y-108170000D02*
X162980000Y-104233000D01*
%TD*%
M02*
