M48
; DRILL file {KiCad (6.0.4-0)} date Tuesday, December 20, 2022 at 09:13:09 AM
; FORMAT={-:-/ absolute / metric / decimal}
; #@! TF.CreationDate,2022-12-20T09:13:09-08:00
; #@! TF.GenerationSoftware,Kicad,Pcbnew,(6.0.4-0)
; #@! TF.FileFunction,Plated,1,2,PTH
FMAT,2
METRIC
; #@! TA.AperFunction,Plated,PTH,ViaDrill
T1C0.400
; #@! TA.AperFunction,Plated,PTH,ComponentDrill
T2C0.800
; #@! TA.AperFunction,Plated,PTH,ComponentDrill
T3C0.900
; #@! TA.AperFunction,Plated,PTH,ComponentDrill
T4C1.000
; #@! TA.AperFunction,Plated,PTH,ComponentDrill
T5C1.220
; #@! TA.AperFunction,Plated,PTH,ComponentDrill
T6C1.420
; #@! TA.AperFunction,Plated,PTH,ComponentDrill
T7C1.430
; #@! TA.AperFunction,Plated,PTH,ComponentDrill
T8C1.800
%
G90
G05
T1
X163.0Y-127.0
X168.0Y-100.0
T2
X145.685Y-73.0
X146.0Y-81.5
X146.0Y-84.0
X147.2Y-92.375
X147.2Y-94.915
X147.2Y-97.455
X147.2Y-99.995
X147.2Y-102.535
X147.2Y-105.075
X147.2Y-107.615
X147.685Y-119.0
X150.765Y-73.0
X152.765Y-119.0
X153.235Y-132.0
X154.82Y-92.375
X154.82Y-94.915
X154.82Y-97.455
X154.82Y-99.995
X154.82Y-102.535
X154.82Y-105.075
X154.82Y-107.615
X158.315Y-132.0
X160.685Y-91.0
X165.235Y-61.0
X165.685Y-87.0
X165.685Y-114.0
X165.765Y-91.0
X170.315Y-61.0
X170.765Y-87.0
X170.765Y-114.0
T3
X151.19Y-127.0
X151.19Y-137.0
X158.81Y-127.0
X158.81Y-137.0
T4
X144.0Y-44.0
X144.0Y-100.0
X144.0Y-107.5
X144.0Y-127.0
X144.0Y-129.54
X144.0Y-132.08
X144.0Y-134.62
X144.0Y-137.16
X144.0Y-146.0
X146.54Y-44.0
X146.54Y-127.0
X146.54Y-129.54
X146.54Y-132.08
X146.54Y-134.62
X146.54Y-137.16
X146.54Y-146.0
X158.0Y-100.0
X158.0Y-107.5
X165.5Y-55.05
X165.5Y-82.05
X165.5Y-109.05
X168.0Y-55.05
X168.0Y-82.05
X168.0Y-109.05
X170.5Y-55.05
X170.5Y-82.05
X170.5Y-109.05
T5
X171.0Y-130.78
X171.0Y-146.78
T6
X171.0Y-127.68
X171.0Y-143.68
T7
X171.0Y-119.38
X171.0Y-135.38
T8
G00X163.6Y-48.2
M15
G01X163.6Y-47.9
M16
G05
G00X163.6Y-75.2
M15
G01X163.6Y-74.9
M16
G05
G00X163.6Y-102.2
M15
G01X163.6Y-101.9
M16
G05
G00X172.4Y-48.2
M15
G01X172.4Y-47.9
M16
G05
G00X172.4Y-75.2
M15
G01X172.4Y-74.9
M16
G05
G00X172.4Y-102.2
M15
G01X172.4Y-101.9
M16
G05
T0
M30
