%TF.GenerationSoftware,KiCad,Pcbnew,(6.0.4-0)*%
%TF.CreationDate,2022-12-20T09:13:06-08:00*%
%TF.ProjectId,reverb_v2,72657665-7262-45f7-9632-2e6b69636164,rev?*%
%TF.SameCoordinates,Original*%
%TF.FileFunction,Soldermask,Top*%
%TF.FilePolarity,Negative*%
%FSLAX46Y46*%
G04 Gerber Fmt 4.6, Leading zero omitted, Abs format (unit mm)*
G04 Created by KiCad (PCBNEW (6.0.4-0)) date 2022-12-20 09:13:06*
%MOMM*%
%LPD*%
G01*
G04 APERTURE LIST*
G04 Aperture macros list*
%AMRoundRect*
0 Rectangle with rounded corners*
0 $1 Rounding radius*
0 $2 $3 $4 $5 $6 $7 $8 $9 X,Y pos of 4 corners*
0 Add a 4 corners polygon primitive as box body*
4,1,4,$2,$3,$4,$5,$6,$7,$8,$9,$2,$3,0*
0 Add four circle primitives for the rounded corners*
1,1,$1+$1,$2,$3*
1,1,$1+$1,$4,$5*
1,1,$1+$1,$6,$7*
1,1,$1+$1,$8,$9*
0 Add four rect primitives between the rounded corners*
20,1,$1+$1,$2,$3,$4,$5,0*
20,1,$1+$1,$4,$5,$6,$7,0*
20,1,$1+$1,$6,$7,$8,$9,0*
20,1,$1+$1,$8,$9,$2,$3,0*%
G04 Aperture macros list end*
%ADD10C,1.600000*%
%ADD11O,1.600000X1.600000*%
%ADD12C,2.000000*%
%ADD13R,1.600000X1.600000*%
%ADD14R,1.700000X1.700000*%
%ADD15O,1.700000X1.700000*%
%ADD16R,1.800000X1.800000*%
%ADD17O,1.800000X1.800000*%
%ADD18C,1.800000*%
%ADD19RoundRect,0.750000X0.750000X-1.250000X0.750000X1.250000X-0.750000X1.250000X-0.750000X-1.250000X0*%
%ADD20R,1.930000X1.830000*%
%ADD21C,2.130000*%
G04 APERTURE END LIST*
D10*
%TO.C,R6*%
X165685000Y-87000000D03*
D11*
X170765000Y-87000000D03*
%TD*%
D10*
%TO.C,R2*%
X160685000Y-91000000D03*
D11*
X165765000Y-91000000D03*
%TD*%
D10*
%TO.C,R1*%
X158315000Y-132000000D03*
D11*
X153235000Y-132000000D03*
%TD*%
D12*
%TO.C,C3*%
X158000000Y-100000000D03*
X158000000Y-107500000D03*
%TD*%
D13*
%TO.C,U1*%
X147200000Y-92375000D03*
D11*
X147200000Y-94915000D03*
X147200000Y-97455000D03*
X147200000Y-99995000D03*
X147200000Y-102535000D03*
X147200000Y-105075000D03*
X147200000Y-107615000D03*
X154820000Y-107615000D03*
X154820000Y-105075000D03*
X154820000Y-102535000D03*
X154820000Y-99995000D03*
X154820000Y-97455000D03*
X154820000Y-94915000D03*
X154820000Y-92375000D03*
%TD*%
D14*
%TO.C,J5*%
X144000000Y-127000000D03*
D15*
X146540000Y-127000000D03*
X144000000Y-129540000D03*
X146540000Y-129540000D03*
X144000000Y-132080000D03*
X146540000Y-132080000D03*
X144000000Y-134620000D03*
X146540000Y-134620000D03*
X144000000Y-137160000D03*
X146540000Y-137160000D03*
%TD*%
D10*
%TO.C,R5*%
X170315000Y-61000000D03*
D11*
X165235000Y-61000000D03*
%TD*%
D10*
%TO.C,R4*%
X147685000Y-119000000D03*
D11*
X152765000Y-119000000D03*
%TD*%
D14*
%TO.C,J1*%
X144000000Y-146000000D03*
D15*
X146540000Y-146000000D03*
%TD*%
D16*
%TO.C,D1*%
X151190000Y-137000000D03*
D17*
X158810000Y-137000000D03*
%TD*%
D13*
%TO.C,C1*%
X146000000Y-84000000D03*
D10*
X146000000Y-81500000D03*
%TD*%
%TO.C,R3*%
X165685000Y-114000000D03*
D11*
X170765000Y-114000000D03*
%TD*%
D14*
%TO.C,J4*%
X144000000Y-44000000D03*
D15*
X146540000Y-44000000D03*
%TD*%
D16*
%TO.C,D2*%
X158810000Y-127000000D03*
D17*
X151190000Y-127000000D03*
%TD*%
D10*
%TO.C,R_filter1*%
X145685000Y-73000000D03*
D11*
X150765000Y-73000000D03*
%TD*%
D12*
%TO.C,C2*%
X144000000Y-100000000D03*
X144000000Y-107500000D03*
%TD*%
D16*
%TO.C,RV_dry/wet1*%
X170500000Y-55050000D03*
D18*
X168000000Y-55050000D03*
X165500000Y-55050000D03*
D19*
X163600000Y-48050000D03*
X172400000Y-48050000D03*
%TD*%
D16*
%TO.C,RV_send_gain1*%
X170500000Y-82050000D03*
D18*
X168000000Y-82050000D03*
X165500000Y-82050000D03*
D19*
X163600000Y-75050000D03*
X172400000Y-75050000D03*
%TD*%
D20*
%TO.C,J3*%
X171000000Y-130780000D03*
D21*
X171000000Y-119380000D03*
X171000000Y-127680000D03*
%TD*%
D20*
%TO.C,J6*%
X171000000Y-146780000D03*
D21*
X171000000Y-135380000D03*
X171000000Y-143680000D03*
%TD*%
D16*
%TO.C,RV_return_gain1*%
X170500000Y-109050000D03*
D18*
X168000000Y-109050000D03*
X165500000Y-109050000D03*
D19*
X163600000Y-102050000D03*
X172400000Y-102050000D03*
%TD*%
M02*
