%TF.GenerationSoftware,KiCad,Pcbnew,(6.0.4-0)*%
%TF.CreationDate,2022-12-21T08:50:29-08:00*%
%TF.ProjectId,contact,636f6e74-6163-4742-9e6b-696361645f70,rev?*%
%TF.SameCoordinates,Original*%
%TF.FileFunction,Soldermask,Top*%
%TF.FilePolarity,Negative*%
%FSLAX46Y46*%
G04 Gerber Fmt 4.6, Leading zero omitted, Abs format (unit mm)*
G04 Created by KiCad (PCBNEW (6.0.4-0)) date 2022-12-21 08:50:29*
%MOMM*%
%LPD*%
G01*
G04 APERTURE LIST*
G04 Aperture macros list*
%AMRoundRect*
0 Rectangle with rounded corners*
0 $1 Rounding radius*
0 $2 $3 $4 $5 $6 $7 $8 $9 X,Y pos of 4 corners*
0 Add a 4 corners polygon primitive as box body*
4,1,4,$2,$3,$4,$5,$6,$7,$8,$9,$2,$3,0*
0 Add four circle primitives for the rounded corners*
1,1,$1+$1,$2,$3*
1,1,$1+$1,$4,$5*
1,1,$1+$1,$6,$7*
1,1,$1+$1,$8,$9*
0 Add four rect primitives between the rounded corners*
20,1,$1+$1,$2,$3,$4,$5,0*
20,1,$1+$1,$4,$5,$6,$7,0*
20,1,$1+$1,$6,$7,$8,$9,0*
20,1,$1+$1,$8,$9,$2,$3,0*%
G04 Aperture macros list end*
%ADD10R,1.800000X1.800000*%
%ADD11C,1.800000*%
%ADD12RoundRect,0.500000X1.000000X-0.500000X1.000000X0.500000X-1.000000X0.500000X-1.000000X-0.500000X0*%
%ADD13R,1.830000X1.930000*%
%ADD14C,2.130000*%
%ADD15C,2.000000*%
%ADD16O,1.800000X1.800000*%
%ADD17C,1.400000*%
%ADD18O,1.400000X1.400000*%
%ADD19R,1.600000X1.600000*%
%ADD20O,1.600000X1.600000*%
%ADD21R,1.200000X1.200000*%
%ADD22C,1.200000*%
%ADD23R,1.700000X1.700000*%
%ADD24O,1.700000X1.700000*%
G04 APERTURE END LIST*
D10*
%TO.C,R7*%
X174030000Y-51725000D03*
D11*
X176530000Y-51725000D03*
X179030000Y-51725000D03*
D12*
X181280000Y-44225000D03*
X171780000Y-44225000D03*
%TD*%
D13*
%TO.C,J1*%
X151020000Y-101600000D03*
D14*
X162420000Y-101600000D03*
X154120000Y-101600000D03*
%TD*%
%TO.C,J5*%
X180280000Y-114500000D03*
X171980000Y-114500000D03*
D13*
X183380000Y-114500000D03*
%TD*%
D10*
%TO.C,R8*%
X174030000Y-71725000D03*
D11*
X176530000Y-71725000D03*
X179030000Y-71725000D03*
D12*
X181280000Y-64225000D03*
X171780000Y-64225000D03*
%TD*%
D14*
%TO.C,J6*%
X180280000Y-127800000D03*
X171980000Y-127800000D03*
D13*
X183380000Y-127800000D03*
%TD*%
%TO.C,J4*%
X183440000Y-101600000D03*
D14*
X172040000Y-101600000D03*
X180340000Y-101600000D03*
%TD*%
%TO.C,J2*%
X154120000Y-114500000D03*
X162420000Y-114500000D03*
D13*
X151020000Y-114500000D03*
%TD*%
D10*
%TO.C,R9*%
X174030000Y-91725000D03*
D11*
X176530000Y-91725000D03*
X179030000Y-91725000D03*
D12*
X171780000Y-84225000D03*
X181280000Y-84225000D03*
%TD*%
D13*
%TO.C,J3*%
X151220000Y-127800000D03*
D14*
X162620000Y-127800000D03*
X154320000Y-127800000D03*
%TD*%
D13*
%TO.C,J8*%
X183380000Y-141000000D03*
D14*
X171980000Y-141000000D03*
X180280000Y-141000000D03*
%TD*%
D15*
%TO.C,C5*%
X165100000Y-73720000D03*
X165100000Y-81220000D03*
%TD*%
D10*
%TO.C,D1*%
X149225000Y-107800000D03*
D16*
X156845000Y-107800000D03*
%TD*%
D17*
%TO.C,R1*%
X165100000Y-99700000D03*
D18*
X165100000Y-101600000D03*
%TD*%
D17*
%TO.C,R10*%
X173985000Y-94615000D03*
D18*
X172085000Y-94615000D03*
%TD*%
D17*
%TO.C,R4*%
X162000000Y-57000000D03*
D18*
X163900000Y-57000000D03*
%TD*%
D19*
%TO.C,U1*%
X154305000Y-81280000D03*
D20*
X154305000Y-78740000D03*
X154305000Y-76200000D03*
X154305000Y-73660000D03*
X154305000Y-71120000D03*
X154305000Y-68580000D03*
X154305000Y-66040000D03*
X161925000Y-66040000D03*
X161925000Y-68580000D03*
X161925000Y-71120000D03*
X161925000Y-73660000D03*
X161925000Y-76200000D03*
X161925000Y-78740000D03*
X161925000Y-81280000D03*
%TD*%
D17*
%TO.C,R5*%
X173995000Y-75100000D03*
D18*
X175895000Y-75100000D03*
%TD*%
D17*
%TO.C,R11*%
X173905000Y-107700000D03*
D18*
X172005000Y-107700000D03*
%TD*%
D15*
%TO.C,C4*%
X150495000Y-73720000D03*
X150495000Y-81220000D03*
%TD*%
D10*
%TO.C,D5*%
X149225000Y-134500000D03*
D16*
X156845000Y-134500000D03*
%TD*%
D21*
%TO.C,C2*%
X185022600Y-107700000D03*
D22*
X183522600Y-107700000D03*
%TD*%
D17*
%TO.C,R17*%
X173985000Y-134400000D03*
D18*
X172085000Y-134400000D03*
%TD*%
D10*
%TO.C,D2*%
X160020000Y-107800000D03*
D16*
X167640000Y-107800000D03*
%TD*%
D10*
%TO.C,D6*%
X160020000Y-134500000D03*
D16*
X167640000Y-134500000D03*
%TD*%
D21*
%TO.C,C6*%
X184922600Y-134500000D03*
D22*
X183422600Y-134500000D03*
%TD*%
D17*
%TO.C,R6*%
X168100000Y-91505000D03*
D18*
X168100000Y-89605000D03*
%TD*%
D21*
%TO.C,C1*%
X185122600Y-94600000D03*
D22*
X183622600Y-94600000D03*
%TD*%
D21*
%TO.C,C3*%
X184922600Y-120700000D03*
D22*
X183422600Y-120700000D03*
%TD*%
D23*
%TO.C,J7*%
X152925000Y-140125000D03*
D24*
X152925000Y-142665000D03*
X155465000Y-140125000D03*
X155465000Y-142665000D03*
X158005000Y-140125000D03*
X158005000Y-142665000D03*
X160545000Y-140125000D03*
X160545000Y-142665000D03*
X163085000Y-140125000D03*
X163085000Y-142665000D03*
%TD*%
D17*
%TO.C,R16*%
X160025000Y-84455000D03*
D18*
X161925000Y-84455000D03*
%TD*%
D17*
%TO.C,R2*%
X165100000Y-112495000D03*
D18*
X165100000Y-114395000D03*
%TD*%
D17*
%TO.C,R12*%
X173705000Y-120800000D03*
D18*
X171805000Y-120800000D03*
%TD*%
D10*
%TO.C,D3*%
X149290000Y-121100000D03*
D16*
X156910000Y-121100000D03*
%TD*%
D10*
%TO.C,D4*%
X160020000Y-121100000D03*
D16*
X167640000Y-121100000D03*
%TD*%
D17*
%TO.C,R3*%
X165100000Y-126595000D03*
D18*
X165100000Y-128495000D03*
%TD*%
M02*
