%TF.GenerationSoftware,KiCad,Pcbnew,(6.0.4-0)*%
%TF.CreationDate,2022-12-21T08:50:29-08:00*%
%TF.ProjectId,contact,636f6e74-6163-4742-9e6b-696361645f70,rev?*%
%TF.SameCoordinates,Original*%
%TF.FileFunction,Legend,Bot*%
%TF.FilePolarity,Positive*%
%FSLAX46Y46*%
G04 Gerber Fmt 4.6, Leading zero omitted, Abs format (unit mm)*
G04 Created by KiCad (PCBNEW (6.0.4-0)) date 2022-12-21 08:50:29*
%MOMM*%
%LPD*%
G01*
G04 APERTURE LIST*
%ADD10C,0.150000*%
%ADD11C,0.120000*%
G04 APERTURE END LIST*
D10*
%TO.C,C5*%
X165457142Y-77303333D02*
X165504761Y-77255714D01*
X165552380Y-77112857D01*
X165552380Y-77017619D01*
X165504761Y-76874761D01*
X165409523Y-76779523D01*
X165314285Y-76731904D01*
X165123809Y-76684285D01*
X164980952Y-76684285D01*
X164790476Y-76731904D01*
X164695238Y-76779523D01*
X164600000Y-76874761D01*
X164552380Y-77017619D01*
X164552380Y-77112857D01*
X164600000Y-77255714D01*
X164647619Y-77303333D01*
X164552380Y-78208095D02*
X164552380Y-77731904D01*
X165028571Y-77684285D01*
X164980952Y-77731904D01*
X164933333Y-77827142D01*
X164933333Y-78065238D01*
X164980952Y-78160476D01*
X165028571Y-78208095D01*
X165123809Y-78255714D01*
X165361904Y-78255714D01*
X165457142Y-78208095D01*
X165504761Y-78160476D01*
X165552380Y-78065238D01*
X165552380Y-77827142D01*
X165504761Y-77731904D01*
X165457142Y-77684285D01*
%TO.C,D1*%
X153773095Y-108252380D02*
X153773095Y-107252380D01*
X153535000Y-107252380D01*
X153392142Y-107300000D01*
X153296904Y-107395238D01*
X153249285Y-107490476D01*
X153201666Y-107680952D01*
X153201666Y-107823809D01*
X153249285Y-108014285D01*
X153296904Y-108109523D01*
X153392142Y-108204761D01*
X153535000Y-108252380D01*
X153773095Y-108252380D01*
X152249285Y-108252380D02*
X152820714Y-108252380D01*
X152535000Y-108252380D02*
X152535000Y-107252380D01*
X152630238Y-107395238D01*
X152725476Y-107490476D01*
X152820714Y-107538095D01*
X149486904Y-110152380D02*
X149486904Y-109152380D01*
X148915476Y-110152380D02*
X149344047Y-109580952D01*
X148915476Y-109152380D02*
X149486904Y-109723809D01*
%TO.C,R1*%
X165366666Y-98152380D02*
X165700000Y-97676190D01*
X165938095Y-98152380D02*
X165938095Y-97152380D01*
X165557142Y-97152380D01*
X165461904Y-97200000D01*
X165414285Y-97247619D01*
X165366666Y-97342857D01*
X165366666Y-97485714D01*
X165414285Y-97580952D01*
X165461904Y-97628571D01*
X165557142Y-97676190D01*
X165938095Y-97676190D01*
X164414285Y-98152380D02*
X164985714Y-98152380D01*
X164700000Y-98152380D02*
X164700000Y-97152380D01*
X164795238Y-97295238D01*
X164890476Y-97390476D01*
X164985714Y-97438095D01*
%TO.C,R10*%
X177172857Y-95067380D02*
X177506190Y-94591190D01*
X177744285Y-95067380D02*
X177744285Y-94067380D01*
X177363333Y-94067380D01*
X177268095Y-94115000D01*
X177220476Y-94162619D01*
X177172857Y-94257857D01*
X177172857Y-94400714D01*
X177220476Y-94495952D01*
X177268095Y-94543571D01*
X177363333Y-94591190D01*
X177744285Y-94591190D01*
X176220476Y-95067380D02*
X176791904Y-95067380D01*
X176506190Y-95067380D02*
X176506190Y-94067380D01*
X176601428Y-94210238D01*
X176696666Y-94305476D01*
X176791904Y-94353095D01*
X175601428Y-94067380D02*
X175506190Y-94067380D01*
X175410952Y-94115000D01*
X175363333Y-94162619D01*
X175315714Y-94257857D01*
X175268095Y-94448333D01*
X175268095Y-94686428D01*
X175315714Y-94876904D01*
X175363333Y-94972142D01*
X175410952Y-95019761D01*
X175506190Y-95067380D01*
X175601428Y-95067380D01*
X175696666Y-95019761D01*
X175744285Y-94972142D01*
X175791904Y-94876904D01*
X175839523Y-94686428D01*
X175839523Y-94448333D01*
X175791904Y-94257857D01*
X175744285Y-94162619D01*
X175696666Y-94115000D01*
X175601428Y-94067380D01*
%TO.C,R4*%
X163116666Y-59372380D02*
X163450000Y-58896190D01*
X163688095Y-59372380D02*
X163688095Y-58372380D01*
X163307142Y-58372380D01*
X163211904Y-58420000D01*
X163164285Y-58467619D01*
X163116666Y-58562857D01*
X163116666Y-58705714D01*
X163164285Y-58800952D01*
X163211904Y-58848571D01*
X163307142Y-58896190D01*
X163688095Y-58896190D01*
X162259523Y-58705714D02*
X162259523Y-59372380D01*
X162497619Y-58324761D02*
X162735714Y-59039047D01*
X162116666Y-59039047D01*
%TO.C,U1*%
X158876904Y-73167380D02*
X158876904Y-73976904D01*
X158829285Y-74072142D01*
X158781666Y-74119761D01*
X158686428Y-74167380D01*
X158495952Y-74167380D01*
X158400714Y-74119761D01*
X158353095Y-74072142D01*
X158305476Y-73976904D01*
X158305476Y-73167380D01*
X157305476Y-74167380D02*
X157876904Y-74167380D01*
X157591190Y-74167380D02*
X157591190Y-73167380D01*
X157686428Y-73310238D01*
X157781666Y-73405476D01*
X157876904Y-73453095D01*
%TO.C,R5*%
X174791666Y-77457380D02*
X175125000Y-76981190D01*
X175363095Y-77457380D02*
X175363095Y-76457380D01*
X174982142Y-76457380D01*
X174886904Y-76505000D01*
X174839285Y-76552619D01*
X174791666Y-76647857D01*
X174791666Y-76790714D01*
X174839285Y-76885952D01*
X174886904Y-76933571D01*
X174982142Y-76981190D01*
X175363095Y-76981190D01*
X173886904Y-76457380D02*
X174363095Y-76457380D01*
X174410714Y-76933571D01*
X174363095Y-76885952D01*
X174267857Y-76838333D01*
X174029761Y-76838333D01*
X173934523Y-76885952D01*
X173886904Y-76933571D01*
X173839285Y-77028809D01*
X173839285Y-77266904D01*
X173886904Y-77362142D01*
X173934523Y-77409761D01*
X174029761Y-77457380D01*
X174267857Y-77457380D01*
X174363095Y-77409761D01*
X174410714Y-77362142D01*
%TO.C,R11*%
X173597857Y-106232380D02*
X173931190Y-105756190D01*
X174169285Y-106232380D02*
X174169285Y-105232380D01*
X173788333Y-105232380D01*
X173693095Y-105280000D01*
X173645476Y-105327619D01*
X173597857Y-105422857D01*
X173597857Y-105565714D01*
X173645476Y-105660952D01*
X173693095Y-105708571D01*
X173788333Y-105756190D01*
X174169285Y-105756190D01*
X172645476Y-106232380D02*
X173216904Y-106232380D01*
X172931190Y-106232380D02*
X172931190Y-105232380D01*
X173026428Y-105375238D01*
X173121666Y-105470476D01*
X173216904Y-105518095D01*
X171693095Y-106232380D02*
X172264523Y-106232380D01*
X171978809Y-106232380D02*
X171978809Y-105232380D01*
X172074047Y-105375238D01*
X172169285Y-105470476D01*
X172264523Y-105518095D01*
%TO.C,C4*%
X150852142Y-77303333D02*
X150899761Y-77255714D01*
X150947380Y-77112857D01*
X150947380Y-77017619D01*
X150899761Y-76874761D01*
X150804523Y-76779523D01*
X150709285Y-76731904D01*
X150518809Y-76684285D01*
X150375952Y-76684285D01*
X150185476Y-76731904D01*
X150090238Y-76779523D01*
X149995000Y-76874761D01*
X149947380Y-77017619D01*
X149947380Y-77112857D01*
X149995000Y-77255714D01*
X150042619Y-77303333D01*
X150280714Y-78160476D02*
X150947380Y-78160476D01*
X149899761Y-77922380D02*
X150614047Y-77684285D01*
X150614047Y-78303333D01*
%TO.C,D5*%
X153773095Y-134952380D02*
X153773095Y-133952380D01*
X153535000Y-133952380D01*
X153392142Y-134000000D01*
X153296904Y-134095238D01*
X153249285Y-134190476D01*
X153201666Y-134380952D01*
X153201666Y-134523809D01*
X153249285Y-134714285D01*
X153296904Y-134809523D01*
X153392142Y-134904761D01*
X153535000Y-134952380D01*
X153773095Y-134952380D01*
X152296904Y-133952380D02*
X152773095Y-133952380D01*
X152820714Y-134428571D01*
X152773095Y-134380952D01*
X152677857Y-134333333D01*
X152439761Y-134333333D01*
X152344523Y-134380952D01*
X152296904Y-134428571D01*
X152249285Y-134523809D01*
X152249285Y-134761904D01*
X152296904Y-134857142D01*
X152344523Y-134904761D01*
X152439761Y-134952380D01*
X152677857Y-134952380D01*
X152773095Y-134904761D01*
X152820714Y-134857142D01*
%TO.C,C2*%
X184439266Y-104807142D02*
X184486885Y-104854761D01*
X184629742Y-104902380D01*
X184724980Y-104902380D01*
X184867838Y-104854761D01*
X184963076Y-104759523D01*
X185010695Y-104664285D01*
X185058314Y-104473809D01*
X185058314Y-104330952D01*
X185010695Y-104140476D01*
X184963076Y-104045238D01*
X184867838Y-103950000D01*
X184724980Y-103902380D01*
X184629742Y-103902380D01*
X184486885Y-103950000D01*
X184439266Y-103997619D01*
X184058314Y-103997619D02*
X184010695Y-103950000D01*
X183915457Y-103902380D01*
X183677361Y-103902380D01*
X183582123Y-103950000D01*
X183534504Y-103997619D01*
X183486885Y-104092857D01*
X183486885Y-104188095D01*
X183534504Y-104330952D01*
X184105933Y-104902380D01*
X183486885Y-104902380D01*
%TO.C,R17*%
X173677857Y-132932380D02*
X174011190Y-132456190D01*
X174249285Y-132932380D02*
X174249285Y-131932380D01*
X173868333Y-131932380D01*
X173773095Y-131980000D01*
X173725476Y-132027619D01*
X173677857Y-132122857D01*
X173677857Y-132265714D01*
X173725476Y-132360952D01*
X173773095Y-132408571D01*
X173868333Y-132456190D01*
X174249285Y-132456190D01*
X172725476Y-132932380D02*
X173296904Y-132932380D01*
X173011190Y-132932380D02*
X173011190Y-131932380D01*
X173106428Y-132075238D01*
X173201666Y-132170476D01*
X173296904Y-132218095D01*
X172392142Y-131932380D02*
X171725476Y-131932380D01*
X172154047Y-132932380D01*
%TO.C,D2*%
X165203095Y-108252380D02*
X165203095Y-107252380D01*
X164965000Y-107252380D01*
X164822142Y-107300000D01*
X164726904Y-107395238D01*
X164679285Y-107490476D01*
X164631666Y-107680952D01*
X164631666Y-107823809D01*
X164679285Y-108014285D01*
X164726904Y-108109523D01*
X164822142Y-108204761D01*
X164965000Y-108252380D01*
X165203095Y-108252380D01*
X164250714Y-107347619D02*
X164203095Y-107300000D01*
X164107857Y-107252380D01*
X163869761Y-107252380D01*
X163774523Y-107300000D01*
X163726904Y-107347619D01*
X163679285Y-107442857D01*
X163679285Y-107538095D01*
X163726904Y-107680952D01*
X164298333Y-108252380D01*
X163679285Y-108252380D01*
X160281904Y-110152380D02*
X160281904Y-109152380D01*
X159710476Y-110152380D02*
X160139047Y-109580952D01*
X159710476Y-109152380D02*
X160281904Y-109723809D01*
%TO.C,D6*%
X164568095Y-134952380D02*
X164568095Y-133952380D01*
X164330000Y-133952380D01*
X164187142Y-134000000D01*
X164091904Y-134095238D01*
X164044285Y-134190476D01*
X163996666Y-134380952D01*
X163996666Y-134523809D01*
X164044285Y-134714285D01*
X164091904Y-134809523D01*
X164187142Y-134904761D01*
X164330000Y-134952380D01*
X164568095Y-134952380D01*
X163139523Y-133952380D02*
X163330000Y-133952380D01*
X163425238Y-134000000D01*
X163472857Y-134047619D01*
X163568095Y-134190476D01*
X163615714Y-134380952D01*
X163615714Y-134761904D01*
X163568095Y-134857142D01*
X163520476Y-134904761D01*
X163425238Y-134952380D01*
X163234761Y-134952380D01*
X163139523Y-134904761D01*
X163091904Y-134857142D01*
X163044285Y-134761904D01*
X163044285Y-134523809D01*
X163091904Y-134428571D01*
X163139523Y-134380952D01*
X163234761Y-134333333D01*
X163425238Y-134333333D01*
X163520476Y-134380952D01*
X163568095Y-134428571D01*
X163615714Y-134523809D01*
%TO.C,C6*%
X183819266Y-131682142D02*
X183866885Y-131729761D01*
X184009742Y-131777380D01*
X184104980Y-131777380D01*
X184247838Y-131729761D01*
X184343076Y-131634523D01*
X184390695Y-131539285D01*
X184438314Y-131348809D01*
X184438314Y-131205952D01*
X184390695Y-131015476D01*
X184343076Y-130920238D01*
X184247838Y-130825000D01*
X184104980Y-130777380D01*
X184009742Y-130777380D01*
X183866885Y-130825000D01*
X183819266Y-130872619D01*
X182962123Y-130777380D02*
X183152600Y-130777380D01*
X183247838Y-130825000D01*
X183295457Y-130872619D01*
X183390695Y-131015476D01*
X183438314Y-131205952D01*
X183438314Y-131586904D01*
X183390695Y-131682142D01*
X183343076Y-131729761D01*
X183247838Y-131777380D01*
X183057361Y-131777380D01*
X182962123Y-131729761D01*
X182914504Y-131682142D01*
X182866885Y-131586904D01*
X182866885Y-131348809D01*
X182914504Y-131253571D01*
X182962123Y-131205952D01*
X183057361Y-131158333D01*
X183247838Y-131158333D01*
X183343076Y-131205952D01*
X183390695Y-131253571D01*
X183438314Y-131348809D01*
%TO.C,R6*%
X166552380Y-91933333D02*
X166076190Y-91600000D01*
X166552380Y-91361904D02*
X165552380Y-91361904D01*
X165552380Y-91742857D01*
X165600000Y-91838095D01*
X165647619Y-91885714D01*
X165742857Y-91933333D01*
X165885714Y-91933333D01*
X165980952Y-91885714D01*
X166028571Y-91838095D01*
X166076190Y-91742857D01*
X166076190Y-91361904D01*
X165552380Y-92790476D02*
X165552380Y-92600000D01*
X165600000Y-92504761D01*
X165647619Y-92457142D01*
X165790476Y-92361904D01*
X165980952Y-92314285D01*
X166361904Y-92314285D01*
X166457142Y-92361904D01*
X166504761Y-92409523D01*
X166552380Y-92504761D01*
X166552380Y-92695238D01*
X166504761Y-92790476D01*
X166457142Y-92838095D01*
X166361904Y-92885714D01*
X166123809Y-92885714D01*
X166028571Y-92838095D01*
X165980952Y-92790476D01*
X165933333Y-92695238D01*
X165933333Y-92504761D01*
X165980952Y-92409523D01*
X166028571Y-92361904D01*
X166123809Y-92314285D01*
%TO.C,C1*%
X184539266Y-91707142D02*
X184586885Y-91754761D01*
X184729742Y-91802380D01*
X184824980Y-91802380D01*
X184967838Y-91754761D01*
X185063076Y-91659523D01*
X185110695Y-91564285D01*
X185158314Y-91373809D01*
X185158314Y-91230952D01*
X185110695Y-91040476D01*
X185063076Y-90945238D01*
X184967838Y-90850000D01*
X184824980Y-90802380D01*
X184729742Y-90802380D01*
X184586885Y-90850000D01*
X184539266Y-90897619D01*
X183586885Y-91802380D02*
X184158314Y-91802380D01*
X183872600Y-91802380D02*
X183872600Y-90802380D01*
X183967838Y-90945238D01*
X184063076Y-91040476D01*
X184158314Y-91088095D01*
%TO.C,C3*%
X184339266Y-117807142D02*
X184386885Y-117854761D01*
X184529742Y-117902380D01*
X184624980Y-117902380D01*
X184767838Y-117854761D01*
X184863076Y-117759523D01*
X184910695Y-117664285D01*
X184958314Y-117473809D01*
X184958314Y-117330952D01*
X184910695Y-117140476D01*
X184863076Y-117045238D01*
X184767838Y-116950000D01*
X184624980Y-116902380D01*
X184529742Y-116902380D01*
X184386885Y-116950000D01*
X184339266Y-116997619D01*
X184005933Y-116902380D02*
X183386885Y-116902380D01*
X183720219Y-117283333D01*
X183577361Y-117283333D01*
X183482123Y-117330952D01*
X183434504Y-117378571D01*
X183386885Y-117473809D01*
X183386885Y-117711904D01*
X183434504Y-117807142D01*
X183482123Y-117854761D01*
X183577361Y-117902380D01*
X183863076Y-117902380D01*
X183958314Y-117854761D01*
X184005933Y-117807142D01*
%TO.C,J7*%
X150083333Y-140847380D02*
X150083333Y-141561666D01*
X150130952Y-141704523D01*
X150226190Y-141799761D01*
X150369047Y-141847380D01*
X150464285Y-141847380D01*
X149702380Y-140847380D02*
X149035714Y-140847380D01*
X149464285Y-141847380D01*
%TO.C,R16*%
X161407857Y-86812380D02*
X161741190Y-86336190D01*
X161979285Y-86812380D02*
X161979285Y-85812380D01*
X161598333Y-85812380D01*
X161503095Y-85860000D01*
X161455476Y-85907619D01*
X161407857Y-86002857D01*
X161407857Y-86145714D01*
X161455476Y-86240952D01*
X161503095Y-86288571D01*
X161598333Y-86336190D01*
X161979285Y-86336190D01*
X160455476Y-86812380D02*
X161026904Y-86812380D01*
X160741190Y-86812380D02*
X160741190Y-85812380D01*
X160836428Y-85955238D01*
X160931666Y-86050476D01*
X161026904Y-86098095D01*
X159598333Y-85812380D02*
X159788809Y-85812380D01*
X159884047Y-85860000D01*
X159931666Y-85907619D01*
X160026904Y-86050476D01*
X160074523Y-86240952D01*
X160074523Y-86621904D01*
X160026904Y-86717142D01*
X159979285Y-86764761D01*
X159884047Y-86812380D01*
X159693571Y-86812380D01*
X159598333Y-86764761D01*
X159550714Y-86717142D01*
X159503095Y-86621904D01*
X159503095Y-86383809D01*
X159550714Y-86288571D01*
X159598333Y-86240952D01*
X159693571Y-86193333D01*
X159884047Y-86193333D01*
X159979285Y-86240952D01*
X160026904Y-86288571D01*
X160074523Y-86383809D01*
%TO.C,R2*%
X165901666Y-111037380D02*
X166235000Y-110561190D01*
X166473095Y-111037380D02*
X166473095Y-110037380D01*
X166092142Y-110037380D01*
X165996904Y-110085000D01*
X165949285Y-110132619D01*
X165901666Y-110227857D01*
X165901666Y-110370714D01*
X165949285Y-110465952D01*
X165996904Y-110513571D01*
X166092142Y-110561190D01*
X166473095Y-110561190D01*
X165520714Y-110132619D02*
X165473095Y-110085000D01*
X165377857Y-110037380D01*
X165139761Y-110037380D01*
X165044523Y-110085000D01*
X164996904Y-110132619D01*
X164949285Y-110227857D01*
X164949285Y-110323095D01*
X164996904Y-110465952D01*
X165568333Y-111037380D01*
X164949285Y-111037380D01*
%TO.C,R12*%
X173397857Y-119332380D02*
X173731190Y-118856190D01*
X173969285Y-119332380D02*
X173969285Y-118332380D01*
X173588333Y-118332380D01*
X173493095Y-118380000D01*
X173445476Y-118427619D01*
X173397857Y-118522857D01*
X173397857Y-118665714D01*
X173445476Y-118760952D01*
X173493095Y-118808571D01*
X173588333Y-118856190D01*
X173969285Y-118856190D01*
X172445476Y-119332380D02*
X173016904Y-119332380D01*
X172731190Y-119332380D02*
X172731190Y-118332380D01*
X172826428Y-118475238D01*
X172921666Y-118570476D01*
X173016904Y-118618095D01*
X172064523Y-118427619D02*
X172016904Y-118380000D01*
X171921666Y-118332380D01*
X171683571Y-118332380D01*
X171588333Y-118380000D01*
X171540714Y-118427619D01*
X171493095Y-118522857D01*
X171493095Y-118618095D01*
X171540714Y-118760952D01*
X172112142Y-119332380D01*
X171493095Y-119332380D01*
%TO.C,D3*%
X153838095Y-121552380D02*
X153838095Y-120552380D01*
X153600000Y-120552380D01*
X153457142Y-120600000D01*
X153361904Y-120695238D01*
X153314285Y-120790476D01*
X153266666Y-120980952D01*
X153266666Y-121123809D01*
X153314285Y-121314285D01*
X153361904Y-121409523D01*
X153457142Y-121504761D01*
X153600000Y-121552380D01*
X153838095Y-121552380D01*
X152933333Y-120552380D02*
X152314285Y-120552380D01*
X152647619Y-120933333D01*
X152504761Y-120933333D01*
X152409523Y-120980952D01*
X152361904Y-121028571D01*
X152314285Y-121123809D01*
X152314285Y-121361904D01*
X152361904Y-121457142D01*
X152409523Y-121504761D01*
X152504761Y-121552380D01*
X152790476Y-121552380D01*
X152885714Y-121504761D01*
X152933333Y-121457142D01*
%TO.C,D4*%
X165203095Y-121552380D02*
X165203095Y-120552380D01*
X164965000Y-120552380D01*
X164822142Y-120600000D01*
X164726904Y-120695238D01*
X164679285Y-120790476D01*
X164631666Y-120980952D01*
X164631666Y-121123809D01*
X164679285Y-121314285D01*
X164726904Y-121409523D01*
X164822142Y-121504761D01*
X164965000Y-121552380D01*
X165203095Y-121552380D01*
X163774523Y-120885714D02*
X163774523Y-121552380D01*
X164012619Y-120504761D02*
X164250714Y-121219047D01*
X163631666Y-121219047D01*
%TO.C,R3*%
X165901666Y-125137380D02*
X166235000Y-124661190D01*
X166473095Y-125137380D02*
X166473095Y-124137380D01*
X166092142Y-124137380D01*
X165996904Y-124185000D01*
X165949285Y-124232619D01*
X165901666Y-124327857D01*
X165901666Y-124470714D01*
X165949285Y-124565952D01*
X165996904Y-124613571D01*
X166092142Y-124661190D01*
X166473095Y-124661190D01*
X165568333Y-124137380D02*
X164949285Y-124137380D01*
X165282619Y-124518333D01*
X165139761Y-124518333D01*
X165044523Y-124565952D01*
X164996904Y-124613571D01*
X164949285Y-124708809D01*
X164949285Y-124946904D01*
X164996904Y-125042142D01*
X165044523Y-125089761D01*
X165139761Y-125137380D01*
X165425476Y-125137380D01*
X165520714Y-125089761D01*
X165568333Y-125042142D01*
D11*
%TO.C,C5*%
X166470000Y-72350000D02*
X166470000Y-82590000D01*
X163730000Y-72350000D02*
X166470000Y-72350000D01*
X163730000Y-72350000D02*
X163730000Y-82590000D01*
X163730000Y-82590000D02*
X166470000Y-82590000D01*
%TO.C,D1*%
X151215000Y-109270000D02*
X151215000Y-106330000D01*
X155755000Y-109270000D02*
X155755000Y-108940000D01*
X150315000Y-109270000D02*
X155755000Y-109270000D01*
X150315000Y-106660000D02*
X150315000Y-106330000D01*
X150315000Y-108940000D02*
X150315000Y-109270000D01*
X150315000Y-106330000D02*
X155755000Y-106330000D01*
X155755000Y-106330000D02*
X155755000Y-106660000D01*
X151335000Y-109270000D02*
X151335000Y-106330000D01*
X151095000Y-109270000D02*
X151095000Y-106330000D01*
%TO.C,R1*%
X165849359Y-100020095D02*
G75*
G03*
X164400000Y-100117133I-749359J320095D01*
G01*
%TO.C,R10*%
X173664905Y-95364359D02*
G75*
G03*
X173567867Y-93915000I320095J749359D01*
G01*
%TO.C,R4*%
X162320095Y-56250641D02*
G75*
G03*
X162417133Y-57700000I-320095J-749359D01*
G01*
%TO.C,U1*%
X155465000Y-64710000D02*
X160765000Y-64710000D01*
X157115000Y-82610000D02*
X155465000Y-82610000D01*
X160765000Y-82610000D02*
X159115000Y-82610000D01*
X160765000Y-64710000D02*
X160765000Y-82610000D01*
X155465000Y-82610000D02*
X155465000Y-64710000D01*
X159115000Y-82610000D02*
G75*
G03*
X157115000Y-82610000I-1000000J0D01*
G01*
%TO.C,R5*%
X174315095Y-74350641D02*
G75*
G03*
X174412133Y-75800000I-320095J-749359D01*
G01*
%TO.C,R11*%
X173584905Y-108449359D02*
G75*
G03*
X173487867Y-107000000I320095J749359D01*
G01*
%TO.C,C4*%
X149125000Y-72350000D02*
X149125000Y-82590000D01*
X151865000Y-72350000D02*
X151865000Y-82590000D01*
X149125000Y-82590000D02*
X151865000Y-82590000D01*
X149125000Y-72350000D02*
X151865000Y-72350000D01*
%TO.C,D5*%
X150315000Y-135640000D02*
X150315000Y-135970000D01*
X150315000Y-133030000D02*
X155755000Y-133030000D01*
X151335000Y-135970000D02*
X151335000Y-133030000D01*
X151095000Y-135970000D02*
X151095000Y-133030000D01*
X155755000Y-135970000D02*
X155755000Y-135640000D01*
X150315000Y-135970000D02*
X155755000Y-135970000D01*
X155755000Y-133030000D02*
X155755000Y-133360000D01*
X150315000Y-133360000D02*
X150315000Y-133030000D01*
X151215000Y-135970000D02*
X151215000Y-133030000D01*
%TO.C,C2*%
X182911600Y-108540000D02*
X182911600Y-109287000D01*
X183111600Y-108540000D02*
X183111600Y-109435000D01*
X183992600Y-105638000D02*
X183992600Y-106860000D01*
X182951600Y-108540000D02*
X182951600Y-109319000D01*
X183151600Y-108540000D02*
X183151600Y-109460000D01*
X182271600Y-107036000D02*
X182271600Y-108364000D01*
X182871600Y-106148000D02*
X182871600Y-106860000D01*
X183792600Y-108540000D02*
X183792600Y-109725000D01*
X182831600Y-106184000D02*
X182831600Y-106860000D01*
X182711600Y-108540000D02*
X182711600Y-109096000D01*
X182351600Y-106841000D02*
X182351600Y-108559000D01*
X183231600Y-105892000D02*
X183231600Y-106860000D01*
X184072600Y-108540000D02*
X184072600Y-109771000D01*
X182951600Y-106081000D02*
X182951600Y-106860000D01*
X182991600Y-108540000D02*
X182991600Y-109350000D01*
X183431600Y-108540000D02*
X183431600Y-109607000D01*
X183431600Y-105793000D02*
X183431600Y-106860000D01*
X184152600Y-105623000D02*
X184152600Y-106860000D01*
X184152600Y-108540000D02*
X184152600Y-109777000D01*
X183952600Y-108540000D02*
X183952600Y-109756000D01*
X182551600Y-106500000D02*
X182551600Y-108900000D01*
X183231600Y-108540000D02*
X183231600Y-109508000D01*
X183832600Y-108540000D02*
X183832600Y-109734000D01*
X184272600Y-105620000D02*
X184272600Y-106860000D01*
X183271600Y-108540000D02*
X183271600Y-109530000D01*
X183752600Y-105684000D02*
X183752600Y-106860000D01*
X182431600Y-106687000D02*
X182431600Y-108713000D01*
X183071600Y-105992000D02*
X183071600Y-106860000D01*
X183551600Y-105746000D02*
X183551600Y-106860000D01*
X182751600Y-108540000D02*
X182751600Y-109138000D01*
X184272600Y-108540000D02*
X184272600Y-109780000D01*
X183471600Y-108540000D02*
X183471600Y-109624000D01*
X183672600Y-105706000D02*
X183672600Y-106860000D01*
X183672600Y-108540000D02*
X183672600Y-109694000D01*
X183592600Y-108540000D02*
X183592600Y-109668000D01*
X183632600Y-108540000D02*
X183632600Y-109682000D01*
X183511600Y-108540000D02*
X183511600Y-109640000D01*
X183872600Y-105658000D02*
X183872600Y-106860000D01*
X183271600Y-105870000D02*
X183271600Y-106860000D01*
X182711600Y-106304000D02*
X182711600Y-106860000D01*
X183191600Y-108540000D02*
X183191600Y-109485000D01*
X183031600Y-106020000D02*
X183031600Y-106860000D01*
X183471600Y-105776000D02*
X183471600Y-106860000D01*
X183151600Y-105940000D02*
X183151600Y-106860000D01*
X183351600Y-105830000D02*
X183351600Y-106860000D01*
X183752600Y-108540000D02*
X183752600Y-109716000D01*
X182671600Y-106349000D02*
X182671600Y-109051000D01*
X183311600Y-105849000D02*
X183311600Y-106860000D01*
X182311600Y-106932000D02*
X182311600Y-108468000D01*
X184192600Y-108540000D02*
X184192600Y-109779000D01*
X184072600Y-105629000D02*
X184072600Y-106860000D01*
X183071600Y-108540000D02*
X183071600Y-109408000D01*
X182871600Y-108540000D02*
X182871600Y-109252000D01*
X183712600Y-105695000D02*
X183712600Y-106860000D01*
X183031600Y-108540000D02*
X183031600Y-109380000D01*
X184032600Y-105633000D02*
X184032600Y-106860000D01*
X182471600Y-106620000D02*
X182471600Y-108780000D01*
X183872600Y-108540000D02*
X183872600Y-109742000D01*
X184192600Y-105621000D02*
X184192600Y-106860000D01*
X183191600Y-105915000D02*
X183191600Y-106860000D01*
X183912600Y-105650000D02*
X183912600Y-106860000D01*
X182511600Y-106558000D02*
X182511600Y-108842000D01*
X182591600Y-106446000D02*
X182591600Y-108954000D01*
X183391600Y-108540000D02*
X183391600Y-109589000D01*
X183311600Y-108540000D02*
X183311600Y-109551000D01*
X186342401Y-106305000D02*
X186342401Y-106705000D01*
X183111600Y-105965000D02*
X183111600Y-106860000D01*
X182991600Y-106050000D02*
X182991600Y-106860000D01*
X183351600Y-108540000D02*
X183351600Y-109570000D01*
X186542401Y-106505000D02*
X186142401Y-106505000D01*
X184232600Y-108540000D02*
X184232600Y-109780000D01*
X182751600Y-106262000D02*
X182751600Y-106860000D01*
X183912600Y-108540000D02*
X183912600Y-109750000D01*
X183952600Y-105644000D02*
X183952600Y-106860000D01*
X183592600Y-105732000D02*
X183592600Y-106860000D01*
X182791600Y-108540000D02*
X182791600Y-109178000D01*
X183992600Y-108540000D02*
X183992600Y-109762000D01*
X182791600Y-106222000D02*
X182791600Y-106860000D01*
X183832600Y-105666000D02*
X183832600Y-106860000D01*
X182391600Y-106760000D02*
X182391600Y-108640000D01*
X184032600Y-108540000D02*
X184032600Y-109767000D01*
X183632600Y-105718000D02*
X183632600Y-106860000D01*
X182231600Y-107163000D02*
X182231600Y-108237000D01*
X182911600Y-106113000D02*
X182911600Y-106860000D01*
X183551600Y-108540000D02*
X183551600Y-109654000D01*
X184232600Y-105620000D02*
X184232600Y-106860000D01*
X184112600Y-108540000D02*
X184112600Y-109774000D01*
X183391600Y-105811000D02*
X183391600Y-106860000D01*
X182831600Y-108540000D02*
X182831600Y-109216000D01*
X182191600Y-107330000D02*
X182191600Y-108070000D01*
X183712600Y-108540000D02*
X183712600Y-109705000D01*
X182631600Y-106396000D02*
X182631600Y-109004000D01*
X183511600Y-105760000D02*
X183511600Y-106860000D01*
X183792600Y-105675000D02*
X183792600Y-106860000D01*
X184112600Y-105626000D02*
X184112600Y-106860000D01*
X186392600Y-107700000D02*
G75*
G03*
X186392600Y-107700000I-2120000J0D01*
G01*
%TO.C,R17*%
X173664905Y-135149359D02*
G75*
G03*
X173567867Y-133700000I320095J749359D01*
G01*
%TO.C,D2*%
X162130000Y-109270000D02*
X162130000Y-106330000D01*
X161890000Y-109270000D02*
X161890000Y-106330000D01*
X161110000Y-106330000D02*
X166550000Y-106330000D01*
X161110000Y-108940000D02*
X161110000Y-109270000D01*
X166550000Y-109270000D02*
X166550000Y-108940000D01*
X161110000Y-109270000D02*
X166550000Y-109270000D01*
X162010000Y-109270000D02*
X162010000Y-106330000D01*
X161110000Y-106660000D02*
X161110000Y-106330000D01*
X166550000Y-106330000D02*
X166550000Y-106660000D01*
%TO.C,D6*%
X161110000Y-133360000D02*
X161110000Y-133030000D01*
X161110000Y-133030000D02*
X166550000Y-133030000D01*
X161110000Y-135640000D02*
X161110000Y-135970000D01*
X162010000Y-135970000D02*
X162010000Y-133030000D01*
X162130000Y-135970000D02*
X162130000Y-133030000D01*
X161110000Y-135970000D02*
X166550000Y-135970000D01*
X166550000Y-133030000D02*
X166550000Y-133360000D01*
X166550000Y-135970000D02*
X166550000Y-135640000D01*
X161890000Y-135970000D02*
X161890000Y-133030000D01*
%TO.C,C6*%
X184052600Y-135340000D02*
X184052600Y-136577000D01*
X184132600Y-132420000D02*
X184132600Y-133660000D01*
X183011600Y-132765000D02*
X183011600Y-133660000D01*
X183291600Y-135340000D02*
X183291600Y-136389000D01*
X183732600Y-135340000D02*
X183732600Y-136534000D01*
X183972600Y-135340000D02*
X183972600Y-136571000D01*
X182771600Y-135340000D02*
X182771600Y-136052000D01*
X182131600Y-133963000D02*
X182131600Y-135037000D01*
X182851600Y-135340000D02*
X182851600Y-136119000D01*
X182851600Y-132881000D02*
X182851600Y-133660000D01*
X182731600Y-132984000D02*
X182731600Y-133660000D01*
X183852600Y-135340000D02*
X183852600Y-136556000D01*
X183051600Y-132740000D02*
X183051600Y-133660000D01*
X183411600Y-132560000D02*
X183411600Y-133660000D01*
X183171600Y-132670000D02*
X183171600Y-133660000D01*
X183411600Y-135340000D02*
X183411600Y-136440000D01*
X183211600Y-135340000D02*
X183211600Y-136351000D01*
X183692600Y-132475000D02*
X183692600Y-133660000D01*
X182251600Y-133641000D02*
X182251600Y-135359000D01*
X182491600Y-133246000D02*
X182491600Y-135754000D01*
X182891600Y-135340000D02*
X182891600Y-136150000D01*
X183972600Y-132429000D02*
X183972600Y-133660000D01*
X183091600Y-135340000D02*
X183091600Y-136285000D01*
X184012600Y-132426000D02*
X184012600Y-133660000D01*
X183051600Y-135340000D02*
X183051600Y-136260000D01*
X183892600Y-132438000D02*
X183892600Y-133660000D01*
X183532600Y-132518000D02*
X183532600Y-133660000D01*
X184012600Y-135340000D02*
X184012600Y-136574000D01*
X183131600Y-135340000D02*
X183131600Y-136308000D01*
X182691600Y-133022000D02*
X182691600Y-133660000D01*
X182371600Y-133420000D02*
X182371600Y-135580000D01*
X184092600Y-135340000D02*
X184092600Y-136579000D01*
X182891600Y-132850000D02*
X182891600Y-133660000D01*
X183572600Y-135340000D02*
X183572600Y-136494000D01*
X183612600Y-132495000D02*
X183612600Y-133660000D01*
X184092600Y-132421000D02*
X184092600Y-133660000D01*
X183331600Y-135340000D02*
X183331600Y-136407000D01*
X184172600Y-135340000D02*
X184172600Y-136580000D01*
X183812600Y-132450000D02*
X183812600Y-133660000D01*
X183091600Y-132715000D02*
X183091600Y-133660000D01*
X183692600Y-135340000D02*
X183692600Y-136525000D01*
X183251600Y-135340000D02*
X183251600Y-136370000D01*
X183572600Y-132506000D02*
X183572600Y-133660000D01*
X182811600Y-132913000D02*
X182811600Y-133660000D01*
X182091600Y-134130000D02*
X182091600Y-134870000D01*
X183532600Y-135340000D02*
X183532600Y-136482000D01*
X182451600Y-133300000D02*
X182451600Y-135700000D01*
X184052600Y-132423000D02*
X184052600Y-133660000D01*
X182971600Y-135340000D02*
X182971600Y-136208000D01*
X183932600Y-132433000D02*
X183932600Y-133660000D01*
X182771600Y-132948000D02*
X182771600Y-133660000D01*
X183852600Y-132444000D02*
X183852600Y-133660000D01*
X183612600Y-135340000D02*
X183612600Y-136505000D01*
X183171600Y-135340000D02*
X183171600Y-136330000D01*
X182571600Y-133149000D02*
X182571600Y-135851000D01*
X183211600Y-132649000D02*
X183211600Y-133660000D01*
X183331600Y-132593000D02*
X183331600Y-133660000D01*
X183652600Y-132484000D02*
X183652600Y-133660000D01*
X182811600Y-135340000D02*
X182811600Y-136087000D01*
X182931600Y-132820000D02*
X182931600Y-133660000D01*
X182651600Y-133062000D02*
X182651600Y-133660000D01*
X183732600Y-132466000D02*
X183732600Y-133660000D01*
X183371600Y-132576000D02*
X183371600Y-133660000D01*
X183892600Y-135340000D02*
X183892600Y-136562000D01*
X182611600Y-135340000D02*
X182611600Y-135896000D01*
X182211600Y-133732000D02*
X182211600Y-135268000D01*
X183812600Y-135340000D02*
X183812600Y-136550000D01*
X183251600Y-132630000D02*
X183251600Y-133660000D01*
X184132600Y-135340000D02*
X184132600Y-136580000D01*
X183291600Y-132611000D02*
X183291600Y-133660000D01*
X183131600Y-132692000D02*
X183131600Y-133660000D01*
X183492600Y-132532000D02*
X183492600Y-133660000D01*
X182931600Y-135340000D02*
X182931600Y-136180000D01*
X182171600Y-133836000D02*
X182171600Y-135164000D01*
X182531600Y-133196000D02*
X182531600Y-135804000D01*
X184172600Y-132420000D02*
X184172600Y-133660000D01*
X183371600Y-135340000D02*
X183371600Y-136424000D01*
X183772600Y-135340000D02*
X183772600Y-136542000D01*
X182411600Y-133358000D02*
X182411600Y-135642000D01*
X182611600Y-133104000D02*
X182611600Y-133660000D01*
X183932600Y-135340000D02*
X183932600Y-136567000D01*
X183492600Y-135340000D02*
X183492600Y-136468000D01*
X186442401Y-133305000D02*
X186042401Y-133305000D01*
X183451600Y-132546000D02*
X183451600Y-133660000D01*
X183451600Y-135340000D02*
X183451600Y-136454000D01*
X183011600Y-135340000D02*
X183011600Y-136235000D01*
X186242401Y-133105000D02*
X186242401Y-133505000D01*
X182651600Y-135340000D02*
X182651600Y-135938000D01*
X182691600Y-135340000D02*
X182691600Y-135978000D01*
X182291600Y-133560000D02*
X182291600Y-135440000D01*
X182331600Y-133487000D02*
X182331600Y-135513000D01*
X183652600Y-135340000D02*
X183652600Y-136516000D01*
X183772600Y-132458000D02*
X183772600Y-133660000D01*
X182731600Y-135340000D02*
X182731600Y-136016000D01*
X182971600Y-132792000D02*
X182971600Y-133660000D01*
X186292600Y-134500000D02*
G75*
G03*
X186292600Y-134500000I-2120000J0D01*
G01*
%TO.C,R6*%
X167350641Y-91184905D02*
G75*
G03*
X168800000Y-91087867I749359J-320095D01*
G01*
%TO.C,C1*%
X183651600Y-92646000D02*
X183651600Y-93760000D01*
X183692600Y-95440000D02*
X183692600Y-96568000D01*
X183571600Y-92676000D02*
X183571600Y-93760000D01*
X186642401Y-93405000D02*
X186242401Y-93405000D01*
X183531600Y-95440000D02*
X183531600Y-96507000D01*
X182851600Y-95440000D02*
X182851600Y-96038000D01*
X183611600Y-92660000D02*
X183611600Y-93760000D01*
X184332600Y-92520000D02*
X184332600Y-93760000D01*
X184372600Y-95440000D02*
X184372600Y-96680000D01*
X182571600Y-93520000D02*
X182571600Y-95680000D01*
X182771600Y-93249000D02*
X182771600Y-95951000D01*
X183892600Y-92575000D02*
X183892600Y-93760000D01*
X183131600Y-95440000D02*
X183131600Y-96280000D01*
X182971600Y-95440000D02*
X182971600Y-96152000D01*
X183371600Y-95440000D02*
X183371600Y-96430000D01*
X183852600Y-95440000D02*
X183852600Y-96616000D01*
X182811600Y-93204000D02*
X182811600Y-93760000D01*
X182811600Y-95440000D02*
X182811600Y-95996000D01*
X184092600Y-92538000D02*
X184092600Y-93760000D01*
X183812600Y-95440000D02*
X183812600Y-96605000D01*
X183651600Y-95440000D02*
X183651600Y-96554000D01*
X183251600Y-95440000D02*
X183251600Y-96360000D01*
X184052600Y-95440000D02*
X184052600Y-96656000D01*
X183772600Y-95440000D02*
X183772600Y-96594000D01*
X183451600Y-95440000D02*
X183451600Y-96470000D01*
X183932600Y-95440000D02*
X183932600Y-96634000D01*
X183331600Y-95440000D02*
X183331600Y-96408000D01*
X182611600Y-93458000D02*
X182611600Y-95742000D01*
X182971600Y-93048000D02*
X182971600Y-93760000D01*
X184252600Y-92523000D02*
X184252600Y-93760000D01*
X183211600Y-95440000D02*
X183211600Y-96335000D01*
X184372600Y-92520000D02*
X184372600Y-93760000D01*
X184052600Y-92544000D02*
X184052600Y-93760000D01*
X183852600Y-92584000D02*
X183852600Y-93760000D01*
X183932600Y-92566000D02*
X183932600Y-93760000D01*
X184012600Y-95440000D02*
X184012600Y-96650000D01*
X184132600Y-92533000D02*
X184132600Y-93760000D01*
X183371600Y-92770000D02*
X183371600Y-93760000D01*
X184212600Y-95440000D02*
X184212600Y-96674000D01*
X183491600Y-95440000D02*
X183491600Y-96489000D01*
X183451600Y-92730000D02*
X183451600Y-93760000D01*
X184012600Y-92550000D02*
X184012600Y-93760000D01*
X182931600Y-93084000D02*
X182931600Y-93760000D01*
X183011600Y-93013000D02*
X183011600Y-93760000D01*
X183251600Y-92840000D02*
X183251600Y-93760000D01*
X182731600Y-93296000D02*
X182731600Y-95904000D01*
X182851600Y-93162000D02*
X182851600Y-93760000D01*
X183291600Y-95440000D02*
X183291600Y-96385000D01*
X184292600Y-95440000D02*
X184292600Y-96679000D01*
X182891600Y-93122000D02*
X182891600Y-93760000D01*
X183892600Y-95440000D02*
X183892600Y-96625000D01*
X183972600Y-92558000D02*
X183972600Y-93760000D01*
X183091600Y-95440000D02*
X183091600Y-96250000D01*
X186442401Y-93205000D02*
X186442401Y-93605000D01*
X182411600Y-93832000D02*
X182411600Y-95368000D01*
X182691600Y-93346000D02*
X182691600Y-95854000D01*
X182291600Y-94230000D02*
X182291600Y-94970000D01*
X184172600Y-95440000D02*
X184172600Y-96671000D01*
X183411600Y-92749000D02*
X183411600Y-93760000D01*
X184172600Y-92529000D02*
X184172600Y-93760000D01*
X183972600Y-95440000D02*
X183972600Y-96642000D01*
X184132600Y-95440000D02*
X184132600Y-96667000D01*
X183211600Y-92865000D02*
X183211600Y-93760000D01*
X182931600Y-95440000D02*
X182931600Y-96116000D01*
X183091600Y-92950000D02*
X183091600Y-93760000D01*
X182331600Y-94063000D02*
X182331600Y-95137000D01*
X183732600Y-92618000D02*
X183732600Y-93760000D01*
X183611600Y-95440000D02*
X183611600Y-96540000D01*
X183051600Y-95440000D02*
X183051600Y-96219000D01*
X183732600Y-95440000D02*
X183732600Y-96582000D01*
X182651600Y-93400000D02*
X182651600Y-95800000D01*
X183011600Y-95440000D02*
X183011600Y-96187000D01*
X183051600Y-92981000D02*
X183051600Y-93760000D01*
X182531600Y-93587000D02*
X182531600Y-95613000D01*
X183171600Y-92892000D02*
X183171600Y-93760000D01*
X184252600Y-95440000D02*
X184252600Y-96677000D01*
X184212600Y-92526000D02*
X184212600Y-93760000D01*
X183411600Y-95440000D02*
X183411600Y-96451000D01*
X184292600Y-92521000D02*
X184292600Y-93760000D01*
X183571600Y-95440000D02*
X183571600Y-96524000D01*
X184332600Y-95440000D02*
X184332600Y-96680000D01*
X183491600Y-92711000D02*
X183491600Y-93760000D01*
X183171600Y-95440000D02*
X183171600Y-96308000D01*
X184092600Y-95440000D02*
X184092600Y-96662000D01*
X183772600Y-92606000D02*
X183772600Y-93760000D01*
X183291600Y-92815000D02*
X183291600Y-93760000D01*
X183812600Y-92595000D02*
X183812600Y-93760000D01*
X183331600Y-92792000D02*
X183331600Y-93760000D01*
X183131600Y-92920000D02*
X183131600Y-93760000D01*
X182891600Y-95440000D02*
X182891600Y-96078000D01*
X183692600Y-92632000D02*
X183692600Y-93760000D01*
X182491600Y-93660000D02*
X182491600Y-95540000D01*
X182451600Y-93741000D02*
X182451600Y-95459000D01*
X182371600Y-93936000D02*
X182371600Y-95264000D01*
X183531600Y-92693000D02*
X183531600Y-93760000D01*
X186492600Y-94600000D02*
G75*
G03*
X186492600Y-94600000I-2120000J0D01*
G01*
%TO.C,C3*%
X182091600Y-120330000D02*
X182091600Y-121070000D01*
X182531600Y-119396000D02*
X182531600Y-122004000D01*
X183291600Y-121540000D02*
X183291600Y-122589000D01*
X183892600Y-118638000D02*
X183892600Y-119860000D01*
X184132600Y-121540000D02*
X184132600Y-122780000D01*
X182131600Y-120163000D02*
X182131600Y-121237000D01*
X182651600Y-121540000D02*
X182651600Y-122138000D01*
X182371600Y-119620000D02*
X182371600Y-121780000D01*
X182411600Y-119558000D02*
X182411600Y-121842000D01*
X182891600Y-121540000D02*
X182891600Y-122350000D01*
X183532600Y-118718000D02*
X183532600Y-119860000D01*
X182811600Y-121540000D02*
X182811600Y-122287000D01*
X183612600Y-118695000D02*
X183612600Y-119860000D01*
X183091600Y-121540000D02*
X183091600Y-122485000D01*
X183091600Y-118915000D02*
X183091600Y-119860000D01*
X184132600Y-118620000D02*
X184132600Y-119860000D01*
X182891600Y-119050000D02*
X182891600Y-119860000D01*
X183051600Y-121540000D02*
X183051600Y-122460000D01*
X183171600Y-118870000D02*
X183171600Y-119860000D01*
X183932600Y-118633000D02*
X183932600Y-119860000D01*
X183972600Y-118629000D02*
X183972600Y-119860000D01*
X184012600Y-118626000D02*
X184012600Y-119860000D01*
X182731600Y-121540000D02*
X182731600Y-122216000D01*
X183732600Y-121540000D02*
X183732600Y-122734000D01*
X182171600Y-120036000D02*
X182171600Y-121364000D01*
X183051600Y-118940000D02*
X183051600Y-119860000D01*
X184012600Y-121540000D02*
X184012600Y-122774000D01*
X183532600Y-121540000D02*
X183532600Y-122682000D01*
X182931600Y-121540000D02*
X182931600Y-122380000D01*
X183732600Y-118666000D02*
X183732600Y-119860000D01*
X183251600Y-118830000D02*
X183251600Y-119860000D01*
X183812600Y-118650000D02*
X183812600Y-119860000D01*
X183411600Y-121540000D02*
X183411600Y-122640000D01*
X182731600Y-119184000D02*
X182731600Y-119860000D01*
X183331600Y-121540000D02*
X183331600Y-122607000D01*
X183492600Y-121540000D02*
X183492600Y-122668000D01*
X183972600Y-121540000D02*
X183972600Y-122771000D01*
X186442401Y-119505000D02*
X186042401Y-119505000D01*
X183331600Y-118793000D02*
X183331600Y-119860000D01*
X182571600Y-119349000D02*
X182571600Y-122051000D01*
X183451600Y-118746000D02*
X183451600Y-119860000D01*
X183932600Y-121540000D02*
X183932600Y-122767000D01*
X183211600Y-118849000D02*
X183211600Y-119860000D01*
X183652600Y-118684000D02*
X183652600Y-119860000D01*
X182211600Y-119932000D02*
X182211600Y-121468000D01*
X182771600Y-121540000D02*
X182771600Y-122252000D01*
X183772600Y-118658000D02*
X183772600Y-119860000D01*
X182971600Y-118992000D02*
X182971600Y-119860000D01*
X183852600Y-118644000D02*
X183852600Y-119860000D01*
X183612600Y-121540000D02*
X183612600Y-122705000D01*
X183812600Y-121540000D02*
X183812600Y-122750000D01*
X182931600Y-119020000D02*
X182931600Y-119860000D01*
X182971600Y-121540000D02*
X182971600Y-122408000D01*
X182251600Y-119841000D02*
X182251600Y-121559000D01*
X183572600Y-121540000D02*
X183572600Y-122694000D01*
X183572600Y-118706000D02*
X183572600Y-119860000D01*
X183291600Y-118811000D02*
X183291600Y-119860000D01*
X183371600Y-121540000D02*
X183371600Y-122624000D01*
X183411600Y-118760000D02*
X183411600Y-119860000D01*
X183171600Y-121540000D02*
X183171600Y-122530000D01*
X182451600Y-119500000D02*
X182451600Y-121900000D01*
X183492600Y-118732000D02*
X183492600Y-119860000D01*
X184092600Y-121540000D02*
X184092600Y-122779000D01*
X184052600Y-118623000D02*
X184052600Y-119860000D01*
X182331600Y-119687000D02*
X182331600Y-121713000D01*
X186242401Y-119305000D02*
X186242401Y-119705000D01*
X182811600Y-119113000D02*
X182811600Y-119860000D01*
X183451600Y-121540000D02*
X183451600Y-122654000D01*
X184052600Y-121540000D02*
X184052600Y-122777000D01*
X183652600Y-121540000D02*
X183652600Y-122716000D01*
X182291600Y-119760000D02*
X182291600Y-121640000D01*
X183852600Y-121540000D02*
X183852600Y-122756000D01*
X183371600Y-118776000D02*
X183371600Y-119860000D01*
X183011600Y-118965000D02*
X183011600Y-119860000D01*
X182771600Y-119148000D02*
X182771600Y-119860000D01*
X183692600Y-118675000D02*
X183692600Y-119860000D01*
X182651600Y-119262000D02*
X182651600Y-119860000D01*
X183011600Y-121540000D02*
X183011600Y-122435000D01*
X182691600Y-121540000D02*
X182691600Y-122178000D01*
X184172600Y-118620000D02*
X184172600Y-119860000D01*
X184172600Y-121540000D02*
X184172600Y-122780000D01*
X183772600Y-121540000D02*
X183772600Y-122742000D01*
X182851600Y-119081000D02*
X182851600Y-119860000D01*
X183131600Y-121540000D02*
X183131600Y-122508000D01*
X182611600Y-121540000D02*
X182611600Y-122096000D01*
X184092600Y-118621000D02*
X184092600Y-119860000D01*
X183692600Y-121540000D02*
X183692600Y-122725000D01*
X182491600Y-119446000D02*
X182491600Y-121954000D01*
X183892600Y-121540000D02*
X183892600Y-122762000D01*
X182611600Y-119304000D02*
X182611600Y-119860000D01*
X182691600Y-119222000D02*
X182691600Y-119860000D01*
X182851600Y-121540000D02*
X182851600Y-122319000D01*
X183211600Y-121540000D02*
X183211600Y-122551000D01*
X183131600Y-118892000D02*
X183131600Y-119860000D01*
X183251600Y-121540000D02*
X183251600Y-122570000D01*
X186292600Y-120700000D02*
G75*
G03*
X186292600Y-120700000I-2120000J0D01*
G01*
%TO.C,J7*%
X151595000Y-141395000D02*
X151595000Y-143995000D01*
X154195000Y-138795000D02*
X154195000Y-141395000D01*
X154195000Y-138795000D02*
X164415000Y-138795000D01*
X152925000Y-138795000D02*
X151595000Y-138795000D01*
X164415000Y-138795000D02*
X164415000Y-143995000D01*
X154195000Y-141395000D02*
X151595000Y-141395000D01*
X151595000Y-138795000D02*
X151595000Y-140125000D01*
X151595000Y-143995000D02*
X164415000Y-143995000D01*
%TO.C,R16*%
X160345095Y-83705641D02*
G75*
G03*
X160442133Y-85155000I-320095J-749359D01*
G01*
%TO.C,R2*%
X165849359Y-112815095D02*
G75*
G03*
X164400000Y-112912133I-749359J320095D01*
G01*
%TO.C,R12*%
X173384905Y-121549359D02*
G75*
G03*
X173287867Y-120100000I320095J749359D01*
G01*
%TO.C,D3*%
X155820000Y-119630000D02*
X155820000Y-119960000D01*
X150380000Y-119630000D02*
X155820000Y-119630000D01*
X151400000Y-122570000D02*
X151400000Y-119630000D01*
X150380000Y-122570000D02*
X155820000Y-122570000D01*
X151280000Y-122570000D02*
X151280000Y-119630000D01*
X151160000Y-122570000D02*
X151160000Y-119630000D01*
X155820000Y-122570000D02*
X155820000Y-122240000D01*
X150380000Y-119960000D02*
X150380000Y-119630000D01*
X150380000Y-122240000D02*
X150380000Y-122570000D01*
%TO.C,D4*%
X166550000Y-122570000D02*
X166550000Y-122240000D01*
X161110000Y-122570000D02*
X166550000Y-122570000D01*
X162010000Y-122570000D02*
X162010000Y-119630000D01*
X166550000Y-119630000D02*
X166550000Y-119960000D01*
X161110000Y-119960000D02*
X161110000Y-119630000D01*
X161890000Y-122570000D02*
X161890000Y-119630000D01*
X161110000Y-119630000D02*
X166550000Y-119630000D01*
X162130000Y-122570000D02*
X162130000Y-119630000D01*
X161110000Y-122240000D02*
X161110000Y-122570000D01*
%TO.C,R3*%
X165849359Y-126915095D02*
G75*
G03*
X164400000Y-127012133I-749359J320095D01*
G01*
%TD*%
M02*
