%TF.GenerationSoftware,KiCad,Pcbnew,(6.0.4-0)*%
%TF.CreationDate,2022-12-21T08:50:29-08:00*%
%TF.ProjectId,contact,636f6e74-6163-4742-9e6b-696361645f70,rev?*%
%TF.SameCoordinates,Original*%
%TF.FileFunction,Legend,Top*%
%TF.FilePolarity,Positive*%
%FSLAX46Y46*%
G04 Gerber Fmt 4.6, Leading zero omitted, Abs format (unit mm)*
G04 Created by KiCad (PCBNEW (6.0.4-0)) date 2022-12-21 08:50:29*
%MOMM*%
%LPD*%
G01*
G04 APERTURE LIST*
%ADD10C,0.300000*%
%ADD11C,0.150000*%
%ADD12C,0.120000*%
G04 APERTURE END LIST*
D10*
X150615000Y-48771071D02*
X151543571Y-48771071D01*
X151043571Y-49342500D01*
X151257857Y-49342500D01*
X151400714Y-49413928D01*
X151472142Y-49485357D01*
X151543571Y-49628214D01*
X151543571Y-49985357D01*
X151472142Y-50128214D01*
X151400714Y-50199642D01*
X151257857Y-50271071D01*
X150829285Y-50271071D01*
X150686428Y-50199642D01*
X150615000Y-50128214D01*
X152257857Y-50199642D02*
X152257857Y-50271071D01*
X152186428Y-50413928D01*
X152115000Y-50485357D01*
X152829285Y-48913928D02*
X152900714Y-48842500D01*
X153043571Y-48771071D01*
X153400714Y-48771071D01*
X153543571Y-48842500D01*
X153615000Y-48913928D01*
X153686428Y-49056785D01*
X153686428Y-49199642D01*
X153615000Y-49413928D01*
X152757857Y-50271071D01*
X153686428Y-50271071D01*
X154400714Y-50199642D02*
X154400714Y-50271071D01*
X154329285Y-50413928D01*
X154257857Y-50485357D01*
X155829285Y-50271071D02*
X154972142Y-50271071D01*
X155400714Y-50271071D02*
X155400714Y-48771071D01*
X155257857Y-48985357D01*
X155115000Y-49128214D01*
X154972142Y-49199642D01*
X158472142Y-50128214D02*
X158400714Y-50199642D01*
X158186428Y-50271071D01*
X158043571Y-50271071D01*
X157829285Y-50199642D01*
X157686428Y-50056785D01*
X157615000Y-49913928D01*
X157543571Y-49628214D01*
X157543571Y-49413928D01*
X157615000Y-49128214D01*
X157686428Y-48985357D01*
X157829285Y-48842500D01*
X158043571Y-48771071D01*
X158186428Y-48771071D01*
X158400714Y-48842500D01*
X158472142Y-48913928D01*
X159329285Y-50271071D02*
X159186428Y-50199642D01*
X159115000Y-50128214D01*
X159043571Y-49985357D01*
X159043571Y-49556785D01*
X159115000Y-49413928D01*
X159186428Y-49342500D01*
X159329285Y-49271071D01*
X159543571Y-49271071D01*
X159686428Y-49342500D01*
X159757857Y-49413928D01*
X159829285Y-49556785D01*
X159829285Y-49985357D01*
X159757857Y-50128214D01*
X159686428Y-50199642D01*
X159543571Y-50271071D01*
X159329285Y-50271071D01*
X160472142Y-49271071D02*
X160472142Y-50271071D01*
X160472142Y-49413928D02*
X160543571Y-49342500D01*
X160686428Y-49271071D01*
X160900714Y-49271071D01*
X161043571Y-49342500D01*
X161115000Y-49485357D01*
X161115000Y-50271071D01*
X161615000Y-49271071D02*
X162186428Y-49271071D01*
X161829285Y-48771071D02*
X161829285Y-50056785D01*
X161900714Y-50199642D01*
X162043571Y-50271071D01*
X162186428Y-50271071D01*
X163329285Y-50271071D02*
X163329285Y-49485357D01*
X163257857Y-49342500D01*
X163115000Y-49271071D01*
X162829285Y-49271071D01*
X162686428Y-49342500D01*
X163329285Y-50199642D02*
X163186428Y-50271071D01*
X162829285Y-50271071D01*
X162686428Y-50199642D01*
X162615000Y-50056785D01*
X162615000Y-49913928D01*
X162686428Y-49771071D01*
X162829285Y-49699642D01*
X163186428Y-49699642D01*
X163329285Y-49628214D01*
X164686428Y-50199642D02*
X164543571Y-50271071D01*
X164257857Y-50271071D01*
X164115000Y-50199642D01*
X164043571Y-50128214D01*
X163972142Y-49985357D01*
X163972142Y-49556785D01*
X164043571Y-49413928D01*
X164115000Y-49342500D01*
X164257857Y-49271071D01*
X164543571Y-49271071D01*
X164686428Y-49342500D01*
X165115000Y-49271071D02*
X165686428Y-49271071D01*
X165329285Y-48771071D02*
X165329285Y-50056785D01*
X165400714Y-50199642D01*
X165543571Y-50271071D01*
X165686428Y-50271071D01*
X155400714Y-51686071D02*
X155757857Y-52686071D01*
X156115000Y-51686071D01*
X158115000Y-51186071D02*
X158257857Y-51186071D01*
X158400714Y-51257500D01*
X158472142Y-51328928D01*
X158543571Y-51471785D01*
X158615000Y-51757500D01*
X158615000Y-52114642D01*
X158543571Y-52400357D01*
X158472142Y-52543214D01*
X158400714Y-52614642D01*
X158257857Y-52686071D01*
X158115000Y-52686071D01*
X157972142Y-52614642D01*
X157900714Y-52543214D01*
X157829285Y-52400357D01*
X157757857Y-52114642D01*
X157757857Y-51757500D01*
X157829285Y-51471785D01*
X157900714Y-51328928D01*
X157972142Y-51257500D01*
X158115000Y-51186071D01*
X159257857Y-52543214D02*
X159329285Y-52614642D01*
X159257857Y-52686071D01*
X159186428Y-52614642D01*
X159257857Y-52543214D01*
X159257857Y-52686071D01*
X159900714Y-51328928D02*
X159972142Y-51257500D01*
X160115000Y-51186071D01*
X160472142Y-51186071D01*
X160615000Y-51257500D01*
X160686428Y-51328928D01*
X160757857Y-51471785D01*
X160757857Y-51614642D01*
X160686428Y-51828928D01*
X159829285Y-52686071D01*
X160757857Y-52686071D01*
D11*
%TO.C,R7*%
X176363333Y-44557380D02*
X176030000Y-44081190D01*
X175791904Y-44557380D02*
X175791904Y-43557380D01*
X176172857Y-43557380D01*
X176268095Y-43605000D01*
X176315714Y-43652619D01*
X176363333Y-43747857D01*
X176363333Y-43890714D01*
X176315714Y-43985952D01*
X176268095Y-44033571D01*
X176172857Y-44081190D01*
X175791904Y-44081190D01*
X176696666Y-43557380D02*
X177363333Y-43557380D01*
X176934761Y-44557380D01*
%TO.C,J1*%
X151552380Y-105743333D02*
X152266666Y-105743333D01*
X152409523Y-105790952D01*
X152504761Y-105886190D01*
X152552380Y-106029047D01*
X152552380Y-106124285D01*
X152552380Y-104743333D02*
X152552380Y-105314761D01*
X152552380Y-105029047D02*
X151552380Y-105029047D01*
X151695238Y-105124285D01*
X151790476Y-105219523D01*
X151838095Y-105314761D01*
%TO.C,J5*%
X181752380Y-110803333D02*
X182466666Y-110803333D01*
X182609523Y-110850952D01*
X182704761Y-110946190D01*
X182752380Y-111089047D01*
X182752380Y-111184285D01*
X181752380Y-109850952D02*
X181752380Y-110327142D01*
X182228571Y-110374761D01*
X182180952Y-110327142D01*
X182133333Y-110231904D01*
X182133333Y-109993809D01*
X182180952Y-109898571D01*
X182228571Y-109850952D01*
X182323809Y-109803333D01*
X182561904Y-109803333D01*
X182657142Y-109850952D01*
X182704761Y-109898571D01*
X182752380Y-109993809D01*
X182752380Y-110231904D01*
X182704761Y-110327142D01*
X182657142Y-110374761D01*
%TO.C,R8*%
X176363333Y-64547380D02*
X176030000Y-64071190D01*
X175791904Y-64547380D02*
X175791904Y-63547380D01*
X176172857Y-63547380D01*
X176268095Y-63595000D01*
X176315714Y-63642619D01*
X176363333Y-63737857D01*
X176363333Y-63880714D01*
X176315714Y-63975952D01*
X176268095Y-64023571D01*
X176172857Y-64071190D01*
X175791904Y-64071190D01*
X176934761Y-63975952D02*
X176839523Y-63928333D01*
X176791904Y-63880714D01*
X176744285Y-63785476D01*
X176744285Y-63737857D01*
X176791904Y-63642619D01*
X176839523Y-63595000D01*
X176934761Y-63547380D01*
X177125238Y-63547380D01*
X177220476Y-63595000D01*
X177268095Y-63642619D01*
X177315714Y-63737857D01*
X177315714Y-63785476D01*
X177268095Y-63880714D01*
X177220476Y-63928333D01*
X177125238Y-63975952D01*
X176934761Y-63975952D01*
X176839523Y-64023571D01*
X176791904Y-64071190D01*
X176744285Y-64166428D01*
X176744285Y-64356904D01*
X176791904Y-64452142D01*
X176839523Y-64499761D01*
X176934761Y-64547380D01*
X177125238Y-64547380D01*
X177220476Y-64499761D01*
X177268095Y-64452142D01*
X177315714Y-64356904D01*
X177315714Y-64166428D01*
X177268095Y-64071190D01*
X177220476Y-64023571D01*
X177125238Y-63975952D01*
%TO.C,J6*%
X181752380Y-124103333D02*
X182466666Y-124103333D01*
X182609523Y-124150952D01*
X182704761Y-124246190D01*
X182752380Y-124389047D01*
X182752380Y-124484285D01*
X181752380Y-123198571D02*
X181752380Y-123389047D01*
X181800000Y-123484285D01*
X181847619Y-123531904D01*
X181990476Y-123627142D01*
X182180952Y-123674761D01*
X182561904Y-123674761D01*
X182657142Y-123627142D01*
X182704761Y-123579523D01*
X182752380Y-123484285D01*
X182752380Y-123293809D01*
X182704761Y-123198571D01*
X182657142Y-123150952D01*
X182561904Y-123103333D01*
X182323809Y-123103333D01*
X182228571Y-123150952D01*
X182180952Y-123198571D01*
X182133333Y-123293809D01*
X182133333Y-123484285D01*
X182180952Y-123579523D01*
X182228571Y-123627142D01*
X182323809Y-123674761D01*
%TO.C,J4*%
X181812380Y-97903333D02*
X182526666Y-97903333D01*
X182669523Y-97950952D01*
X182764761Y-98046190D01*
X182812380Y-98189047D01*
X182812380Y-98284285D01*
X182145714Y-96998571D02*
X182812380Y-96998571D01*
X181764761Y-97236666D02*
X182479047Y-97474761D01*
X182479047Y-96855714D01*
%TO.C,J2*%
X151552380Y-118863333D02*
X152266666Y-118863333D01*
X152409523Y-118910952D01*
X152504761Y-119006190D01*
X152552380Y-119149047D01*
X152552380Y-119244285D01*
X151647619Y-118434761D02*
X151600000Y-118387142D01*
X151552380Y-118291904D01*
X151552380Y-118053809D01*
X151600000Y-117958571D01*
X151647619Y-117910952D01*
X151742857Y-117863333D01*
X151838095Y-117863333D01*
X151980952Y-117910952D01*
X152552380Y-118482380D01*
X152552380Y-117863333D01*
%TO.C,R9*%
X176363333Y-85182380D02*
X176030000Y-84706190D01*
X175791904Y-85182380D02*
X175791904Y-84182380D01*
X176172857Y-84182380D01*
X176268095Y-84230000D01*
X176315714Y-84277619D01*
X176363333Y-84372857D01*
X176363333Y-84515714D01*
X176315714Y-84610952D01*
X176268095Y-84658571D01*
X176172857Y-84706190D01*
X175791904Y-84706190D01*
X176839523Y-85182380D02*
X177030000Y-85182380D01*
X177125238Y-85134761D01*
X177172857Y-85087142D01*
X177268095Y-84944285D01*
X177315714Y-84753809D01*
X177315714Y-84372857D01*
X177268095Y-84277619D01*
X177220476Y-84230000D01*
X177125238Y-84182380D01*
X176934761Y-84182380D01*
X176839523Y-84230000D01*
X176791904Y-84277619D01*
X176744285Y-84372857D01*
X176744285Y-84610952D01*
X176791904Y-84706190D01*
X176839523Y-84753809D01*
X176934761Y-84801428D01*
X177125238Y-84801428D01*
X177220476Y-84753809D01*
X177268095Y-84706190D01*
X177315714Y-84610952D01*
%TO.C,J3*%
X151752380Y-132163333D02*
X152466666Y-132163333D01*
X152609523Y-132210952D01*
X152704761Y-132306190D01*
X152752380Y-132449047D01*
X152752380Y-132544285D01*
X151752380Y-131782380D02*
X151752380Y-131163333D01*
X152133333Y-131496666D01*
X152133333Y-131353809D01*
X152180952Y-131258571D01*
X152228571Y-131210952D01*
X152323809Y-131163333D01*
X152561904Y-131163333D01*
X152657142Y-131210952D01*
X152704761Y-131258571D01*
X152752380Y-131353809D01*
X152752380Y-131639523D01*
X152704761Y-131734761D01*
X152657142Y-131782380D01*
%TO.C,J8*%
X181752380Y-137303333D02*
X182466666Y-137303333D01*
X182609523Y-137350952D01*
X182704761Y-137446190D01*
X182752380Y-137589047D01*
X182752380Y-137684285D01*
X182180952Y-136684285D02*
X182133333Y-136779523D01*
X182085714Y-136827142D01*
X181990476Y-136874761D01*
X181942857Y-136874761D01*
X181847619Y-136827142D01*
X181800000Y-136779523D01*
X181752380Y-136684285D01*
X181752380Y-136493809D01*
X181800000Y-136398571D01*
X181847619Y-136350952D01*
X181942857Y-136303333D01*
X181990476Y-136303333D01*
X182085714Y-136350952D01*
X182133333Y-136398571D01*
X182180952Y-136493809D01*
X182180952Y-136684285D01*
X182228571Y-136779523D01*
X182276190Y-136827142D01*
X182371428Y-136874761D01*
X182561904Y-136874761D01*
X182657142Y-136827142D01*
X182704761Y-136779523D01*
X182752380Y-136684285D01*
X182752380Y-136493809D01*
X182704761Y-136398571D01*
X182657142Y-136350952D01*
X182561904Y-136303333D01*
X182371428Y-136303333D01*
X182276190Y-136350952D01*
X182228571Y-136398571D01*
X182180952Y-136493809D01*
D12*
%TO.C,R7*%
X182700000Y-42270000D02*
X182700000Y-39255000D01*
X177401000Y-50845000D02*
X178160000Y-50845000D01*
X170360000Y-39255000D02*
X182700000Y-39255000D01*
X170360000Y-50845000D02*
X172830000Y-50845000D01*
X182700000Y-50845000D02*
X182700000Y-46179000D01*
X179900000Y-50845000D02*
X182700000Y-50845000D01*
X175230000Y-50845000D02*
X175660000Y-50845000D01*
X170360000Y-50845000D02*
X170360000Y-46179000D01*
X170360000Y-42270000D02*
X170360000Y-39255000D01*
X174530000Y-40725000D02*
X178530000Y-40725000D01*
X178530000Y-40725000D02*
X178530000Y-39225000D01*
X178530000Y-39225000D02*
X174530000Y-39225000D01*
X174530000Y-39225000D02*
X174530000Y-40725000D01*
X174530000Y-49225000D02*
X178530000Y-49225000D01*
X178530000Y-49225000D02*
X178530000Y-47725000D01*
X178530000Y-47725000D02*
X174530000Y-47725000D01*
X174530000Y-47725000D02*
X174530000Y-49225000D01*
%TO.C,J1*%
X153000000Y-102320000D02*
X153000000Y-106100000D01*
X163500000Y-102400000D02*
X163500000Y-106100000D01*
X163500000Y-97100000D02*
X163500000Y-100800000D01*
X153000000Y-106100000D02*
X163500000Y-106100000D01*
X153000000Y-97100000D02*
X153000000Y-100880000D01*
X149850000Y-102830000D02*
X149850000Y-101970000D01*
X153000000Y-97100000D02*
X163500000Y-97100000D01*
X149850000Y-102830000D02*
X150650000Y-102830000D01*
X159300000Y-101600000D02*
G75*
G03*
X159300000Y-101600000I-1800000J0D01*
G01*
%TO.C,J5*%
X178700000Y-114500000D02*
G75*
G03*
X178700000Y-114500000I-1800000J0D01*
G01*
X184550000Y-113270000D02*
X184550000Y-114130000D01*
X181400000Y-110000000D02*
X170900000Y-110000000D01*
X181400000Y-119000000D02*
X170900000Y-119000000D01*
X181400000Y-119000000D02*
X181400000Y-115220000D01*
X181400000Y-113780000D02*
X181400000Y-110000000D01*
X170900000Y-113700000D02*
X170900000Y-110000000D01*
X170900000Y-119000000D02*
X170900000Y-115300000D01*
X184550000Y-113270000D02*
X183750000Y-113270000D01*
%TO.C,R8*%
X170360000Y-70845000D02*
X170360000Y-66179000D01*
X179900000Y-70845000D02*
X182700000Y-70845000D01*
X182700000Y-62270000D02*
X182700000Y-59255000D01*
X177401000Y-70845000D02*
X178160000Y-70845000D01*
X182700000Y-70845000D02*
X182700000Y-66179000D01*
X170360000Y-59255000D02*
X182700000Y-59255000D01*
X170360000Y-62270000D02*
X170360000Y-59255000D01*
X175230000Y-70845000D02*
X175660000Y-70845000D01*
X170360000Y-70845000D02*
X172830000Y-70845000D01*
X174530000Y-60725000D02*
X178530000Y-60725000D01*
X178530000Y-60725000D02*
X178530000Y-59225000D01*
X178530000Y-59225000D02*
X174530000Y-59225000D01*
X174530000Y-59225000D02*
X174530000Y-60725000D01*
X174530000Y-69225000D02*
X178530000Y-69225000D01*
X178530000Y-69225000D02*
X178530000Y-67725000D01*
X178530000Y-67725000D02*
X174530000Y-67725000D01*
X174530000Y-67725000D02*
X174530000Y-69225000D01*
%TO.C,J6*%
X178700000Y-127800000D02*
G75*
G03*
X178700000Y-127800000I-1800000J0D01*
G01*
X170900000Y-127000000D02*
X170900000Y-123300000D01*
X181400000Y-127080000D02*
X181400000Y-123300000D01*
X170900000Y-132300000D02*
X170900000Y-128600000D01*
X184550000Y-126570000D02*
X183750000Y-126570000D01*
X184550000Y-126570000D02*
X184550000Y-127430000D01*
X181400000Y-123300000D02*
X170900000Y-123300000D01*
X181400000Y-132300000D02*
X181400000Y-128520000D01*
X181400000Y-132300000D02*
X170900000Y-132300000D01*
%TO.C,J4*%
X181460000Y-97100000D02*
X170960000Y-97100000D01*
X170960000Y-100800000D02*
X170960000Y-97100000D01*
X181460000Y-106100000D02*
X170960000Y-106100000D01*
X170960000Y-106100000D02*
X170960000Y-102400000D01*
X184610000Y-100370000D02*
X184610000Y-101230000D01*
X181460000Y-106100000D02*
X181460000Y-102320000D01*
X184610000Y-100370000D02*
X183810000Y-100370000D01*
X181460000Y-100880000D02*
X181460000Y-97100000D01*
X178760000Y-101600000D02*
G75*
G03*
X178760000Y-101600000I-1800000J0D01*
G01*
%TO.C,J2*%
X159300000Y-114500000D02*
G75*
G03*
X159300000Y-114500000I-1800000J0D01*
G01*
X149850000Y-115730000D02*
X150650000Y-115730000D01*
X163500000Y-115300000D02*
X163500000Y-119000000D01*
X153000000Y-119000000D02*
X163500000Y-119000000D01*
X153000000Y-110000000D02*
X163500000Y-110000000D01*
X153000000Y-110000000D02*
X153000000Y-113780000D01*
X149850000Y-115730000D02*
X149850000Y-114870000D01*
X163500000Y-110000000D02*
X163500000Y-113700000D01*
X153000000Y-115220000D02*
X153000000Y-119000000D01*
%TO.C,R9*%
X170360000Y-90845000D02*
X172830000Y-90845000D01*
X175230000Y-90845000D02*
X175660000Y-90845000D01*
X182700000Y-90845000D02*
X182700000Y-86179000D01*
X179900000Y-90845000D02*
X182700000Y-90845000D01*
X170360000Y-79255000D02*
X182700000Y-79255000D01*
X182700000Y-82270000D02*
X182700000Y-79255000D01*
X170360000Y-82270000D02*
X170360000Y-79255000D01*
X177401000Y-90845000D02*
X178160000Y-90845000D01*
X170360000Y-90845000D02*
X170360000Y-86179000D01*
X174530000Y-80725000D02*
X178530000Y-80725000D01*
X178530000Y-80725000D02*
X178530000Y-79225000D01*
X178530000Y-79225000D02*
X174530000Y-79225000D01*
X174530000Y-79225000D02*
X174530000Y-80725000D01*
X174530000Y-89225000D02*
X178530000Y-89225000D01*
X178530000Y-89225000D02*
X178530000Y-87725000D01*
X178530000Y-87725000D02*
X174530000Y-87725000D01*
X174530000Y-87725000D02*
X174530000Y-89225000D01*
%TO.C,J3*%
X153200000Y-128520000D02*
X153200000Y-132300000D01*
X153200000Y-123300000D02*
X153200000Y-127080000D01*
X153200000Y-132300000D02*
X163700000Y-132300000D01*
X150050000Y-129030000D02*
X150850000Y-129030000D01*
X163700000Y-128600000D02*
X163700000Y-132300000D01*
X150050000Y-129030000D02*
X150050000Y-128170000D01*
X153200000Y-123300000D02*
X163700000Y-123300000D01*
X163700000Y-123300000D02*
X163700000Y-127000000D01*
X159500000Y-127800000D02*
G75*
G03*
X159500000Y-127800000I-1800000J0D01*
G01*
%TO.C,J8*%
X181400000Y-140280000D02*
X181400000Y-136500000D01*
X170900000Y-140200000D02*
X170900000Y-136500000D01*
X184550000Y-139770000D02*
X184550000Y-140630000D01*
X170900000Y-145500000D02*
X170900000Y-141800000D01*
X181400000Y-145500000D02*
X181400000Y-141720000D01*
X181400000Y-136500000D02*
X170900000Y-136500000D01*
X184550000Y-139770000D02*
X183750000Y-139770000D01*
X181400000Y-145500000D02*
X170900000Y-145500000D01*
X178700000Y-141000000D02*
G75*
G03*
X178700000Y-141000000I-1800000J0D01*
G01*
%TD*%
M02*
