%TF.GenerationSoftware,KiCad,Pcbnew,(6.0.4-0)*%
%TF.CreationDate,2022-12-21T08:50:29-08:00*%
%TF.ProjectId,contact,636f6e74-6163-4742-9e6b-696361645f70,rev?*%
%TF.SameCoordinates,Original*%
%TF.FileFunction,Copper,L2,Bot*%
%TF.FilePolarity,Positive*%
%FSLAX46Y46*%
G04 Gerber Fmt 4.6, Leading zero omitted, Abs format (unit mm)*
G04 Created by KiCad (PCBNEW (6.0.4-0)) date 2022-12-21 08:50:29*
%MOMM*%
%LPD*%
G01*
G04 APERTURE LIST*
G04 Aperture macros list*
%AMRoundRect*
0 Rectangle with rounded corners*
0 $1 Rounding radius*
0 $2 $3 $4 $5 $6 $7 $8 $9 X,Y pos of 4 corners*
0 Add a 4 corners polygon primitive as box body*
4,1,4,$2,$3,$4,$5,$6,$7,$8,$9,$2,$3,0*
0 Add four circle primitives for the rounded corners*
1,1,$1+$1,$2,$3*
1,1,$1+$1,$4,$5*
1,1,$1+$1,$6,$7*
1,1,$1+$1,$8,$9*
0 Add four rect primitives between the rounded corners*
20,1,$1+$1,$2,$3,$4,$5,0*
20,1,$1+$1,$4,$5,$6,$7,0*
20,1,$1+$1,$6,$7,$8,$9,0*
20,1,$1+$1,$8,$9,$2,$3,0*%
G04 Aperture macros list end*
%TA.AperFunction,ComponentPad*%
%ADD10R,1.800000X1.800000*%
%TD*%
%TA.AperFunction,ComponentPad*%
%ADD11C,1.800000*%
%TD*%
%TA.AperFunction,ComponentPad*%
%ADD12RoundRect,0.500000X1.000000X-0.500000X1.000000X0.500000X-1.000000X0.500000X-1.000000X-0.500000X0*%
%TD*%
%TA.AperFunction,ComponentPad*%
%ADD13R,1.830000X1.930000*%
%TD*%
%TA.AperFunction,ComponentPad*%
%ADD14C,2.130000*%
%TD*%
%TA.AperFunction,ComponentPad*%
%ADD15C,2.000000*%
%TD*%
%TA.AperFunction,ComponentPad*%
%ADD16O,1.800000X1.800000*%
%TD*%
%TA.AperFunction,ComponentPad*%
%ADD17C,1.400000*%
%TD*%
%TA.AperFunction,ComponentPad*%
%ADD18O,1.400000X1.400000*%
%TD*%
%TA.AperFunction,ComponentPad*%
%ADD19R,1.600000X1.600000*%
%TD*%
%TA.AperFunction,ComponentPad*%
%ADD20O,1.600000X1.600000*%
%TD*%
%TA.AperFunction,ComponentPad*%
%ADD21R,1.200000X1.200000*%
%TD*%
%TA.AperFunction,ComponentPad*%
%ADD22C,1.200000*%
%TD*%
%TA.AperFunction,ComponentPad*%
%ADD23R,1.700000X1.700000*%
%TD*%
%TA.AperFunction,ComponentPad*%
%ADD24O,1.700000X1.700000*%
%TD*%
%TA.AperFunction,ViaPad*%
%ADD25C,0.800000*%
%TD*%
%TA.AperFunction,Conductor*%
%ADD26C,0.250000*%
%TD*%
%TA.AperFunction,Conductor*%
%ADD27C,0.500000*%
%TD*%
G04 APERTURE END LIST*
D10*
%TO.P,R7,1*%
%TO.N,Net-(R4-Pad2)*%
X174030000Y-51725000D03*
D11*
%TO.P,R7,2*%
%TO.N,Net-(C1-Pad1)*%
X176530000Y-51725000D03*
%TO.P,R7,3*%
%TO.N,N/C*%
X179030000Y-51725000D03*
D12*
%TO.P,R7,MP*%
X181280000Y-44225000D03*
X171780000Y-44225000D03*
%TD*%
D13*
%TO.P,J1,S*%
%TO.N,GND*%
X151020000Y-101600000D03*
D14*
%TO.P,J1,T*%
%TO.N,Net-(D1-Pad2)*%
X162420000Y-101600000D03*
%TO.P,J1,TN*%
%TO.N,N/C*%
X154120000Y-101600000D03*
%TD*%
%TO.P,J5,TN*%
%TO.N,Net-(R16-Pad1)*%
X180280000Y-114500000D03*
%TO.P,J5,T*%
%TO.N,Net-(J5-PadT)*%
X171980000Y-114500000D03*
D13*
%TO.P,J5,S*%
%TO.N,GND*%
X183380000Y-114500000D03*
%TD*%
D10*
%TO.P,R8,1*%
%TO.N,Net-(R5-Pad2)*%
X174030000Y-71725000D03*
D11*
%TO.P,R8,2*%
%TO.N,Net-(C2-Pad1)*%
X176530000Y-71725000D03*
%TO.P,R8,3*%
%TO.N,N/C*%
X179030000Y-71725000D03*
D12*
%TO.P,R8,MP*%
X181280000Y-64225000D03*
X171780000Y-64225000D03*
%TD*%
D14*
%TO.P,J6,TN*%
%TO.N,Net-(R16-Pad1)*%
X180280000Y-127800000D03*
%TO.P,J6,T*%
%TO.N,Net-(J6-PadT)*%
X171980000Y-127800000D03*
D13*
%TO.P,J6,S*%
%TO.N,GND*%
X183380000Y-127800000D03*
%TD*%
%TO.P,J4,S*%
%TO.N,GND*%
X183440000Y-101600000D03*
D14*
%TO.P,J4,T*%
%TO.N,Net-(J4-PadT)*%
X172040000Y-101600000D03*
%TO.P,J4,TN*%
%TO.N,Net-(R16-Pad1)*%
X180340000Y-101600000D03*
%TD*%
%TO.P,J2,TN*%
%TO.N,N/C*%
X154120000Y-114500000D03*
%TO.P,J2,T*%
%TO.N,Net-(D3-Pad2)*%
X162420000Y-114500000D03*
D13*
%TO.P,J2,S*%
%TO.N,GND*%
X151020000Y-114500000D03*
%TD*%
D10*
%TO.P,R9,1*%
%TO.N,Net-(R6-Pad2)*%
X174030000Y-91725000D03*
D11*
%TO.P,R9,2*%
%TO.N,Net-(C3-Pad1)*%
X176530000Y-91725000D03*
%TO.P,R9,3*%
%TO.N,N/C*%
X179030000Y-91725000D03*
D12*
%TO.P,R9,MP*%
X171780000Y-84225000D03*
X181280000Y-84225000D03*
%TD*%
D13*
%TO.P,J3,S*%
%TO.N,GND*%
X151220000Y-127800000D03*
D14*
%TO.P,J3,T*%
%TO.N,Net-(D5-Pad2)*%
X162620000Y-127800000D03*
%TO.P,J3,TN*%
%TO.N,N/C*%
X154320000Y-127800000D03*
%TD*%
D13*
%TO.P,J8,S*%
%TO.N,GND*%
X183380000Y-141000000D03*
D14*
%TO.P,J8,T*%
%TO.N,Net-(J8-PadT)*%
X171980000Y-141000000D03*
%TO.P,J8,TN*%
%TO.N,N/C*%
X180280000Y-141000000D03*
%TD*%
D15*
%TO.P,C5,1*%
%TO.N,-12V*%
X165100000Y-73720000D03*
%TO.P,C5,2*%
%TO.N,GND*%
X165100000Y-81220000D03*
%TD*%
D10*
%TO.P,D1,1,K*%
%TO.N,+12V*%
X149225000Y-107800000D03*
D16*
%TO.P,D1,2,A*%
%TO.N,Net-(D1-Pad2)*%
X156845000Y-107800000D03*
%TD*%
D17*
%TO.P,R1,1*%
%TO.N,GND*%
X165100000Y-99700000D03*
D18*
%TO.P,R1,2*%
%TO.N,Net-(D1-Pad2)*%
X165100000Y-101600000D03*
%TD*%
D17*
%TO.P,R10,1*%
%TO.N,Net-(C1-Pad2)*%
X173985000Y-94615000D03*
D18*
%TO.P,R10,2*%
%TO.N,Net-(J4-PadT)*%
X172085000Y-94615000D03*
%TD*%
D17*
%TO.P,R4,1*%
%TO.N,Net-(D1-Pad2)*%
X162000000Y-57000000D03*
D18*
%TO.P,R4,2*%
%TO.N,Net-(R4-Pad2)*%
X163900000Y-57000000D03*
%TD*%
D19*
%TO.P,U1,1*%
%TO.N,Net-(C1-Pad1)*%
X154305000Y-81280000D03*
D20*
%TO.P,U1,2,-*%
%TO.N,Net-(R4-Pad2)*%
X154305000Y-78740000D03*
%TO.P,U1,3,+*%
%TO.N,GND*%
X154305000Y-76200000D03*
%TO.P,U1,4,V+*%
%TO.N,+12V*%
X154305000Y-73660000D03*
%TO.P,U1,5,+*%
%TO.N,GND*%
X154305000Y-71120000D03*
%TO.P,U1,6,-*%
%TO.N,Net-(R5-Pad2)*%
X154305000Y-68580000D03*
%TO.P,U1,7*%
%TO.N,Net-(C2-Pad1)*%
X154305000Y-66040000D03*
%TO.P,U1,8*%
%TO.N,Net-(C3-Pad1)*%
X161925000Y-66040000D03*
%TO.P,U1,9,-*%
%TO.N,Net-(R6-Pad2)*%
X161925000Y-68580000D03*
%TO.P,U1,10,+*%
%TO.N,GND*%
X161925000Y-71120000D03*
%TO.P,U1,11,V-*%
%TO.N,-12V*%
X161925000Y-73660000D03*
%TO.P,U1,12,+*%
%TO.N,GND*%
X161925000Y-76200000D03*
%TO.P,U1,13,-*%
%TO.N,Net-(R16-Pad1)*%
X161925000Y-78740000D03*
%TO.P,U1,14*%
%TO.N,Net-(C6-Pad1)*%
X161925000Y-81280000D03*
%TD*%
D17*
%TO.P,R5,1*%
%TO.N,Net-(D3-Pad2)*%
X173995000Y-75100000D03*
D18*
%TO.P,R5,2*%
%TO.N,Net-(R5-Pad2)*%
X175895000Y-75100000D03*
%TD*%
D17*
%TO.P,R11,1*%
%TO.N,Net-(C2-Pad2)*%
X173905000Y-107700000D03*
D18*
%TO.P,R11,2*%
%TO.N,Net-(J5-PadT)*%
X172005000Y-107700000D03*
%TD*%
D15*
%TO.P,C4,1*%
%TO.N,+12V*%
X150495000Y-73720000D03*
%TO.P,C4,2*%
%TO.N,GND*%
X150495000Y-81220000D03*
%TD*%
D10*
%TO.P,D5,1,K*%
%TO.N,+12V*%
X149225000Y-134500000D03*
D16*
%TO.P,D5,2,A*%
%TO.N,Net-(D5-Pad2)*%
X156845000Y-134500000D03*
%TD*%
D21*
%TO.P,C2,1*%
%TO.N,Net-(C2-Pad1)*%
X185022600Y-107700000D03*
D22*
%TO.P,C2,2*%
%TO.N,Net-(C2-Pad2)*%
X183522600Y-107700000D03*
%TD*%
D17*
%TO.P,R17,1*%
%TO.N,Net-(C6-Pad2)*%
X173985000Y-134400000D03*
D18*
%TO.P,R17,2*%
%TO.N,Net-(J8-PadT)*%
X172085000Y-134400000D03*
%TD*%
D10*
%TO.P,D2,1,K*%
%TO.N,Net-(D1-Pad2)*%
X160020000Y-107800000D03*
D16*
%TO.P,D2,2,A*%
%TO.N,-12V*%
X167640000Y-107800000D03*
%TD*%
D10*
%TO.P,D6,1,K*%
%TO.N,Net-(D5-Pad2)*%
X160020000Y-134500000D03*
D16*
%TO.P,D6,2,A*%
%TO.N,-12V*%
X167640000Y-134500000D03*
%TD*%
D21*
%TO.P,C6,1*%
%TO.N,Net-(C6-Pad1)*%
X184922600Y-134500000D03*
D22*
%TO.P,C6,2*%
%TO.N,Net-(C6-Pad2)*%
X183422600Y-134500000D03*
%TD*%
D17*
%TO.P,R6,1*%
%TO.N,Net-(D5-Pad2)*%
X168100000Y-91505000D03*
D18*
%TO.P,R6,2*%
%TO.N,Net-(R6-Pad2)*%
X168100000Y-89605000D03*
%TD*%
D21*
%TO.P,C1,1*%
%TO.N,Net-(C1-Pad1)*%
X185122600Y-94600000D03*
D22*
%TO.P,C1,2*%
%TO.N,Net-(C1-Pad2)*%
X183622600Y-94600000D03*
%TD*%
D21*
%TO.P,C3,1*%
%TO.N,Net-(C3-Pad1)*%
X184922600Y-120700000D03*
D22*
%TO.P,C3,2*%
%TO.N,Net-(C3-Pad2)*%
X183422600Y-120700000D03*
%TD*%
D23*
%TO.P,J7,1,Pin_1*%
%TO.N,+12V*%
X152925000Y-140125000D03*
D24*
%TO.P,J7,2,Pin_2*%
X152925000Y-142665000D03*
%TO.P,J7,3,Pin_3*%
%TO.N,GND*%
X155465000Y-140125000D03*
%TO.P,J7,4,Pin_4*%
X155465000Y-142665000D03*
%TO.P,J7,5,Pin_5*%
X158005000Y-140125000D03*
%TO.P,J7,6,Pin_6*%
X158005000Y-142665000D03*
%TO.P,J7,7,Pin_7*%
X160545000Y-140125000D03*
%TO.P,J7,8,Pin_8*%
X160545000Y-142665000D03*
%TO.P,J7,9,Pin_9*%
%TO.N,-12V*%
X163085000Y-140125000D03*
%TO.P,J7,10,Pin_10*%
X163085000Y-142665000D03*
%TD*%
D17*
%TO.P,R16,1*%
%TO.N,Net-(R16-Pad1)*%
X160025000Y-84455000D03*
D18*
%TO.P,R16,2*%
%TO.N,Net-(C6-Pad1)*%
X161925000Y-84455000D03*
%TD*%
D17*
%TO.P,R2,1*%
%TO.N,GND*%
X165100000Y-112495000D03*
D18*
%TO.P,R2,2*%
%TO.N,Net-(D3-Pad2)*%
X165100000Y-114395000D03*
%TD*%
D17*
%TO.P,R12,1*%
%TO.N,Net-(C3-Pad2)*%
X173705000Y-120800000D03*
D18*
%TO.P,R12,2*%
%TO.N,Net-(J6-PadT)*%
X171805000Y-120800000D03*
%TD*%
D10*
%TO.P,D3,1,K*%
%TO.N,+12V*%
X149290000Y-121100000D03*
D16*
%TO.P,D3,2,A*%
%TO.N,Net-(D3-Pad2)*%
X156910000Y-121100000D03*
%TD*%
D10*
%TO.P,D4,1,K*%
%TO.N,Net-(D3-Pad2)*%
X160020000Y-121100000D03*
D16*
%TO.P,D4,2,A*%
%TO.N,-12V*%
X167640000Y-121100000D03*
%TD*%
D17*
%TO.P,R3,1*%
%TO.N,GND*%
X165100000Y-126595000D03*
D18*
%TO.P,R3,2*%
%TO.N,Net-(D5-Pad2)*%
X165100000Y-128495000D03*
%TD*%
D25*
%TO.N,Net-(R16-Pad1)*%
X168000000Y-94000000D03*
%TD*%
D26*
%TO.N,Net-(C1-Pad1)*%
X185420000Y-94615000D02*
X185420000Y-59420000D01*
X185420000Y-59420000D02*
X182000000Y-56000000D01*
X182000000Y-56000000D02*
X180100000Y-56000000D01*
X180100000Y-56000000D02*
X176530000Y-52430000D01*
X176530000Y-52430000D02*
X176530000Y-51725000D01*
X176530000Y-51725000D02*
X176530000Y-52470000D01*
X157480000Y-79248000D02*
X155448000Y-81280000D01*
X167405000Y-61595000D02*
X161290000Y-61595000D01*
X161290000Y-61595000D02*
X157480000Y-65405000D01*
X176530000Y-52470000D02*
X167405000Y-61595000D01*
X157480000Y-65405000D02*
X157480000Y-79248000D01*
X155448000Y-81280000D02*
X154305000Y-81280000D01*
D27*
%TO.N,-12V*%
X167640000Y-107800000D02*
X168148000Y-107292000D01*
X166000000Y-94200000D02*
X166000000Y-88000000D01*
X168148000Y-107292000D02*
X168148000Y-96348000D01*
X168148000Y-96348000D02*
X166000000Y-94200000D01*
X166000000Y-88000000D02*
X168148000Y-85852000D01*
X168148000Y-85852000D02*
X168148000Y-76768000D01*
X168148000Y-76768000D02*
X165100000Y-73720000D01*
D26*
%TO.N,Net-(D3-Pad2)*%
X162420000Y-114500000D02*
X162420000Y-107980000D01*
X162420000Y-107980000D02*
X167100000Y-103300000D01*
X167100000Y-103300000D02*
X167100000Y-97850000D01*
X167100000Y-97850000D02*
X158700000Y-89450000D01*
X158700000Y-89450000D02*
X158700000Y-66400000D01*
X158700000Y-66400000D02*
X161400000Y-63700000D01*
X161400000Y-63700000D02*
X162595000Y-63700000D01*
X162595000Y-63700000D02*
X173995000Y-75100000D01*
%TO.N,Net-(C3-Pad1)*%
X184922600Y-120700000D02*
X185300000Y-120322600D01*
X185300000Y-120322600D02*
X185300000Y-111000000D01*
X185300000Y-111000000D02*
X186300000Y-110000000D01*
X186300000Y-105400000D02*
X185420000Y-104520000D01*
X186300000Y-110000000D02*
X186300000Y-105400000D01*
X185420000Y-104520000D02*
X185420000Y-99695000D01*
X185420000Y-99695000D02*
X180325000Y-94600000D01*
X180325000Y-94600000D02*
X178300000Y-94600000D01*
X178300000Y-94600000D02*
X176530000Y-92830000D01*
X176530000Y-92830000D02*
X176530000Y-91725000D01*
D27*
%TO.N,GND*%
X183440000Y-101600000D02*
X183440000Y-104160000D01*
X183300000Y-111322500D02*
X183300000Y-117456250D01*
X183440000Y-104160000D02*
X181610000Y-105990000D01*
X181610000Y-109632500D02*
X183300000Y-111322500D01*
X181610000Y-105990000D02*
X181610000Y-109632500D01*
X183300000Y-117456250D02*
X181610000Y-119146250D01*
X181610000Y-119146250D02*
X181610000Y-122210000D01*
X181610000Y-122210000D02*
X183440000Y-124040000D01*
X183440000Y-124040000D02*
X183440000Y-130596250D01*
X183440000Y-130596250D02*
X181610000Y-132426250D01*
X181610000Y-132426250D02*
X181610000Y-137795000D01*
X181610000Y-137795000D02*
X183580000Y-139765000D01*
X183580000Y-139765000D02*
X183580000Y-142420000D01*
X183580000Y-142420000D02*
X180600000Y-145400000D01*
X180600000Y-145400000D02*
X162100000Y-145400000D01*
X162100000Y-145400000D02*
X160545000Y-143845000D01*
X160545000Y-143845000D02*
X160545000Y-142665000D01*
D26*
%TO.N,Net-(R4-Pad2)*%
X163900000Y-57000000D02*
X163900000Y-58900000D01*
X163900000Y-58900000D02*
X163100000Y-59700000D01*
X154305000Y-78740000D02*
X155448000Y-78740000D01*
X161200000Y-59700000D02*
X163100000Y-59700000D01*
X155448000Y-78740000D02*
X156210000Y-77978000D01*
X156210000Y-77978000D02*
X156210000Y-64690000D01*
X156210000Y-64690000D02*
X161200000Y-59700000D01*
%TO.N,Net-(R6-Pad2)*%
X174030000Y-91725000D02*
X173905000Y-91600000D01*
X173905000Y-91600000D02*
X172200000Y-91600000D01*
X172200000Y-91600000D02*
X170205000Y-89605000D01*
X170205000Y-89605000D02*
X168100000Y-89605000D01*
D27*
%TO.N,-12V*%
X163085000Y-140125000D02*
X164285000Y-140125000D01*
X164285000Y-140125000D02*
X167640000Y-136770000D01*
X167640000Y-136770000D02*
X167640000Y-107800000D01*
D26*
%TO.N,Net-(R16-Pad1)*%
X180180000Y-127700000D02*
X180180000Y-115590000D01*
X180180000Y-115590000D02*
X180340000Y-115430000D01*
X180340000Y-115430000D02*
X180340000Y-101600000D01*
X180340000Y-101600000D02*
X177540000Y-98800000D01*
X177540000Y-98800000D02*
X172800000Y-98800000D01*
X172800000Y-98800000D02*
X168000000Y-94000000D01*
D27*
%TO.N,-12V*%
X165100000Y-73720000D02*
X161985000Y-73720000D01*
X161985000Y-73720000D02*
X161925000Y-73660000D01*
D26*
%TO.N,Net-(D1-Pad2)*%
X160962350Y-57000000D02*
X152400000Y-65562350D01*
X162420000Y-101460000D02*
X152400000Y-91440000D01*
X162420000Y-101600000D02*
X162420000Y-101460000D01*
X152400000Y-91440000D02*
X152400000Y-65562350D01*
X162000000Y-57000000D02*
X160962350Y-57000000D01*
%TD*%
M02*
