M48
; DRILL file {KiCad (6.0.4-0)} date Wednesday, December 21, 2022 at 08:50:33 AM
; FORMAT={-:-/ absolute / metric / decimal}
; #@! TF.CreationDate,2022-12-21T08:50:33-08:00
; #@! TF.GenerationSoftware,Kicad,Pcbnew,(6.0.4-0)
; #@! TF.FileFunction,Plated,1,2,PTH
FMAT,2
METRIC
; #@! TA.AperFunction,Plated,PTH,ViaDrill
T1C0.400
; #@! TA.AperFunction,Plated,PTH,ComponentDrill
T2C0.600
; #@! TA.AperFunction,Plated,PTH,ComponentDrill
T3C0.700
; #@! TA.AperFunction,Plated,PTH,ComponentDrill
T4C0.800
; #@! TA.AperFunction,Plated,PTH,ComponentDrill
T5C0.900
; #@! TA.AperFunction,Plated,PTH,ComponentDrill
T6C1.000
; #@! TA.AperFunction,Plated,PTH,ComponentDrill
T7C1.100
; #@! TA.AperFunction,Plated,PTH,ComponentDrill
T8C1.220
; #@! TA.AperFunction,Plated,PTH,ComponentDrill
T9C1.420
; #@! TA.AperFunction,Plated,PTH,ComponentDrill
T10C1.430
%
G90
G05
T1
X168.0Y-94.0
T2
X183.423Y-120.7
X183.423Y-134.5
X183.523Y-107.7
X183.623Y-94.6
X184.923Y-120.7
X184.923Y-134.5
X185.023Y-107.7
X185.123Y-94.6
T3
X160.025Y-84.455
X161.925Y-84.455
X162.0Y-57.0
X163.9Y-57.0
X165.1Y-99.7
X165.1Y-101.6
X165.1Y-112.495
X165.1Y-114.395
X165.1Y-126.595
X165.1Y-128.495
X168.1Y-89.605
X168.1Y-91.505
X171.805Y-120.8
X172.005Y-107.7
X172.085Y-94.615
X172.085Y-134.4
X173.705Y-120.8
X173.905Y-107.7
X173.985Y-94.615
X173.985Y-134.4
X173.995Y-75.1
X175.895Y-75.1
T4
X154.305Y-66.04
X154.305Y-68.58
X154.305Y-71.12
X154.305Y-73.66
X154.305Y-76.2
X154.305Y-78.74
X154.305Y-81.28
X161.925Y-66.04
X161.925Y-68.58
X161.925Y-71.12
X161.925Y-73.66
X161.925Y-76.2
X161.925Y-78.74
X161.925Y-81.28
T5
X149.225Y-107.8
X149.225Y-134.5
X149.29Y-121.1
X156.845Y-107.8
X156.845Y-134.5
X156.91Y-121.1
X160.02Y-107.8
X160.02Y-121.1
X160.02Y-134.5
X167.64Y-107.8
X167.64Y-121.1
X167.64Y-134.5
T6
X150.495Y-73.72
X150.495Y-81.22
X152.925Y-140.125
X152.925Y-142.665
X155.465Y-140.125
X155.465Y-142.665
X158.005Y-140.125
X158.005Y-142.665
X160.545Y-140.125
X160.545Y-142.665
X163.085Y-140.125
X163.085Y-142.665
X165.1Y-73.72
X165.1Y-81.22
X174.03Y-51.725
X174.03Y-71.725
X174.03Y-91.725
X176.53Y-51.725
X176.53Y-71.725
X176.53Y-91.725
X179.03Y-51.725
X179.03Y-71.725
X179.03Y-91.725
T8
X151.02Y-101.6
X151.02Y-114.5
X151.22Y-127.8
X183.38Y-114.5
X183.38Y-127.8
X183.38Y-141.0
X183.44Y-101.6
T9
X154.12Y-101.6
X154.12Y-114.5
X154.32Y-127.8
X180.28Y-114.5
X180.28Y-127.8
X180.28Y-141.0
X180.34Y-101.6
T10
X162.42Y-101.6
X162.42Y-114.5
X162.62Y-127.8
X171.98Y-114.5
X171.98Y-127.8
X171.98Y-141.0
X172.04Y-101.6
T7
G00X171.43Y-44.225
M15
G01X172.13Y-44.225
M16
G05
G00X171.43Y-64.225
M15
G01X172.13Y-64.225
M16
G05
G00X171.43Y-84.225
M15
G01X172.13Y-84.225
M16
G05
G00X180.93Y-44.225
M15
G01X181.63Y-44.225
M16
G05
G00X180.93Y-64.225
M15
G01X181.63Y-64.225
M16
G05
G00X180.93Y-84.225
M15
G01X181.63Y-84.225
M16
G05
T0
M30
