M48
; DRILL file {KiCad (6.0.4-0)} date Tuesday, December 20, 2022 at 07:59:45 AM
; FORMAT={-:-/ absolute / metric / decimal}
; #@! TF.CreationDate,2022-12-20T07:59:45-08:00
; #@! TF.GenerationSoftware,Kicad,Pcbnew,(6.0.4-0)
; #@! TF.FileFunction,Plated,1,2,PTH
FMAT,2
METRIC
; #@! TA.AperFunction,Plated,PTH,ViaDrill
T1C0.400
; #@! TA.AperFunction,Plated,PTH,ComponentDrill
T2C0.700
; #@! TA.AperFunction,Plated,PTH,ComponentDrill
T3C0.800
; #@! TA.AperFunction,Plated,PTH,ComponentDrill
T4C0.900
; #@! TA.AperFunction,Plated,PTH,ComponentDrill
T5C1.000
; #@! TA.AperFunction,Plated,PTH,ComponentDrill
T6C1.220
; #@! TA.AperFunction,Plated,PTH,ComponentDrill
T7C1.420
; #@! TA.AperFunction,Plated,PTH,ComponentDrill
T8C1.430
; #@! TA.AperFunction,Plated,PTH,ComponentDrill
T9C1.500
; #@! TA.AperFunction,Plated,PTH,ComponentDrill
T10C1.800
%
G90
G05
T1
X179.705Y-56.515
T2
X179.345Y-90.805
X179.705Y-113.665
X179.705Y-115.565
X181.245Y-90.805
X189.23Y-93.98
X191.13Y-93.98
X192.0Y-102.0
X192.0Y-103.9
T3
X179.705Y-48.3
X179.705Y-53.3
X179.705Y-106.085
X179.705Y-111.085
X179.745Y-78.105
X181.61Y-93.98
X182.89Y-48.27
X182.89Y-55.89
X183.765Y-86.995
X184.745Y-78.105
X185.43Y-48.27
X185.43Y-55.89
X185.765Y-86.995
X186.61Y-93.98
X187.765Y-86.995
X187.97Y-48.27
X187.97Y-55.89
X190.5Y-73.7
X190.5Y-78.7
X190.51Y-48.27
X190.51Y-55.89
X191.135Y-40.68
X191.135Y-45.68
T4
X179.705Y-74.295
X182.88Y-81.915
X187.325Y-74.295
X190.5Y-81.915
T5
X182.92Y-70.82
X184.78Y-34.285
X184.78Y-36.825
X184.78Y-39.365
X184.78Y-41.905
X184.78Y-44.445
X185.42Y-70.82
X187.32Y-34.285
X187.32Y-36.825
X187.32Y-39.365
X187.32Y-41.905
X187.32Y-44.445
X187.92Y-70.82
T6
X186.055Y-108.65
X186.055Y-124.525
T7
X186.055Y-105.55
X186.055Y-121.425
T8
X186.055Y-97.25
X186.055Y-113.125
T9
X181.665Y-86.995
X189.865Y-86.995
T10
G00X181.02Y-63.97
M15
G01X181.02Y-63.67
M16
G05
G00X189.82Y-63.97
M15
G01X189.82Y-63.67
M16
G05
T0
M30
