%TF.GenerationSoftware,KiCad,Pcbnew,(6.0.4-0)*%
%TF.CreationDate,2022-12-20T07:59:27-08:00*%
%TF.ProjectId,slutch,736c7574-6368-42e6-9b69-6361645f7063,rev?*%
%TF.SameCoordinates,Original*%
%TF.FileFunction,Legend,Bot*%
%TF.FilePolarity,Positive*%
%FSLAX46Y46*%
G04 Gerber Fmt 4.6, Leading zero omitted, Abs format (unit mm)*
G04 Created by KiCad (PCBNEW (6.0.4-0)) date 2022-12-20 07:59:27*
%MOMM*%
%LPD*%
G01*
G04 APERTURE LIST*
%ADD10C,0.150000*%
%ADD11C,0.120000*%
G04 APERTURE END LIST*
D10*
X192468333Y-33726428D02*
X191706428Y-33726428D01*
X190706428Y-34107380D02*
X191277857Y-34107380D01*
X190992142Y-34107380D02*
X190992142Y-33107380D01*
X191087380Y-33250238D01*
X191182619Y-33345476D01*
X191277857Y-33393095D01*
X190325476Y-33202619D02*
X190277857Y-33155000D01*
X190182619Y-33107380D01*
X189944523Y-33107380D01*
X189849285Y-33155000D01*
X189801666Y-33202619D01*
X189754047Y-33297857D01*
X189754047Y-33393095D01*
X189801666Y-33535952D01*
X190373095Y-34107380D01*
X189754047Y-34107380D01*
X182308333Y-45156428D02*
X181546428Y-45156428D01*
X181927380Y-45537380D02*
X181927380Y-44775476D01*
X180546428Y-45537380D02*
X181117857Y-45537380D01*
X180832142Y-45537380D02*
X180832142Y-44537380D01*
X180927380Y-44680238D01*
X181022619Y-44775476D01*
X181117857Y-44823095D01*
X180165476Y-44632619D02*
X180117857Y-44585000D01*
X180022619Y-44537380D01*
X179784523Y-44537380D01*
X179689285Y-44585000D01*
X179641666Y-44632619D01*
X179594047Y-44727857D01*
X179594047Y-44823095D01*
X179641666Y-44965952D01*
X180213095Y-45537380D01*
X179594047Y-45537380D01*
%TO.C,R5*%
X190532380Y-102783333D02*
X190056190Y-102450000D01*
X190532380Y-102211904D02*
X189532380Y-102211904D01*
X189532380Y-102592857D01*
X189580000Y-102688095D01*
X189627619Y-102735714D01*
X189722857Y-102783333D01*
X189865714Y-102783333D01*
X189960952Y-102735714D01*
X190008571Y-102688095D01*
X190056190Y-102592857D01*
X190056190Y-102211904D01*
X189532380Y-103688095D02*
X189532380Y-103211904D01*
X190008571Y-103164285D01*
X189960952Y-103211904D01*
X189913333Y-103307142D01*
X189913333Y-103545238D01*
X189960952Y-103640476D01*
X190008571Y-103688095D01*
X190103809Y-103735714D01*
X190341904Y-103735714D01*
X190437142Y-103688095D01*
X190484761Y-103640476D01*
X190532380Y-103545238D01*
X190532380Y-103307142D01*
X190484761Y-103211904D01*
X190437142Y-103164285D01*
X192452380Y-105928571D02*
X192452380Y-105357142D01*
X192452380Y-105642857D02*
X191452380Y-105642857D01*
X191595238Y-105547619D01*
X191690476Y-105452380D01*
X191738095Y-105357142D01*
X191452380Y-106547619D02*
X191452380Y-106642857D01*
X191500000Y-106738095D01*
X191547619Y-106785714D01*
X191642857Y-106833333D01*
X191833333Y-106880952D01*
X192071428Y-106880952D01*
X192261904Y-106833333D01*
X192357142Y-106785714D01*
X192404761Y-106738095D01*
X192452380Y-106642857D01*
X192452380Y-106547619D01*
X192404761Y-106452380D01*
X192357142Y-106404761D01*
X192261904Y-106357142D01*
X192071428Y-106309523D01*
X191833333Y-106309523D01*
X191642857Y-106357142D01*
X191547619Y-106404761D01*
X191500000Y-106452380D01*
X191452380Y-106547619D01*
X191452380Y-107500000D02*
X191452380Y-107595238D01*
X191500000Y-107690476D01*
X191547619Y-107738095D01*
X191642857Y-107785714D01*
X191833333Y-107833333D01*
X192071428Y-107833333D01*
X192261904Y-107785714D01*
X192357142Y-107738095D01*
X192404761Y-107690476D01*
X192452380Y-107595238D01*
X192452380Y-107500000D01*
X192404761Y-107404761D01*
X192357142Y-107357142D01*
X192261904Y-107309523D01*
X192071428Y-107261904D01*
X191833333Y-107261904D01*
X191642857Y-107309523D01*
X191547619Y-107357142D01*
X191500000Y-107404761D01*
X191452380Y-107500000D01*
X192452380Y-108261904D02*
X191452380Y-108261904D01*
X192071428Y-108357142D02*
X192452380Y-108642857D01*
X191785714Y-108642857D02*
X192166666Y-108261904D01*
%TO.C,C1*%
X184276666Y-94337142D02*
X184324285Y-94384761D01*
X184467142Y-94432380D01*
X184562380Y-94432380D01*
X184705238Y-94384761D01*
X184800476Y-94289523D01*
X184848095Y-94194285D01*
X184895714Y-94003809D01*
X184895714Y-93860952D01*
X184848095Y-93670476D01*
X184800476Y-93575238D01*
X184705238Y-93480000D01*
X184562380Y-93432380D01*
X184467142Y-93432380D01*
X184324285Y-93480000D01*
X184276666Y-93527619D01*
X183324285Y-94432380D02*
X183895714Y-94432380D01*
X183610000Y-94432380D02*
X183610000Y-93432380D01*
X183705238Y-93575238D01*
X183800476Y-93670476D01*
X183895714Y-93718095D01*
%TO.C,R4*%
X180157380Y-117308333D02*
X179681190Y-116975000D01*
X180157380Y-116736904D02*
X179157380Y-116736904D01*
X179157380Y-117117857D01*
X179205000Y-117213095D01*
X179252619Y-117260714D01*
X179347857Y-117308333D01*
X179490714Y-117308333D01*
X179585952Y-117260714D01*
X179633571Y-117213095D01*
X179681190Y-117117857D01*
X179681190Y-116736904D01*
X179490714Y-118165476D02*
X180157380Y-118165476D01*
X179109761Y-117927380D02*
X179824047Y-117689285D01*
X179824047Y-118308333D01*
%TO.C,D1*%
X188063095Y-82367380D02*
X188063095Y-81367380D01*
X187825000Y-81367380D01*
X187682142Y-81415000D01*
X187586904Y-81510238D01*
X187539285Y-81605476D01*
X187491666Y-81795952D01*
X187491666Y-81938809D01*
X187539285Y-82129285D01*
X187586904Y-82224523D01*
X187682142Y-82319761D01*
X187825000Y-82367380D01*
X188063095Y-82367380D01*
X186539285Y-82367380D02*
X187110714Y-82367380D01*
X186825000Y-82367380D02*
X186825000Y-81367380D01*
X186920238Y-81510238D01*
X187015476Y-81605476D01*
X187110714Y-81653095D01*
%TO.C,R3*%
X179236666Y-89352380D02*
X179570000Y-88876190D01*
X179808095Y-89352380D02*
X179808095Y-88352380D01*
X179427142Y-88352380D01*
X179331904Y-88400000D01*
X179284285Y-88447619D01*
X179236666Y-88542857D01*
X179236666Y-88685714D01*
X179284285Y-88780952D01*
X179331904Y-88828571D01*
X179427142Y-88876190D01*
X179808095Y-88876190D01*
X178903333Y-88352380D02*
X178284285Y-88352380D01*
X178617619Y-88733333D01*
X178474761Y-88733333D01*
X178379523Y-88780952D01*
X178331904Y-88828571D01*
X178284285Y-88923809D01*
X178284285Y-89161904D01*
X178331904Y-89257142D01*
X178379523Y-89304761D01*
X178474761Y-89352380D01*
X178760476Y-89352380D01*
X178855714Y-89304761D01*
X178903333Y-89257142D01*
%TO.C,R1*%
X190031666Y-96337380D02*
X190365000Y-95861190D01*
X190603095Y-96337380D02*
X190603095Y-95337380D01*
X190222142Y-95337380D01*
X190126904Y-95385000D01*
X190079285Y-95432619D01*
X190031666Y-95527857D01*
X190031666Y-95670714D01*
X190079285Y-95765952D01*
X190126904Y-95813571D01*
X190222142Y-95861190D01*
X190603095Y-95861190D01*
X189079285Y-96337380D02*
X189650714Y-96337380D01*
X189365000Y-96337380D02*
X189365000Y-95337380D01*
X189460238Y-95480238D01*
X189555476Y-95575476D01*
X189650714Y-95623095D01*
X190299047Y-92512380D02*
X190870476Y-92512380D01*
X190584761Y-92512380D02*
X190584761Y-91512380D01*
X190680000Y-91655238D01*
X190775238Y-91750476D01*
X190870476Y-91798095D01*
X189870476Y-92512380D02*
X189870476Y-91512380D01*
X189775238Y-92131428D02*
X189489523Y-92512380D01*
X189489523Y-91845714D02*
X189870476Y-92226666D01*
%TO.C,C4*%
X190857142Y-76033333D02*
X190904761Y-75985714D01*
X190952380Y-75842857D01*
X190952380Y-75747619D01*
X190904761Y-75604761D01*
X190809523Y-75509523D01*
X190714285Y-75461904D01*
X190523809Y-75414285D01*
X190380952Y-75414285D01*
X190190476Y-75461904D01*
X190095238Y-75509523D01*
X190000000Y-75604761D01*
X189952380Y-75747619D01*
X189952380Y-75842857D01*
X190000000Y-75985714D01*
X190047619Y-76033333D01*
X190285714Y-76890476D02*
X190952380Y-76890476D01*
X189904761Y-76652380D02*
X190619047Y-76414285D01*
X190619047Y-77033333D01*
%TO.C,C2*%
X180062142Y-50633333D02*
X180109761Y-50585714D01*
X180157380Y-50442857D01*
X180157380Y-50347619D01*
X180109761Y-50204761D01*
X180014523Y-50109523D01*
X179919285Y-50061904D01*
X179728809Y-50014285D01*
X179585952Y-50014285D01*
X179395476Y-50061904D01*
X179300238Y-50109523D01*
X179205000Y-50204761D01*
X179157380Y-50347619D01*
X179157380Y-50442857D01*
X179205000Y-50585714D01*
X179252619Y-50633333D01*
X179252619Y-51014285D02*
X179205000Y-51061904D01*
X179157380Y-51157142D01*
X179157380Y-51395238D01*
X179205000Y-51490476D01*
X179252619Y-51538095D01*
X179347857Y-51585714D01*
X179443095Y-51585714D01*
X179585952Y-51538095D01*
X180157380Y-50966666D01*
X180157380Y-51585714D01*
%TO.C,C6*%
X180062142Y-108418333D02*
X180109761Y-108370714D01*
X180157380Y-108227857D01*
X180157380Y-108132619D01*
X180109761Y-107989761D01*
X180014523Y-107894523D01*
X179919285Y-107846904D01*
X179728809Y-107799285D01*
X179585952Y-107799285D01*
X179395476Y-107846904D01*
X179300238Y-107894523D01*
X179205000Y-107989761D01*
X179157380Y-108132619D01*
X179157380Y-108227857D01*
X179205000Y-108370714D01*
X179252619Y-108418333D01*
X179157380Y-109275476D02*
X179157380Y-109085000D01*
X179205000Y-108989761D01*
X179252619Y-108942142D01*
X179395476Y-108846904D01*
X179585952Y-108799285D01*
X179966904Y-108799285D01*
X180062142Y-108846904D01*
X180109761Y-108894523D01*
X180157380Y-108989761D01*
X180157380Y-109180238D01*
X180109761Y-109275476D01*
X180062142Y-109323095D01*
X179966904Y-109370714D01*
X179728809Y-109370714D01*
X179633571Y-109323095D01*
X179585952Y-109275476D01*
X179538333Y-109180238D01*
X179538333Y-108989761D01*
X179585952Y-108894523D01*
X179633571Y-108846904D01*
X179728809Y-108799285D01*
X181752619Y-107339047D02*
X181705000Y-107386666D01*
X181657380Y-107481904D01*
X181657380Y-107720000D01*
X181705000Y-107815238D01*
X181752619Y-107862857D01*
X181847857Y-107910476D01*
X181943095Y-107910476D01*
X182085952Y-107862857D01*
X182657380Y-107291428D01*
X182657380Y-107910476D01*
X182562142Y-108339047D02*
X182609761Y-108386666D01*
X182657380Y-108339047D01*
X182609761Y-108291428D01*
X182562142Y-108339047D01*
X182657380Y-108339047D01*
X181752619Y-108767619D02*
X181705000Y-108815238D01*
X181657380Y-108910476D01*
X181657380Y-109148571D01*
X181705000Y-109243809D01*
X181752619Y-109291428D01*
X181847857Y-109339047D01*
X181943095Y-109339047D01*
X182085952Y-109291428D01*
X182657380Y-108720000D01*
X182657380Y-109339047D01*
X181990714Y-110196190D02*
X182657380Y-110196190D01*
X181990714Y-109767619D02*
X182514523Y-109767619D01*
X182609761Y-109815238D01*
X182657380Y-109910476D01*
X182657380Y-110053333D01*
X182609761Y-110148571D01*
X182562142Y-110196190D01*
X182133571Y-111005714D02*
X182133571Y-110672380D01*
X182657380Y-110672380D02*
X181657380Y-110672380D01*
X181657380Y-111148571D01*
%TO.C,C3*%
X191492142Y-43013333D02*
X191539761Y-42965714D01*
X191587380Y-42822857D01*
X191587380Y-42727619D01*
X191539761Y-42584761D01*
X191444523Y-42489523D01*
X191349285Y-42441904D01*
X191158809Y-42394285D01*
X191015952Y-42394285D01*
X190825476Y-42441904D01*
X190730238Y-42489523D01*
X190635000Y-42584761D01*
X190587380Y-42727619D01*
X190587380Y-42822857D01*
X190635000Y-42965714D01*
X190682619Y-43013333D01*
X190587380Y-43346666D02*
X190587380Y-43965714D01*
X190968333Y-43632380D01*
X190968333Y-43775238D01*
X191015952Y-43870476D01*
X191063571Y-43918095D01*
X191158809Y-43965714D01*
X191396904Y-43965714D01*
X191492142Y-43918095D01*
X191539761Y-43870476D01*
X191587380Y-43775238D01*
X191587380Y-43489523D01*
X191539761Y-43394285D01*
X191492142Y-43346666D01*
X191587380Y-36393571D02*
X191587380Y-35822142D01*
X191587380Y-36107857D02*
X190587380Y-36107857D01*
X190730238Y-36012619D01*
X190825476Y-35917380D01*
X190873095Y-35822142D01*
X190587380Y-37012619D02*
X190587380Y-37107857D01*
X190635000Y-37203095D01*
X190682619Y-37250714D01*
X190777857Y-37298333D01*
X190968333Y-37345952D01*
X191206428Y-37345952D01*
X191396904Y-37298333D01*
X191492142Y-37250714D01*
X191539761Y-37203095D01*
X191587380Y-37107857D01*
X191587380Y-37012619D01*
X191539761Y-36917380D01*
X191492142Y-36869761D01*
X191396904Y-36822142D01*
X191206428Y-36774523D01*
X190968333Y-36774523D01*
X190777857Y-36822142D01*
X190682619Y-36869761D01*
X190635000Y-36917380D01*
X190587380Y-37012619D01*
X190920714Y-38203095D02*
X191587380Y-38203095D01*
X190920714Y-37774523D02*
X191444523Y-37774523D01*
X191539761Y-37822142D01*
X191587380Y-37917380D01*
X191587380Y-38060238D01*
X191539761Y-38155476D01*
X191492142Y-38203095D01*
X191063571Y-39012619D02*
X191063571Y-38679285D01*
X191587380Y-38679285D02*
X190587380Y-38679285D01*
X190587380Y-39155476D01*
%TO.C,U1*%
X186142380Y-51318095D02*
X186951904Y-51318095D01*
X187047142Y-51365714D01*
X187094761Y-51413333D01*
X187142380Y-51508571D01*
X187142380Y-51699047D01*
X187094761Y-51794285D01*
X187047142Y-51841904D01*
X186951904Y-51889523D01*
X186142380Y-51889523D01*
X187142380Y-52889523D02*
X187142380Y-52318095D01*
X187142380Y-52603809D02*
X186142380Y-52603809D01*
X186285238Y-52508571D01*
X186380476Y-52413333D01*
X186428095Y-52318095D01*
X189952380Y-49960952D02*
X189952380Y-50532380D01*
X190952380Y-50246666D02*
X189952380Y-50246666D01*
X190952380Y-51341904D02*
X190952380Y-50865714D01*
X189952380Y-50865714D01*
X189952380Y-51865714D02*
X189952380Y-51960952D01*
X190000000Y-52056190D01*
X190047619Y-52103809D01*
X190142857Y-52151428D01*
X190333333Y-52199047D01*
X190571428Y-52199047D01*
X190761904Y-52151428D01*
X190857142Y-52103809D01*
X190904761Y-52056190D01*
X190952380Y-51960952D01*
X190952380Y-51865714D01*
X190904761Y-51770476D01*
X190857142Y-51722857D01*
X190761904Y-51675238D01*
X190571428Y-51627619D01*
X190333333Y-51627619D01*
X190142857Y-51675238D01*
X190047619Y-51722857D01*
X190000000Y-51770476D01*
X189952380Y-51865714D01*
X189952380Y-52532380D02*
X189952380Y-53199047D01*
X190952380Y-52770476D01*
X190952380Y-54103809D02*
X190952380Y-53532380D01*
X190952380Y-53818095D02*
X189952380Y-53818095D01*
X190095238Y-53722857D01*
X190190476Y-53627619D01*
X190238095Y-53532380D01*
%TO.C,C5*%
X182411666Y-78462142D02*
X182459285Y-78509761D01*
X182602142Y-78557380D01*
X182697380Y-78557380D01*
X182840238Y-78509761D01*
X182935476Y-78414523D01*
X182983095Y-78319285D01*
X183030714Y-78128809D01*
X183030714Y-77985952D01*
X182983095Y-77795476D01*
X182935476Y-77700238D01*
X182840238Y-77605000D01*
X182697380Y-77557380D01*
X182602142Y-77557380D01*
X182459285Y-77605000D01*
X182411666Y-77652619D01*
X181506904Y-77557380D02*
X181983095Y-77557380D01*
X182030714Y-78033571D01*
X181983095Y-77985952D01*
X181887857Y-77938333D01*
X181649761Y-77938333D01*
X181554523Y-77985952D01*
X181506904Y-78033571D01*
X181459285Y-78128809D01*
X181459285Y-78366904D01*
X181506904Y-78462142D01*
X181554523Y-78509761D01*
X181649761Y-78557380D01*
X181887857Y-78557380D01*
X181983095Y-78509761D01*
X182030714Y-78462142D01*
%TO.C,J2*%
X181943333Y-39457380D02*
X181943333Y-40171666D01*
X181990952Y-40314523D01*
X182086190Y-40409761D01*
X182229047Y-40457380D01*
X182324285Y-40457380D01*
X181514761Y-39552619D02*
X181467142Y-39505000D01*
X181371904Y-39457380D01*
X181133809Y-39457380D01*
X181038571Y-39505000D01*
X180990952Y-39552619D01*
X180943333Y-39647857D01*
X180943333Y-39743095D01*
X180990952Y-39885952D01*
X181562380Y-40457380D01*
X180943333Y-40457380D01*
D11*
%TO.C,R5*%
X192749359Y-102320095D02*
G75*
G03*
X191300000Y-102417133I-749359J320095D01*
G01*
%TO.C,C1*%
X181490000Y-95350000D02*
X186730000Y-95350000D01*
X181490000Y-92925000D02*
X181490000Y-92610000D01*
X186730000Y-92925000D02*
X186730000Y-92610000D01*
X181490000Y-95350000D02*
X181490000Y-95035000D01*
X186730000Y-95350000D02*
X186730000Y-95035000D01*
X181490000Y-92610000D02*
X186730000Y-92610000D01*
%TO.C,R4*%
X180454359Y-113985095D02*
G75*
G03*
X179005000Y-114082133I-749359J320095D01*
G01*
%TO.C,1n34a1*%
X185455000Y-72825000D02*
X185455000Y-75765000D01*
X186235000Y-72825000D02*
X180795000Y-72825000D01*
X185335000Y-72825000D02*
X185335000Y-75765000D01*
X186235000Y-75435000D02*
X186235000Y-75765000D01*
X180795000Y-72825000D02*
X180795000Y-73155000D01*
X180795000Y-75765000D02*
X180795000Y-75435000D01*
X186235000Y-75765000D02*
X180795000Y-75765000D01*
X185215000Y-72825000D02*
X185215000Y-75765000D01*
X186235000Y-73155000D02*
X186235000Y-72825000D01*
%TO.C,D1*%
X183970000Y-80775000D02*
X183970000Y-80445000D01*
X189410000Y-83385000D02*
X189410000Y-83055000D01*
X183970000Y-83055000D02*
X183970000Y-83385000D01*
X189410000Y-80445000D02*
X189410000Y-80775000D01*
X183970000Y-80445000D02*
X189410000Y-80445000D01*
X184990000Y-83385000D02*
X184990000Y-80445000D01*
X184870000Y-83385000D02*
X184870000Y-80445000D01*
X183970000Y-83385000D02*
X189410000Y-83385000D01*
X184750000Y-83385000D02*
X184750000Y-80445000D01*
%TO.C,R3*%
X180924905Y-91554359D02*
G75*
G03*
X180827867Y-90105000I320095J749359D01*
G01*
%TO.C,R1*%
X189550095Y-93230641D02*
G75*
G03*
X189647133Y-94680000I-320095J-749359D01*
G01*
%TO.C,C4*%
X191555000Y-78820000D02*
X191870000Y-78820000D01*
X191555000Y-73580000D02*
X191870000Y-73580000D01*
X189130000Y-78820000D02*
X189445000Y-78820000D01*
X189130000Y-73580000D02*
X189130000Y-78820000D01*
X189130000Y-73580000D02*
X189445000Y-73580000D01*
X191870000Y-73580000D02*
X191870000Y-78820000D01*
%TO.C,C2*%
X178585000Y-47180000D02*
X180825000Y-47180000D01*
X180825000Y-47180000D02*
X180825000Y-54420000D01*
X178585000Y-47180000D02*
X178585000Y-54420000D01*
X178585000Y-54420000D02*
X180825000Y-54420000D01*
%TO.C,C6*%
X178335000Y-111205000D02*
X178650000Y-111205000D01*
X181075000Y-105965000D02*
X181075000Y-111205000D01*
X180760000Y-111205000D02*
X181075000Y-111205000D01*
X178335000Y-105965000D02*
X178650000Y-105965000D01*
X178335000Y-105965000D02*
X178335000Y-111205000D01*
X180760000Y-105965000D02*
X181075000Y-105965000D01*
%TO.C,C3*%
X190015000Y-39560000D02*
X192255000Y-39560000D01*
X190015000Y-46800000D02*
X192255000Y-46800000D01*
X192255000Y-39560000D02*
X192255000Y-46800000D01*
X190015000Y-39560000D02*
X190015000Y-46800000D01*
%TO.C,U1*%
X191840000Y-49430000D02*
X191840000Y-54730000D01*
X191840000Y-54730000D02*
X181560000Y-54730000D01*
X181560000Y-49430000D02*
X191840000Y-49430000D01*
X181560000Y-51080000D02*
X181560000Y-49430000D01*
X181560000Y-54730000D02*
X181560000Y-53080000D01*
X181560000Y-53080000D02*
G75*
G03*
X181560000Y-51080000I0J1000000D01*
G01*
%TO.C,C5*%
X184865000Y-76735000D02*
X179625000Y-76735000D01*
X179625000Y-76735000D02*
X179625000Y-77050000D01*
X184865000Y-76735000D02*
X184865000Y-77050000D01*
X179625000Y-79160000D02*
X179625000Y-79475000D01*
X184865000Y-79475000D02*
X179625000Y-79475000D01*
X184865000Y-79160000D02*
X184865000Y-79475000D01*
%TO.C,J2*%
X186050000Y-45775000D02*
X188650000Y-45775000D01*
X183450000Y-43175000D02*
X183450000Y-32955000D01*
X183450000Y-32955000D02*
X188650000Y-32955000D01*
X183450000Y-43175000D02*
X186050000Y-43175000D01*
X186050000Y-43175000D02*
X186050000Y-45775000D01*
X183450000Y-44445000D02*
X183450000Y-45775000D01*
X188650000Y-45775000D02*
X188650000Y-32955000D01*
X183450000Y-45775000D02*
X184780000Y-45775000D01*
%TD*%
M02*
