%TF.GenerationSoftware,KiCad,Pcbnew,(6.0.4-0)*%
%TF.CreationDate,2022-12-20T07:59:27-08:00*%
%TF.ProjectId,slutch,736c7574-6368-42e6-9b69-6361645f7063,rev?*%
%TF.SameCoordinates,Original*%
%TF.FileFunction,Copper,L1,Top*%
%TF.FilePolarity,Positive*%
%FSLAX46Y46*%
G04 Gerber Fmt 4.6, Leading zero omitted, Abs format (unit mm)*
G04 Created by KiCad (PCBNEW (6.0.4-0)) date 2022-12-20 07:59:27*
%MOMM*%
%LPD*%
G01*
G04 APERTURE LIST*
G04 Aperture macros list*
%AMRoundRect*
0 Rectangle with rounded corners*
0 $1 Rounding radius*
0 $2 $3 $4 $5 $6 $7 $8 $9 X,Y pos of 4 corners*
0 Add a 4 corners polygon primitive as box body*
4,1,4,$2,$3,$4,$5,$6,$7,$8,$9,$2,$3,0*
0 Add four circle primitives for the rounded corners*
1,1,$1+$1,$2,$3*
1,1,$1+$1,$4,$5*
1,1,$1+$1,$6,$7*
1,1,$1+$1,$8,$9*
0 Add four rect primitives between the rounded corners*
20,1,$1+$1,$2,$3,$4,$5,0*
20,1,$1+$1,$4,$5,$6,$7,0*
20,1,$1+$1,$6,$7,$8,$9,0*
20,1,$1+$1,$8,$9,$2,$3,0*%
G04 Aperture macros list end*
%TA.AperFunction,ComponentPad*%
%ADD10C,1.400000*%
%TD*%
%TA.AperFunction,ComponentPad*%
%ADD11O,1.400000X1.400000*%
%TD*%
%TA.AperFunction,ComponentPad*%
%ADD12R,1.930000X1.830000*%
%TD*%
%TA.AperFunction,ComponentPad*%
%ADD13C,2.130000*%
%TD*%
%TA.AperFunction,ComponentPad*%
%ADD14R,1.800000X1.800000*%
%TD*%
%TA.AperFunction,ComponentPad*%
%ADD15C,1.800000*%
%TD*%
%TA.AperFunction,ComponentPad*%
%ADD16RoundRect,0.750000X0.750000X-1.250000X0.750000X1.250000X-0.750000X1.250000X-0.750000X-1.250000X0*%
%TD*%
%TA.AperFunction,ComponentPad*%
%ADD17O,2.200000X3.500000*%
%TD*%
%TA.AperFunction,ComponentPad*%
%ADD18R,1.500000X2.500000*%
%TD*%
%TA.AperFunction,ComponentPad*%
%ADD19O,1.500000X2.500000*%
%TD*%
%TA.AperFunction,ComponentPad*%
%ADD20C,1.600000*%
%TD*%
%TA.AperFunction,ComponentPad*%
%ADD21O,1.800000X1.800000*%
%TD*%
%TA.AperFunction,ComponentPad*%
%ADD22R,1.600000X1.600000*%
%TD*%
%TA.AperFunction,ComponentPad*%
%ADD23O,1.600000X1.600000*%
%TD*%
%TA.AperFunction,ComponentPad*%
%ADD24R,1.700000X1.700000*%
%TD*%
%TA.AperFunction,ComponentPad*%
%ADD25O,1.700000X1.700000*%
%TD*%
%TA.AperFunction,ViaPad*%
%ADD26C,0.800000*%
%TD*%
%TA.AperFunction,Conductor*%
%ADD27C,0.500000*%
%TD*%
%TA.AperFunction,Conductor*%
%ADD28C,0.250000*%
%TD*%
G04 APERTURE END LIST*
D10*
%TO.P,R5,1*%
%TO.N,Net-(C1-Pad1)*%
X192000000Y-102000000D03*
D11*
%TO.P,R5,2*%
%TO.N,GND*%
X192000000Y-103900000D03*
%TD*%
D12*
%TO.P,J3,S*%
%TO.N,GND*%
X186055000Y-124525000D03*
D13*
%TO.P,J3,T*%
%TO.N,Net-(J3-PadT)*%
X186055000Y-113125000D03*
%TO.P,J3,TN*%
%TO.N,N/C*%
X186055000Y-121425000D03*
%TD*%
D14*
%TO.P,R2,1*%
%TO.N,Net-(C4-Pad1)*%
X182920000Y-70820000D03*
D15*
%TO.P,R2,2*%
%TO.N,Net-(R1-Pad2)*%
X185420000Y-70820000D03*
%TO.P,R2,3*%
%TO.N,N/C*%
X187920000Y-70820000D03*
D16*
%TO.P,R2,MP*%
X189820000Y-63820000D03*
X181020000Y-63820000D03*
%TD*%
D17*
%TO.P,SW1,*%
%TO.N,*%
X189865000Y-86995000D03*
X181665000Y-86995000D03*
D18*
%TO.P,SW1,1,A*%
%TO.N,Net-(C4-Pad1)*%
X183765000Y-86995000D03*
D19*
%TO.P,SW1,2,B*%
%TO.N,Net-(C6-Pad1)*%
X185765000Y-86995000D03*
%TO.P,SW1,3,C*%
%TO.N,Net-(C5-Pad1)*%
X187765000Y-86995000D03*
%TD*%
D12*
%TO.P,J1,S*%
%TO.N,GND*%
X186055000Y-108650000D03*
D13*
%TO.P,J1,T*%
%TO.N,Net-(C1-Pad1)*%
X186055000Y-97250000D03*
%TO.P,J1,TN*%
%TO.N,N/C*%
X186055000Y-105550000D03*
%TD*%
D20*
%TO.P,C1,1*%
%TO.N,Net-(C1-Pad1)*%
X181610000Y-93980000D03*
%TO.P,C1,2*%
%TO.N,Net-(C1-Pad2)*%
X186610000Y-93980000D03*
%TD*%
D10*
%TO.P,R4,1*%
%TO.N,Net-(C6-Pad2)*%
X179705000Y-113665000D03*
D11*
%TO.P,R4,2*%
%TO.N,Net-(J3-PadT)*%
X179705000Y-115565000D03*
%TD*%
D14*
%TO.P,1n34a1,1,K*%
%TO.N,Net-(1n34a1-Pad1)*%
X187325000Y-74295000D03*
D21*
%TO.P,1n34a1,2,A*%
%TO.N,GND*%
X179705000Y-74295000D03*
%TD*%
D14*
%TO.P,D1,1,K*%
%TO.N,Net-(C5-Pad1)*%
X182880000Y-81915000D03*
D21*
%TO.P,D1,2,A*%
%TO.N,Net-(1n34a1-Pad1)*%
X190500000Y-81915000D03*
%TD*%
D10*
%TO.P,R3,1*%
%TO.N,Net-(C5-Pad1)*%
X181245000Y-90805000D03*
D11*
%TO.P,R3,2*%
%TO.N,GND*%
X179345000Y-90805000D03*
%TD*%
D10*
%TO.P,R1,1*%
%TO.N,Net-(C1-Pad2)*%
X189230000Y-93980000D03*
D11*
%TO.P,R1,2*%
%TO.N,Net-(R1-Pad2)*%
X191130000Y-93980000D03*
%TD*%
D20*
%TO.P,C4,1*%
%TO.N,Net-(C4-Pad1)*%
X190500000Y-73700000D03*
%TO.P,C4,2*%
%TO.N,Net-(1n34a1-Pad1)*%
X190500000Y-78700000D03*
%TD*%
%TO.P,C2,1*%
%TO.N,GND*%
X179705000Y-48300000D03*
%TO.P,C2,2*%
%TO.N,+12V*%
X179705000Y-53300000D03*
%TD*%
%TO.P,C6,1*%
%TO.N,Net-(C6-Pad1)*%
X179705000Y-106085000D03*
%TO.P,C6,2*%
%TO.N,Net-(C6-Pad2)*%
X179705000Y-111085000D03*
%TD*%
%TO.P,C3,1*%
%TO.N,GND*%
X191135000Y-40680000D03*
%TO.P,C3,2*%
%TO.N,-12V*%
X191135000Y-45680000D03*
%TD*%
D22*
%TO.P,U1,1,NULL*%
%TO.N,unconnected-(U1-Pad1)*%
X182890000Y-48270000D03*
D23*
%TO.P,U1,2,-*%
%TO.N,Net-(R1-Pad2)*%
X185430000Y-48270000D03*
%TO.P,U1,3,+*%
%TO.N,GND*%
X187970000Y-48270000D03*
%TO.P,U1,4,V-*%
%TO.N,-12V*%
X190510000Y-48270000D03*
%TO.P,U1,5,NULL*%
%TO.N,unconnected-(U1-Pad5)*%
X190510000Y-55890000D03*
%TO.P,U1,6*%
%TO.N,Net-(C4-Pad1)*%
X187970000Y-55890000D03*
%TO.P,U1,7,V+*%
%TO.N,+12V*%
X185430000Y-55890000D03*
%TO.P,U1,8,NC*%
%TO.N,unconnected-(U1-Pad8)*%
X182890000Y-55890000D03*
%TD*%
D20*
%TO.P,C5,1*%
%TO.N,Net-(C5-Pad1)*%
X184745000Y-78105000D03*
%TO.P,C5,2*%
%TO.N,GND*%
X179745000Y-78105000D03*
%TD*%
D24*
%TO.P,J2,1,Pin_1*%
%TO.N,+12V*%
X184780000Y-44445000D03*
D25*
%TO.P,J2,2,Pin_2*%
X187320000Y-44445000D03*
%TO.P,J2,3,Pin_3*%
%TO.N,GND*%
X184780000Y-41905000D03*
%TO.P,J2,4,Pin_4*%
X187320000Y-41905000D03*
%TO.P,J2,5,Pin_5*%
X184780000Y-39365000D03*
%TO.P,J2,6,Pin_6*%
X187320000Y-39365000D03*
%TO.P,J2,7,Pin_7*%
X184780000Y-36825000D03*
%TO.P,J2,8,Pin_8*%
X187320000Y-36825000D03*
%TO.P,J2,9,Pin_9*%
%TO.N,-12V*%
X184780000Y-34285000D03*
%TO.P,J2,10,Pin_10*%
X187320000Y-34285000D03*
%TD*%
D26*
%TO.N,GND*%
X179705000Y-56515000D03*
%TD*%
D27*
%TO.N,GND*%
X179725000Y-56515000D02*
X179705000Y-56515000D01*
X189820000Y-39365000D02*
X191135000Y-40680000D01*
X187970000Y-48270000D02*
X179725000Y-56515000D01*
X187320000Y-39365000D02*
X189820000Y-39365000D01*
D28*
%TO.N,Net-(C4-Pad1)*%
X190500000Y-71120000D02*
X187960000Y-68580000D01*
X190500000Y-74315000D02*
X187325000Y-77490000D01*
X187325000Y-82935000D02*
X183765000Y-86495000D01*
X187325000Y-77490000D02*
X187325000Y-82935000D01*
X187960000Y-68580000D02*
X185160000Y-68580000D01*
X185160000Y-68580000D02*
X182920000Y-70820000D01*
X190500000Y-73700000D02*
X190500000Y-71120000D01*
X183765000Y-86495000D02*
X183765000Y-86995000D01*
X190500000Y-73700000D02*
X190500000Y-74315000D01*
%TO.N,Net-(C6-Pad1)*%
X185765000Y-92365000D02*
X185765000Y-86995000D01*
X180340000Y-106085000D02*
X182734511Y-103690489D01*
X182734511Y-103690489D02*
X182734511Y-95395489D01*
X182734511Y-95395489D02*
X185765000Y-92365000D01*
%TO.N,Net-(C6-Pad2)*%
X179705000Y-113665000D02*
X179705000Y-111085000D01*
%TO.N,Net-(J3-PadT)*%
X180340000Y-115565000D02*
X182780000Y-113125000D01*
X182780000Y-113125000D02*
X185420000Y-113125000D01*
%TD*%
M02*
