%TF.GenerationSoftware,KiCad,Pcbnew,(6.0.4-0)*%
%TF.CreationDate,2022-12-20T09:34:11-08:00*%
%TF.ProjectId,harmonic_percolator,6861726d-6f6e-4696-935f-706572636f6c,rev?*%
%TF.SameCoordinates,Original*%
%TF.FileFunction,Soldermask,Bot*%
%TF.FilePolarity,Negative*%
%FSLAX46Y46*%
G04 Gerber Fmt 4.6, Leading zero omitted, Abs format (unit mm)*
G04 Created by KiCad (PCBNEW (6.0.4-0)) date 2022-12-20 09:34:11*
%MOMM*%
%LPD*%
G01*
G04 APERTURE LIST*
%ADD10C,1.600000*%
%ADD11O,1.600000X1.600000*%
%ADD12R,1.800000X1.800000*%
%ADD13O,1.800000X1.800000*%
%ADD14R,1.700000X1.700000*%
%ADD15O,1.700000X1.700000*%
%ADD16O,1.600000X1.200000*%
%ADD17O,1.200000X1.200000*%
%ADD18R,1.600000X1.600000*%
%ADD19R,1.300000X1.300000*%
%ADD20C,1.300000*%
%ADD21R,1.750000X1.750000*%
%ADD22C,1.750000*%
%ADD23C,2.700000*%
%ADD24R,1.930000X1.830000*%
%ADD25C,2.130000*%
G04 APERTURE END LIST*
D10*
%TO.C,R4*%
X114955000Y-124000000D03*
D11*
X117495000Y-124000000D03*
%TD*%
D10*
%TO.C,R2*%
X108755000Y-124000000D03*
D11*
X111295000Y-124000000D03*
%TD*%
D10*
%TO.C,C2*%
X117000000Y-48000000D03*
X114500000Y-48000000D03*
%TD*%
%TO.C,R3*%
X94000000Y-146000000D03*
D11*
X94000000Y-143460000D03*
%TD*%
D12*
%TO.C,D2*%
X107000000Y-64000000D03*
D13*
X107000000Y-71620000D03*
%TD*%
D14*
%TO.C,J3*%
X110000000Y-143725000D03*
D15*
X110000000Y-146265000D03*
X107460000Y-143725000D03*
X107460000Y-146265000D03*
X104920000Y-143725000D03*
X104920000Y-146265000D03*
X102380000Y-143725000D03*
X102380000Y-146265000D03*
X99840000Y-143725000D03*
X99840000Y-146265000D03*
%TD*%
D16*
%TO.C,Q2*%
X111060000Y-117000000D03*
D17*
X113600000Y-119540000D03*
X116140000Y-117000000D03*
%TD*%
D12*
%TO.C,D1*%
X103000000Y-71620000D03*
D13*
X103000000Y-64000000D03*
%TD*%
D10*
%TO.C,R1*%
X99000000Y-118000000D03*
D11*
X99000000Y-115460000D03*
%TD*%
D10*
%TO.C,C1*%
X111000000Y-48000000D03*
X108500000Y-48000000D03*
%TD*%
%TO.C,C3*%
X104000000Y-118000000D03*
X106500000Y-118000000D03*
%TD*%
D18*
%TO.C,C5*%
X103000000Y-122000000D03*
D10*
X103000000Y-124500000D03*
%TD*%
%TO.C,C4*%
X105000000Y-107000000D03*
X105000000Y-109500000D03*
%TD*%
%TO.C,R5*%
X104000000Y-76000000D03*
D11*
X106540000Y-76000000D03*
%TD*%
D19*
%TO.C,Q1*%
X94000000Y-115000000D03*
D20*
X95270000Y-116270000D03*
X94000000Y-117540000D03*
%TD*%
D21*
%TO.C,RV1 harmonics *%
X111250000Y-51000000D03*
D22*
X114750000Y-51000000D03*
X111250000Y-109500000D03*
D23*
X108800000Y-56350000D03*
X117200000Y-105350000D03*
X108800000Y-104150000D03*
X117200000Y-55150000D03*
%TD*%
D21*
%TO.C,RV2 balance*%
X95250000Y-51000000D03*
D22*
X98750000Y-51000000D03*
X95250000Y-109500000D03*
D23*
X92800000Y-56350000D03*
X92800000Y-104150000D03*
X101200000Y-105350000D03*
X101200000Y-55150000D03*
%TD*%
D24*
%TO.C,J2*%
X98000000Y-139000000D03*
D25*
X98000000Y-127600000D03*
X98000000Y-135900000D03*
%TD*%
D24*
%TO.C,J1*%
X113000000Y-139000000D03*
D25*
X113000000Y-127600000D03*
X113000000Y-135900000D03*
%TD*%
M02*
