%TF.GenerationSoftware,KiCad,Pcbnew,(6.0.4-0)*%
%TF.CreationDate,2022-12-20T09:34:11-08:00*%
%TF.ProjectId,harmonic_percolator,6861726d-6f6e-4696-935f-706572636f6c,rev?*%
%TF.SameCoordinates,Original*%
%TF.FileFunction,Legend,Bot*%
%TF.FilePolarity,Positive*%
%FSLAX46Y46*%
G04 Gerber Fmt 4.6, Leading zero omitted, Abs format (unit mm)*
G04 Created by KiCad (PCBNEW (6.0.4-0)) date 2022-12-20 09:34:11*
%MOMM*%
%LPD*%
G01*
G04 APERTURE LIST*
%ADD10C,0.150000*%
%ADD11C,0.120000*%
G04 APERTURE END LIST*
D10*
%TO.C,RV1 harmonics *%
X107752380Y-81585714D02*
X107276190Y-81252380D01*
X107752380Y-81014285D02*
X106752380Y-81014285D01*
X106752380Y-81395238D01*
X106800000Y-81490476D01*
X106847619Y-81538095D01*
X106942857Y-81585714D01*
X107085714Y-81585714D01*
X107180952Y-81538095D01*
X107228571Y-81490476D01*
X107276190Y-81395238D01*
X107276190Y-81014285D01*
X106752380Y-81871428D02*
X107752380Y-82204761D01*
X106752380Y-82538095D01*
X107752380Y-83395238D02*
X107752380Y-82823809D01*
X107752380Y-83109523D02*
X106752380Y-83109523D01*
X106895238Y-83014285D01*
X106990476Y-82919047D01*
X107038095Y-82823809D01*
X107752380Y-84585714D02*
X106752380Y-84585714D01*
X107752380Y-85014285D02*
X107228571Y-85014285D01*
X107133333Y-84966666D01*
X107085714Y-84871428D01*
X107085714Y-84728571D01*
X107133333Y-84633333D01*
X107180952Y-84585714D01*
X107752380Y-85919047D02*
X107228571Y-85919047D01*
X107133333Y-85871428D01*
X107085714Y-85776190D01*
X107085714Y-85585714D01*
X107133333Y-85490476D01*
X107704761Y-85919047D02*
X107752380Y-85823809D01*
X107752380Y-85585714D01*
X107704761Y-85490476D01*
X107609523Y-85442857D01*
X107514285Y-85442857D01*
X107419047Y-85490476D01*
X107371428Y-85585714D01*
X107371428Y-85823809D01*
X107323809Y-85919047D01*
X107752380Y-86395238D02*
X107085714Y-86395238D01*
X107276190Y-86395238D02*
X107180952Y-86442857D01*
X107133333Y-86490476D01*
X107085714Y-86585714D01*
X107085714Y-86680952D01*
X107752380Y-87014285D02*
X107085714Y-87014285D01*
X107180952Y-87014285D02*
X107133333Y-87061904D01*
X107085714Y-87157142D01*
X107085714Y-87300000D01*
X107133333Y-87395238D01*
X107228571Y-87442857D01*
X107752380Y-87442857D01*
X107228571Y-87442857D02*
X107133333Y-87490476D01*
X107085714Y-87585714D01*
X107085714Y-87728571D01*
X107133333Y-87823809D01*
X107228571Y-87871428D01*
X107752380Y-87871428D01*
X107752380Y-88490476D02*
X107704761Y-88395238D01*
X107657142Y-88347619D01*
X107561904Y-88300000D01*
X107276190Y-88300000D01*
X107180952Y-88347619D01*
X107133333Y-88395238D01*
X107085714Y-88490476D01*
X107085714Y-88633333D01*
X107133333Y-88728571D01*
X107180952Y-88776190D01*
X107276190Y-88823809D01*
X107561904Y-88823809D01*
X107657142Y-88776190D01*
X107704761Y-88728571D01*
X107752380Y-88633333D01*
X107752380Y-88490476D01*
X107085714Y-89252380D02*
X107752380Y-89252380D01*
X107180952Y-89252380D02*
X107133333Y-89300000D01*
X107085714Y-89395238D01*
X107085714Y-89538095D01*
X107133333Y-89633333D01*
X107228571Y-89680952D01*
X107752380Y-89680952D01*
X107752380Y-90157142D02*
X107085714Y-90157142D01*
X106752380Y-90157142D02*
X106800000Y-90109523D01*
X106847619Y-90157142D01*
X106800000Y-90204761D01*
X106752380Y-90157142D01*
X106847619Y-90157142D01*
X107704761Y-91061904D02*
X107752380Y-90966666D01*
X107752380Y-90776190D01*
X107704761Y-90680952D01*
X107657142Y-90633333D01*
X107561904Y-90585714D01*
X107276190Y-90585714D01*
X107180952Y-90633333D01*
X107133333Y-90680952D01*
X107085714Y-90776190D01*
X107085714Y-90966666D01*
X107133333Y-91061904D01*
X107704761Y-91442857D02*
X107752380Y-91538095D01*
X107752380Y-91728571D01*
X107704761Y-91823809D01*
X107609523Y-91871428D01*
X107561904Y-91871428D01*
X107466666Y-91823809D01*
X107419047Y-91728571D01*
X107419047Y-91585714D01*
X107371428Y-91490476D01*
X107276190Y-91442857D01*
X107228571Y-91442857D01*
X107133333Y-91490476D01*
X107085714Y-91585714D01*
X107085714Y-91728571D01*
X107133333Y-91823809D01*
X107752380Y-93619047D02*
X107752380Y-93047619D01*
X107752380Y-93333333D02*
X106752380Y-93333333D01*
X106895238Y-93238095D01*
X106990476Y-93142857D01*
X107038095Y-93047619D01*
X106752380Y-94238095D02*
X106752380Y-94333333D01*
X106800000Y-94428571D01*
X106847619Y-94476190D01*
X106942857Y-94523809D01*
X107133333Y-94571428D01*
X107371428Y-94571428D01*
X107561904Y-94523809D01*
X107657142Y-94476190D01*
X107704761Y-94428571D01*
X107752380Y-94333333D01*
X107752380Y-94238095D01*
X107704761Y-94142857D01*
X107657142Y-94095238D01*
X107561904Y-94047619D01*
X107371428Y-94000000D01*
X107133333Y-94000000D01*
X106942857Y-94047619D01*
X106847619Y-94095238D01*
X106800000Y-94142857D01*
X106752380Y-94238095D01*
X106752380Y-95190476D02*
X106752380Y-95285714D01*
X106800000Y-95380952D01*
X106847619Y-95428571D01*
X106942857Y-95476190D01*
X107133333Y-95523809D01*
X107371428Y-95523809D01*
X107561904Y-95476190D01*
X107657142Y-95428571D01*
X107704761Y-95380952D01*
X107752380Y-95285714D01*
X107752380Y-95190476D01*
X107704761Y-95095238D01*
X107657142Y-95047619D01*
X107561904Y-95000000D01*
X107371428Y-94952380D01*
X107133333Y-94952380D01*
X106942857Y-95000000D01*
X106847619Y-95047619D01*
X106800000Y-95095238D01*
X106752380Y-95190476D01*
X107752380Y-95952380D02*
X106752380Y-95952380D01*
X107371428Y-96047619D02*
X107752380Y-96333333D01*
X107085714Y-96333333D02*
X107466666Y-95952380D01*
X107466666Y-97476190D02*
X107466666Y-97952380D01*
X107752380Y-97380952D02*
X106752380Y-97714285D01*
X107752380Y-98047619D01*
%TO.C,RV2 balance*%
X103252380Y-88295238D02*
X102776190Y-87961904D01*
X103252380Y-87723809D02*
X102252380Y-87723809D01*
X102252380Y-88104761D01*
X102300000Y-88200000D01*
X102347619Y-88247619D01*
X102442857Y-88295238D01*
X102585714Y-88295238D01*
X102680952Y-88247619D01*
X102728571Y-88200000D01*
X102776190Y-88104761D01*
X102776190Y-87723809D01*
X102252380Y-88580952D02*
X103252380Y-88914285D01*
X102252380Y-89247619D01*
X102347619Y-89533333D02*
X102300000Y-89580952D01*
X102252380Y-89676190D01*
X102252380Y-89914285D01*
X102300000Y-90009523D01*
X102347619Y-90057142D01*
X102442857Y-90104761D01*
X102538095Y-90104761D01*
X102680952Y-90057142D01*
X103252380Y-89485714D01*
X103252380Y-90104761D01*
X103252380Y-91295238D02*
X102252380Y-91295238D01*
X102633333Y-91295238D02*
X102585714Y-91390476D01*
X102585714Y-91580952D01*
X102633333Y-91676190D01*
X102680952Y-91723809D01*
X102776190Y-91771428D01*
X103061904Y-91771428D01*
X103157142Y-91723809D01*
X103204761Y-91676190D01*
X103252380Y-91580952D01*
X103252380Y-91390476D01*
X103204761Y-91295238D01*
X103252380Y-92628571D02*
X102728571Y-92628571D01*
X102633333Y-92580952D01*
X102585714Y-92485714D01*
X102585714Y-92295238D01*
X102633333Y-92200000D01*
X103204761Y-92628571D02*
X103252380Y-92533333D01*
X103252380Y-92295238D01*
X103204761Y-92200000D01*
X103109523Y-92152380D01*
X103014285Y-92152380D01*
X102919047Y-92200000D01*
X102871428Y-92295238D01*
X102871428Y-92533333D01*
X102823809Y-92628571D01*
X103252380Y-93247619D02*
X103204761Y-93152380D01*
X103109523Y-93104761D01*
X102252380Y-93104761D01*
X103252380Y-94057142D02*
X102728571Y-94057142D01*
X102633333Y-94009523D01*
X102585714Y-93914285D01*
X102585714Y-93723809D01*
X102633333Y-93628571D01*
X103204761Y-94057142D02*
X103252380Y-93961904D01*
X103252380Y-93723809D01*
X103204761Y-93628571D01*
X103109523Y-93580952D01*
X103014285Y-93580952D01*
X102919047Y-93628571D01*
X102871428Y-93723809D01*
X102871428Y-93961904D01*
X102823809Y-94057142D01*
X102585714Y-94533333D02*
X103252380Y-94533333D01*
X102680952Y-94533333D02*
X102633333Y-94580952D01*
X102585714Y-94676190D01*
X102585714Y-94819047D01*
X102633333Y-94914285D01*
X102728571Y-94961904D01*
X103252380Y-94961904D01*
X103204761Y-95866666D02*
X103252380Y-95771428D01*
X103252380Y-95580952D01*
X103204761Y-95485714D01*
X103157142Y-95438095D01*
X103061904Y-95390476D01*
X102776190Y-95390476D01*
X102680952Y-95438095D01*
X102633333Y-95485714D01*
X102585714Y-95580952D01*
X102585714Y-95771428D01*
X102633333Y-95866666D01*
X103204761Y-96676190D02*
X103252380Y-96580952D01*
X103252380Y-96390476D01*
X103204761Y-96295238D01*
X103109523Y-96247619D01*
X102728571Y-96247619D01*
X102633333Y-96295238D01*
X102585714Y-96390476D01*
X102585714Y-96580952D01*
X102633333Y-96676190D01*
X102728571Y-96723809D01*
X102823809Y-96723809D01*
X102919047Y-96247619D01*
X102252380Y-98447619D02*
X102252380Y-97971428D01*
X102728571Y-97923809D01*
X102680952Y-97971428D01*
X102633333Y-98066666D01*
X102633333Y-98304761D01*
X102680952Y-98400000D01*
X102728571Y-98447619D01*
X102823809Y-98495238D01*
X103061904Y-98495238D01*
X103157142Y-98447619D01*
X103204761Y-98400000D01*
X103252380Y-98304761D01*
X103252380Y-98066666D01*
X103204761Y-97971428D01*
X103157142Y-97923809D01*
X102252380Y-99114285D02*
X102252380Y-99209523D01*
X102300000Y-99304761D01*
X102347619Y-99352380D01*
X102442857Y-99400000D01*
X102633333Y-99447619D01*
X102871428Y-99447619D01*
X103061904Y-99400000D01*
X103157142Y-99352380D01*
X103204761Y-99304761D01*
X103252380Y-99209523D01*
X103252380Y-99114285D01*
X103204761Y-99019047D01*
X103157142Y-98971428D01*
X103061904Y-98923809D01*
X102871428Y-98876190D01*
X102633333Y-98876190D01*
X102442857Y-98923809D01*
X102347619Y-98971428D01*
X102300000Y-99019047D01*
X102252380Y-99114285D01*
X103252380Y-99876190D02*
X102252380Y-99876190D01*
X102871428Y-99971428D02*
X103252380Y-100257142D01*
X102585714Y-100257142D02*
X102966666Y-99876190D01*
X102966666Y-101400000D02*
X102966666Y-101876190D01*
X103252380Y-101304761D02*
X102252380Y-101638095D01*
X103252380Y-101971428D01*
%TO.C,J2*%
X94303333Y-137372380D02*
X94303333Y-138086666D01*
X94350952Y-138229523D01*
X94446190Y-138324761D01*
X94589047Y-138372380D01*
X94684285Y-138372380D01*
X93874761Y-137467619D02*
X93827142Y-137420000D01*
X93731904Y-137372380D01*
X93493809Y-137372380D01*
X93398571Y-137420000D01*
X93350952Y-137467619D01*
X93303333Y-137562857D01*
X93303333Y-137658095D01*
X93350952Y-137800952D01*
X93922380Y-138372380D01*
X93303333Y-138372380D01*
X95809523Y-141452380D02*
X95904761Y-141404761D01*
X95952380Y-141357142D01*
X96000000Y-141261904D01*
X96000000Y-140976190D01*
X95952380Y-140880952D01*
X95904761Y-140833333D01*
X95809523Y-140785714D01*
X95666666Y-140785714D01*
X95571428Y-140833333D01*
X95523809Y-140880952D01*
X95476190Y-140976190D01*
X95476190Y-141261904D01*
X95523809Y-141357142D01*
X95571428Y-141404761D01*
X95666666Y-141452380D01*
X95809523Y-141452380D01*
X94619047Y-140785714D02*
X94619047Y-141452380D01*
X95047619Y-140785714D02*
X95047619Y-141309523D01*
X95000000Y-141404761D01*
X94904761Y-141452380D01*
X94761904Y-141452380D01*
X94666666Y-141404761D01*
X94619047Y-141357142D01*
X94285714Y-140785714D02*
X93904761Y-140785714D01*
X94142857Y-140452380D02*
X94142857Y-141309523D01*
X94095238Y-141404761D01*
X94000000Y-141452380D01*
X93904761Y-141452380D01*
%TO.C,J1*%
X109303333Y-137372380D02*
X109303333Y-138086666D01*
X109350952Y-138229523D01*
X109446190Y-138324761D01*
X109589047Y-138372380D01*
X109684285Y-138372380D01*
X108303333Y-138372380D02*
X108874761Y-138372380D01*
X108589047Y-138372380D02*
X108589047Y-137372380D01*
X108684285Y-137515238D01*
X108779523Y-137610476D01*
X108874761Y-137658095D01*
X116452380Y-142452380D02*
X116452380Y-141785714D01*
X116452380Y-141452380D02*
X116500000Y-141500000D01*
X116452380Y-141547619D01*
X116404761Y-141500000D01*
X116452380Y-141452380D01*
X116452380Y-141547619D01*
X115976190Y-141785714D02*
X115976190Y-142452380D01*
X115976190Y-141880952D02*
X115928571Y-141833333D01*
X115833333Y-141785714D01*
X115690476Y-141785714D01*
X115595238Y-141833333D01*
X115547619Y-141928571D01*
X115547619Y-142452380D01*
D11*
%TO.C,RV1 harmonics *%
X108380000Y-50130000D02*
X110075000Y-50130000D01*
X112250000Y-58500000D02*
X113000000Y-57750000D01*
X115573000Y-50130000D02*
X117620000Y-50130000D01*
X113000000Y-57750000D02*
X113750000Y-58500000D01*
X110750000Y-49325000D02*
X111750000Y-49325000D01*
X117620000Y-106986000D02*
X117620000Y-110370000D01*
X112073000Y-110370000D02*
X117620000Y-110370000D01*
X111750000Y-49325000D02*
X111250000Y-49825000D01*
X112425000Y-50130000D02*
X113928000Y-50130000D01*
X111500000Y-102750000D02*
X114500000Y-102750000D01*
X108380000Y-110370000D02*
X110427000Y-110370000D01*
X113000000Y-57750000D02*
X113000000Y-102750000D01*
X117620000Y-50130000D02*
X117620000Y-53515000D01*
X108380000Y-50130000D02*
X108380000Y-54715000D01*
X113000000Y-102750000D02*
X113750000Y-102000000D01*
X111250000Y-49825000D02*
X110750000Y-49325000D01*
X108380000Y-57986000D02*
X108380000Y-102515000D01*
X108380000Y-105786000D02*
X108380000Y-110370000D01*
X117620000Y-56786000D02*
X117620000Y-103715000D01*
X112250000Y-102000000D02*
X113000000Y-102750000D01*
X111500000Y-57750000D02*
X114500000Y-57750000D01*
%TO.C,RV2 balance*%
X95750000Y-49325000D02*
X95250000Y-49825000D01*
X96425000Y-50130000D02*
X97928000Y-50130000D01*
X97000000Y-102750000D02*
X97750000Y-102000000D01*
X101620000Y-56786000D02*
X101620000Y-103715000D01*
X96073000Y-110370000D02*
X101620000Y-110370000D01*
X92380000Y-105786000D02*
X92380000Y-110370000D01*
X97000000Y-57750000D02*
X97750000Y-58500000D01*
X94750000Y-49325000D02*
X95750000Y-49325000D01*
X99573000Y-50130000D02*
X101620000Y-50130000D01*
X96250000Y-58500000D02*
X97000000Y-57750000D01*
X92380000Y-50130000D02*
X92380000Y-54715000D01*
X95500000Y-102750000D02*
X98500000Y-102750000D01*
X96250000Y-102000000D02*
X97000000Y-102750000D01*
X97000000Y-57750000D02*
X97000000Y-102750000D01*
X92380000Y-110370000D02*
X94427000Y-110370000D01*
X101620000Y-50130000D02*
X101620000Y-53515000D01*
X92380000Y-50130000D02*
X94075000Y-50130000D01*
X92380000Y-57986000D02*
X92380000Y-102515000D01*
X95500000Y-57750000D02*
X98500000Y-57750000D01*
X101620000Y-106986000D02*
X101620000Y-110370000D01*
X95250000Y-49825000D02*
X94750000Y-49325000D01*
%TO.C,J2*%
X97200000Y-126520000D02*
X93500000Y-126520000D01*
X102500000Y-126520000D02*
X98800000Y-126520000D01*
X102500000Y-137020000D02*
X98720000Y-137020000D01*
X102500000Y-137020000D02*
X102500000Y-126520000D01*
X93500000Y-137020000D02*
X93500000Y-126520000D01*
X97280000Y-137020000D02*
X93500000Y-137020000D01*
X96770000Y-140170000D02*
X97630000Y-140170000D01*
X96770000Y-140170000D02*
X96770000Y-139370000D01*
X99800000Y-132520000D02*
G75*
G03*
X99800000Y-132520000I-1800000J0D01*
G01*
%TO.C,J1*%
X111770000Y-140170000D02*
X111770000Y-139370000D01*
X117500000Y-126520000D02*
X113800000Y-126520000D01*
X117500000Y-137020000D02*
X117500000Y-126520000D01*
X111770000Y-140170000D02*
X112630000Y-140170000D01*
X112280000Y-137020000D02*
X108500000Y-137020000D01*
X108500000Y-137020000D02*
X108500000Y-126520000D01*
X117500000Y-137020000D02*
X113720000Y-137020000D01*
X112200000Y-126520000D02*
X108500000Y-126520000D01*
X114800000Y-132520000D02*
G75*
G03*
X114800000Y-132520000I-1800000J0D01*
G01*
%TD*%
M02*
