%TF.GenerationSoftware,KiCad,Pcbnew,(6.0.4-0)*%
%TF.CreationDate,2022-12-20T09:34:10-08:00*%
%TF.ProjectId,harmonic_percolator,6861726d-6f6e-4696-935f-706572636f6c,rev?*%
%TF.SameCoordinates,Original*%
%TF.FileFunction,Legend,Top*%
%TF.FilePolarity,Positive*%
%FSLAX46Y46*%
G04 Gerber Fmt 4.6, Leading zero omitted, Abs format (unit mm)*
G04 Created by KiCad (PCBNEW (6.0.4-0)) date 2022-12-20 09:34:10*
%MOMM*%
%LPD*%
G01*
G04 APERTURE LIST*
%ADD10C,0.150000*%
%ADD11C,0.120000*%
G04 APERTURE END LIST*
D10*
X96328571Y-148052380D02*
X95757142Y-148052380D01*
X96042857Y-148052380D02*
X96042857Y-147052380D01*
X95947619Y-147195238D01*
X95852380Y-147290476D01*
X95757142Y-147338095D01*
X96709523Y-147147619D02*
X96757142Y-147100000D01*
X96852380Y-147052380D01*
X97090476Y-147052380D01*
X97185714Y-147100000D01*
X97233333Y-147147619D01*
X97280952Y-147242857D01*
X97280952Y-147338095D01*
X97233333Y-147480952D01*
X96661904Y-148052380D01*
X97280952Y-148052380D01*
X97614285Y-147385714D02*
X97852380Y-148052380D01*
X98090476Y-147385714D01*
X112185714Y-145171428D02*
X112947619Y-145171428D01*
X113947619Y-145552380D02*
X113376190Y-145552380D01*
X113661904Y-145552380D02*
X113661904Y-144552380D01*
X113566666Y-144695238D01*
X113471428Y-144790476D01*
X113376190Y-144838095D01*
X114328571Y-144647619D02*
X114376190Y-144600000D01*
X114471428Y-144552380D01*
X114709523Y-144552380D01*
X114804761Y-144600000D01*
X114852380Y-144647619D01*
X114900000Y-144742857D01*
X114900000Y-144838095D01*
X114852380Y-144980952D01*
X114280952Y-145552380D01*
X114900000Y-145552380D01*
X115233333Y-144885714D02*
X115471428Y-145552380D01*
X115709523Y-144885714D01*
%TO.C,R4*%
X116158333Y-128452380D02*
X115825000Y-127976190D01*
X115586904Y-128452380D02*
X115586904Y-127452380D01*
X115967857Y-127452380D01*
X116063095Y-127500000D01*
X116110714Y-127547619D01*
X116158333Y-127642857D01*
X116158333Y-127785714D01*
X116110714Y-127880952D01*
X116063095Y-127928571D01*
X115967857Y-127976190D01*
X115586904Y-127976190D01*
X117015476Y-127785714D02*
X117015476Y-128452380D01*
X116777380Y-127404761D02*
X116539285Y-128119047D01*
X117158333Y-128119047D01*
X115328333Y-125917619D02*
X115375952Y-125870000D01*
X115471190Y-125822380D01*
X115709285Y-125822380D01*
X115804523Y-125870000D01*
X115852142Y-125917619D01*
X115899761Y-126012857D01*
X115899761Y-126108095D01*
X115852142Y-126250952D01*
X115280714Y-126822380D01*
X115899761Y-126822380D01*
X116518809Y-125822380D02*
X116614047Y-125822380D01*
X116709285Y-125870000D01*
X116756904Y-125917619D01*
X116804523Y-126012857D01*
X116852142Y-126203333D01*
X116852142Y-126441428D01*
X116804523Y-126631904D01*
X116756904Y-126727142D01*
X116709285Y-126774761D01*
X116614047Y-126822380D01*
X116518809Y-126822380D01*
X116423571Y-126774761D01*
X116375952Y-126727142D01*
X116328333Y-126631904D01*
X116280714Y-126441428D01*
X116280714Y-126203333D01*
X116328333Y-126012857D01*
X116375952Y-125917619D01*
X116423571Y-125870000D01*
X116518809Y-125822380D01*
X117280714Y-126822380D02*
X117280714Y-125822380D01*
X117375952Y-126441428D02*
X117661666Y-126822380D01*
X117661666Y-126155714D02*
X117280714Y-126536666D01*
%TO.C,R2*%
X108588333Y-128452380D02*
X108255000Y-127976190D01*
X108016904Y-128452380D02*
X108016904Y-127452380D01*
X108397857Y-127452380D01*
X108493095Y-127500000D01*
X108540714Y-127547619D01*
X108588333Y-127642857D01*
X108588333Y-127785714D01*
X108540714Y-127880952D01*
X108493095Y-127928571D01*
X108397857Y-127976190D01*
X108016904Y-127976190D01*
X108969285Y-127547619D02*
X109016904Y-127500000D01*
X109112142Y-127452380D01*
X109350238Y-127452380D01*
X109445476Y-127500000D01*
X109493095Y-127547619D01*
X109540714Y-127642857D01*
X109540714Y-127738095D01*
X109493095Y-127880952D01*
X108921666Y-128452380D01*
X109540714Y-128452380D01*
X107112142Y-125917619D02*
X107159761Y-125870000D01*
X107255000Y-125822380D01*
X107493095Y-125822380D01*
X107588333Y-125870000D01*
X107635952Y-125917619D01*
X107683571Y-126012857D01*
X107683571Y-126108095D01*
X107635952Y-126250952D01*
X107064523Y-126822380D01*
X107683571Y-126822380D01*
X108064523Y-125917619D02*
X108112142Y-125870000D01*
X108207380Y-125822380D01*
X108445476Y-125822380D01*
X108540714Y-125870000D01*
X108588333Y-125917619D01*
X108635952Y-126012857D01*
X108635952Y-126108095D01*
X108588333Y-126250952D01*
X108016904Y-126822380D01*
X108635952Y-126822380D01*
X109255000Y-125822380D02*
X109350238Y-125822380D01*
X109445476Y-125870000D01*
X109493095Y-125917619D01*
X109540714Y-126012857D01*
X109588333Y-126203333D01*
X109588333Y-126441428D01*
X109540714Y-126631904D01*
X109493095Y-126727142D01*
X109445476Y-126774761D01*
X109350238Y-126822380D01*
X109255000Y-126822380D01*
X109159761Y-126774761D01*
X109112142Y-126727142D01*
X109064523Y-126631904D01*
X109016904Y-126441428D01*
X109016904Y-126203333D01*
X109064523Y-126012857D01*
X109112142Y-125917619D01*
X109159761Y-125870000D01*
X109255000Y-125822380D01*
X110016904Y-126822380D02*
X110016904Y-125822380D01*
X110112142Y-126441428D02*
X110397857Y-126822380D01*
X110397857Y-126155714D02*
X110016904Y-126536666D01*
%TO.C,C2*%
X112963333Y-46357142D02*
X112915714Y-46404761D01*
X112772857Y-46452380D01*
X112677619Y-46452380D01*
X112534761Y-46404761D01*
X112439523Y-46309523D01*
X112391904Y-46214285D01*
X112344285Y-46023809D01*
X112344285Y-45880952D01*
X112391904Y-45690476D01*
X112439523Y-45595238D01*
X112534761Y-45500000D01*
X112677619Y-45452380D01*
X112772857Y-45452380D01*
X112915714Y-45500000D01*
X112963333Y-45547619D01*
X113344285Y-45547619D02*
X113391904Y-45500000D01*
X113487142Y-45452380D01*
X113725238Y-45452380D01*
X113820476Y-45500000D01*
X113868095Y-45547619D01*
X113915714Y-45642857D01*
X113915714Y-45738095D01*
X113868095Y-45880952D01*
X113296666Y-46452380D01*
X113915714Y-46452380D01*
X115880952Y-45452380D02*
X115404761Y-45452380D01*
X115357142Y-45928571D01*
X115404761Y-45880952D01*
X115500000Y-45833333D01*
X115738095Y-45833333D01*
X115833333Y-45880952D01*
X115880952Y-45928571D01*
X115928571Y-46023809D01*
X115928571Y-46261904D01*
X115880952Y-46357142D01*
X115833333Y-46404761D01*
X115738095Y-46452380D01*
X115500000Y-46452380D01*
X115404761Y-46404761D01*
X115357142Y-46357142D01*
X116547619Y-45452380D02*
X116642857Y-45452380D01*
X116738095Y-45500000D01*
X116785714Y-45547619D01*
X116833333Y-45642857D01*
X116880952Y-45833333D01*
X116880952Y-46071428D01*
X116833333Y-46261904D01*
X116785714Y-46357142D01*
X116738095Y-46404761D01*
X116642857Y-46452380D01*
X116547619Y-46452380D01*
X116452380Y-46404761D01*
X116404761Y-46357142D01*
X116357142Y-46261904D01*
X116309523Y-46071428D01*
X116309523Y-45833333D01*
X116357142Y-45642857D01*
X116404761Y-45547619D01*
X116452380Y-45500000D01*
X116547619Y-45452380D01*
X117309523Y-45785714D02*
X117309523Y-46452380D01*
X117309523Y-45880952D02*
X117357142Y-45833333D01*
X117452380Y-45785714D01*
X117595238Y-45785714D01*
X117690476Y-45833333D01*
X117738095Y-45928571D01*
X117738095Y-46452380D01*
X118547619Y-45928571D02*
X118214285Y-45928571D01*
X118214285Y-46452380D02*
X118214285Y-45452380D01*
X118690476Y-45452380D01*
%TO.C,R3*%
X92082380Y-144896666D02*
X91606190Y-145230000D01*
X92082380Y-145468095D02*
X91082380Y-145468095D01*
X91082380Y-145087142D01*
X91130000Y-144991904D01*
X91177619Y-144944285D01*
X91272857Y-144896666D01*
X91415714Y-144896666D01*
X91510952Y-144944285D01*
X91558571Y-144991904D01*
X91606190Y-145087142D01*
X91606190Y-145468095D01*
X91082380Y-144563333D02*
X91082380Y-143944285D01*
X91463333Y-144277619D01*
X91463333Y-144134761D01*
X91510952Y-144039523D01*
X91558571Y-143991904D01*
X91653809Y-143944285D01*
X91891904Y-143944285D01*
X91987142Y-143991904D01*
X92034761Y-144039523D01*
X92082380Y-144134761D01*
X92082380Y-144420476D01*
X92034761Y-144515714D01*
X91987142Y-144563333D01*
X96822380Y-145801428D02*
X96822380Y-145610952D01*
X96774761Y-145515714D01*
X96727142Y-145468095D01*
X96584285Y-145372857D01*
X96393809Y-145325238D01*
X96012857Y-145325238D01*
X95917619Y-145372857D01*
X95870000Y-145420476D01*
X95822380Y-145515714D01*
X95822380Y-145706190D01*
X95870000Y-145801428D01*
X95917619Y-145849047D01*
X96012857Y-145896666D01*
X96250952Y-145896666D01*
X96346190Y-145849047D01*
X96393809Y-145801428D01*
X96441428Y-145706190D01*
X96441428Y-145515714D01*
X96393809Y-145420476D01*
X96346190Y-145372857D01*
X96250952Y-145325238D01*
X96822380Y-144372857D02*
X96822380Y-144944285D01*
X96822380Y-144658571D02*
X95822380Y-144658571D01*
X95965238Y-144753809D01*
X96060476Y-144849047D01*
X96108095Y-144944285D01*
X96822380Y-143944285D02*
X95822380Y-143944285D01*
X96441428Y-143849047D02*
X96822380Y-143563333D01*
X96155714Y-143563333D02*
X96536666Y-143944285D01*
%TO.C,D2*%
X109922380Y-68548095D02*
X108922380Y-68548095D01*
X108922380Y-68310000D01*
X108970000Y-68167142D01*
X109065238Y-68071904D01*
X109160476Y-68024285D01*
X109350952Y-67976666D01*
X109493809Y-67976666D01*
X109684285Y-68024285D01*
X109779523Y-68071904D01*
X109874761Y-68167142D01*
X109922380Y-68310000D01*
X109922380Y-68548095D01*
X109017619Y-67595714D02*
X108970000Y-67548095D01*
X108922380Y-67452857D01*
X108922380Y-67214761D01*
X108970000Y-67119523D01*
X109017619Y-67071904D01*
X109112857Y-67024285D01*
X109208095Y-67024285D01*
X109350952Y-67071904D01*
X109922380Y-67643333D01*
X109922380Y-67024285D01*
X103809523Y-62452380D02*
X103238095Y-62452380D01*
X103523809Y-62452380D02*
X103523809Y-61452380D01*
X103428571Y-61595238D01*
X103333333Y-61690476D01*
X103238095Y-61738095D01*
X104238095Y-62452380D02*
X104238095Y-61452380D01*
X104809523Y-62452380D01*
X104809523Y-61452380D01*
X105190476Y-61452380D02*
X105809523Y-61452380D01*
X105476190Y-61833333D01*
X105619047Y-61833333D01*
X105714285Y-61880952D01*
X105761904Y-61928571D01*
X105809523Y-62023809D01*
X105809523Y-62261904D01*
X105761904Y-62357142D01*
X105714285Y-62404761D01*
X105619047Y-62452380D01*
X105333333Y-62452380D01*
X105238095Y-62404761D01*
X105190476Y-62357142D01*
X106666666Y-61785714D02*
X106666666Y-62452380D01*
X106428571Y-61404761D02*
X106190476Y-62119047D01*
X106809523Y-62119047D01*
X110452380Y-64261904D02*
X109452380Y-64261904D01*
X110452380Y-63690476D02*
X109880952Y-64119047D01*
X109452380Y-63690476D02*
X110023809Y-64261904D01*
%TO.C,J3*%
X112566666Y-147052380D02*
X112566666Y-147766666D01*
X112519047Y-147909523D01*
X112423809Y-148004761D01*
X112280952Y-148052380D01*
X112185714Y-148052380D01*
X112947619Y-147052380D02*
X113566666Y-147052380D01*
X113233333Y-147433333D01*
X113376190Y-147433333D01*
X113471428Y-147480952D01*
X113519047Y-147528571D01*
X113566666Y-147623809D01*
X113566666Y-147861904D01*
X113519047Y-147957142D01*
X113471428Y-148004761D01*
X113376190Y-148052380D01*
X113090476Y-148052380D01*
X112995238Y-148004761D01*
X112947619Y-147957142D01*
%TO.C,Q2*%
X113504761Y-117547619D02*
X113409523Y-117500000D01*
X113314285Y-117404761D01*
X113171428Y-117261904D01*
X113076190Y-117214285D01*
X112980952Y-117214285D01*
X113028571Y-117452380D02*
X112933333Y-117404761D01*
X112838095Y-117309523D01*
X112790476Y-117119047D01*
X112790476Y-116785714D01*
X112838095Y-116595238D01*
X112933333Y-116500000D01*
X113028571Y-116452380D01*
X113219047Y-116452380D01*
X113314285Y-116500000D01*
X113409523Y-116595238D01*
X113457142Y-116785714D01*
X113457142Y-117119047D01*
X113409523Y-117309523D01*
X113314285Y-117404761D01*
X113219047Y-117452380D01*
X113028571Y-117452380D01*
X113838095Y-116547619D02*
X113885714Y-116500000D01*
X113980952Y-116452380D01*
X114219047Y-116452380D01*
X114314285Y-116500000D01*
X114361904Y-116547619D01*
X114409523Y-116642857D01*
X114409523Y-116738095D01*
X114361904Y-116880952D01*
X113790476Y-117452380D01*
X114409523Y-117452380D01*
X110933333Y-114547619D02*
X110980952Y-114500000D01*
X111076190Y-114452380D01*
X111314285Y-114452380D01*
X111409523Y-114500000D01*
X111457142Y-114547619D01*
X111504761Y-114642857D01*
X111504761Y-114738095D01*
X111457142Y-114880952D01*
X110885714Y-115452380D01*
X111504761Y-115452380D01*
X111933333Y-115452380D02*
X111933333Y-114452380D01*
X112504761Y-115452380D01*
X112504761Y-114452380D01*
X113409523Y-114785714D02*
X113409523Y-115452380D01*
X113171428Y-114404761D02*
X112933333Y-115119047D01*
X113552380Y-115119047D01*
X114123809Y-114452380D02*
X114219047Y-114452380D01*
X114314285Y-114500000D01*
X114361904Y-114547619D01*
X114409523Y-114642857D01*
X114457142Y-114833333D01*
X114457142Y-115071428D01*
X114409523Y-115261904D01*
X114361904Y-115357142D01*
X114314285Y-115404761D01*
X114219047Y-115452380D01*
X114123809Y-115452380D01*
X114028571Y-115404761D01*
X113980952Y-115357142D01*
X113933333Y-115261904D01*
X113885714Y-115071428D01*
X113885714Y-114833333D01*
X113933333Y-114642857D01*
X113980952Y-114547619D01*
X114028571Y-114500000D01*
X114123809Y-114452380D01*
X115314285Y-114785714D02*
X115314285Y-115452380D01*
X115076190Y-114404761D02*
X114838095Y-115119047D01*
X115457142Y-115119047D01*
X115790476Y-115166666D02*
X116266666Y-115166666D01*
X115695238Y-115452380D02*
X116028571Y-114452380D01*
X116361904Y-115452380D01*
%TO.C,D1*%
X100982380Y-68548095D02*
X99982380Y-68548095D01*
X99982380Y-68310000D01*
X100030000Y-68167142D01*
X100125238Y-68071904D01*
X100220476Y-68024285D01*
X100410952Y-67976666D01*
X100553809Y-67976666D01*
X100744285Y-68024285D01*
X100839523Y-68071904D01*
X100934761Y-68167142D01*
X100982380Y-68310000D01*
X100982380Y-68548095D01*
X100982380Y-67024285D02*
X100982380Y-67595714D01*
X100982380Y-67310000D02*
X99982380Y-67310000D01*
X100125238Y-67405238D01*
X100220476Y-67500476D01*
X100268095Y-67595714D01*
X101552380Y-71881904D02*
X100552380Y-71881904D01*
X101552380Y-71310476D02*
X100980952Y-71739047D01*
X100552380Y-71310476D02*
X101123809Y-71881904D01*
%TO.C,R1*%
X101852380Y-119166666D02*
X101376190Y-119500000D01*
X101852380Y-119738095D02*
X100852380Y-119738095D01*
X100852380Y-119357142D01*
X100900000Y-119261904D01*
X100947619Y-119214285D01*
X101042857Y-119166666D01*
X101185714Y-119166666D01*
X101280952Y-119214285D01*
X101328571Y-119261904D01*
X101376190Y-119357142D01*
X101376190Y-119738095D01*
X101852380Y-118214285D02*
X101852380Y-118785714D01*
X101852380Y-118500000D02*
X100852380Y-118500000D01*
X100995238Y-118595238D01*
X101090476Y-118690476D01*
X101138095Y-118785714D01*
X100752380Y-117690476D02*
X100752380Y-117023809D01*
X101752380Y-117452380D01*
X100752380Y-116166666D02*
X100752380Y-116642857D01*
X101228571Y-116690476D01*
X101180952Y-116642857D01*
X101133333Y-116547619D01*
X101133333Y-116309523D01*
X101180952Y-116214285D01*
X101228571Y-116166666D01*
X101323809Y-116119047D01*
X101561904Y-116119047D01*
X101657142Y-116166666D01*
X101704761Y-116214285D01*
X101752380Y-116309523D01*
X101752380Y-116547619D01*
X101704761Y-116642857D01*
X101657142Y-116690476D01*
X100752380Y-115500000D02*
X100752380Y-115404761D01*
X100800000Y-115309523D01*
X100847619Y-115261904D01*
X100942857Y-115214285D01*
X101133333Y-115166666D01*
X101371428Y-115166666D01*
X101561904Y-115214285D01*
X101657142Y-115261904D01*
X101704761Y-115309523D01*
X101752380Y-115404761D01*
X101752380Y-115500000D01*
X101704761Y-115595238D01*
X101657142Y-115642857D01*
X101561904Y-115690476D01*
X101371428Y-115738095D01*
X101133333Y-115738095D01*
X100942857Y-115690476D01*
X100847619Y-115642857D01*
X100800000Y-115595238D01*
X100752380Y-115500000D01*
X101752380Y-114738095D02*
X100752380Y-114738095D01*
X101371428Y-114642857D02*
X101752380Y-114357142D01*
X101085714Y-114357142D02*
X101466666Y-114738095D01*
%TO.C,C1*%
X104833333Y-47357142D02*
X104785714Y-47404761D01*
X104642857Y-47452380D01*
X104547619Y-47452380D01*
X104404761Y-47404761D01*
X104309523Y-47309523D01*
X104261904Y-47214285D01*
X104214285Y-47023809D01*
X104214285Y-46880952D01*
X104261904Y-46690476D01*
X104309523Y-46595238D01*
X104404761Y-46500000D01*
X104547619Y-46452380D01*
X104642857Y-46452380D01*
X104785714Y-46500000D01*
X104833333Y-46547619D01*
X105785714Y-47452380D02*
X105214285Y-47452380D01*
X105500000Y-47452380D02*
X105500000Y-46452380D01*
X105404761Y-46595238D01*
X105309523Y-46690476D01*
X105214285Y-46738095D01*
X102452380Y-49452380D02*
X101880952Y-49452380D01*
X102166666Y-49452380D02*
X102166666Y-48452380D01*
X102071428Y-48595238D01*
X101976190Y-48690476D01*
X101880952Y-48738095D01*
X103071428Y-48452380D02*
X103166666Y-48452380D01*
X103261904Y-48500000D01*
X103309523Y-48547619D01*
X103357142Y-48642857D01*
X103404761Y-48833333D01*
X103404761Y-49071428D01*
X103357142Y-49261904D01*
X103309523Y-49357142D01*
X103261904Y-49404761D01*
X103166666Y-49452380D01*
X103071428Y-49452380D01*
X102976190Y-49404761D01*
X102928571Y-49357142D01*
X102880952Y-49261904D01*
X102833333Y-49071428D01*
X102833333Y-48833333D01*
X102880952Y-48642857D01*
X102928571Y-48547619D01*
X102976190Y-48500000D01*
X103071428Y-48452380D01*
X104023809Y-48452380D02*
X104119047Y-48452380D01*
X104214285Y-48500000D01*
X104261904Y-48547619D01*
X104309523Y-48642857D01*
X104357142Y-48833333D01*
X104357142Y-49071428D01*
X104309523Y-49261904D01*
X104261904Y-49357142D01*
X104214285Y-49404761D01*
X104119047Y-49452380D01*
X104023809Y-49452380D01*
X103928571Y-49404761D01*
X103880952Y-49357142D01*
X103833333Y-49261904D01*
X103785714Y-49071428D01*
X103785714Y-48833333D01*
X103833333Y-48642857D01*
X103880952Y-48547619D01*
X103928571Y-48500000D01*
X104023809Y-48452380D01*
X104785714Y-48785714D02*
X104785714Y-49785714D01*
X104785714Y-48833333D02*
X104880952Y-48785714D01*
X105071428Y-48785714D01*
X105166666Y-48833333D01*
X105214285Y-48880952D01*
X105261904Y-48976190D01*
X105261904Y-49261904D01*
X105214285Y-49357142D01*
X105166666Y-49404761D01*
X105071428Y-49452380D01*
X104880952Y-49452380D01*
X104785714Y-49404761D01*
X106023809Y-48928571D02*
X105690476Y-48928571D01*
X105690476Y-49452380D02*
X105690476Y-48452380D01*
X106166666Y-48452380D01*
%TO.C,C3*%
X105033333Y-114457142D02*
X104985714Y-114504761D01*
X104842857Y-114552380D01*
X104747619Y-114552380D01*
X104604761Y-114504761D01*
X104509523Y-114409523D01*
X104461904Y-114314285D01*
X104414285Y-114123809D01*
X104414285Y-113980952D01*
X104461904Y-113790476D01*
X104509523Y-113695238D01*
X104604761Y-113600000D01*
X104747619Y-113552380D01*
X104842857Y-113552380D01*
X104985714Y-113600000D01*
X105033333Y-113647619D01*
X105366666Y-113552380D02*
X105985714Y-113552380D01*
X105652380Y-113933333D01*
X105795238Y-113933333D01*
X105890476Y-113980952D01*
X105938095Y-114028571D01*
X105985714Y-114123809D01*
X105985714Y-114361904D01*
X105938095Y-114457142D01*
X105890476Y-114504761D01*
X105795238Y-114552380D01*
X105509523Y-114552380D01*
X105414285Y-114504761D01*
X105366666Y-114457142D01*
X104052380Y-116052380D02*
X103480952Y-116052380D01*
X103766666Y-116052380D02*
X103766666Y-115052380D01*
X103671428Y-115195238D01*
X103576190Y-115290476D01*
X103480952Y-115338095D01*
X104671428Y-115052380D02*
X104766666Y-115052380D01*
X104861904Y-115100000D01*
X104909523Y-115147619D01*
X104957142Y-115242857D01*
X105004761Y-115433333D01*
X105004761Y-115671428D01*
X104957142Y-115861904D01*
X104909523Y-115957142D01*
X104861904Y-116004761D01*
X104766666Y-116052380D01*
X104671428Y-116052380D01*
X104576190Y-116004761D01*
X104528571Y-115957142D01*
X104480952Y-115861904D01*
X104433333Y-115671428D01*
X104433333Y-115433333D01*
X104480952Y-115242857D01*
X104528571Y-115147619D01*
X104576190Y-115100000D01*
X104671428Y-115052380D01*
X105623809Y-115052380D02*
X105719047Y-115052380D01*
X105814285Y-115100000D01*
X105861904Y-115147619D01*
X105909523Y-115242857D01*
X105957142Y-115433333D01*
X105957142Y-115671428D01*
X105909523Y-115861904D01*
X105861904Y-115957142D01*
X105814285Y-116004761D01*
X105719047Y-116052380D01*
X105623809Y-116052380D01*
X105528571Y-116004761D01*
X105480952Y-115957142D01*
X105433333Y-115861904D01*
X105385714Y-115671428D01*
X105385714Y-115433333D01*
X105433333Y-115242857D01*
X105480952Y-115147619D01*
X105528571Y-115100000D01*
X105623809Y-115052380D01*
X106385714Y-115385714D02*
X106385714Y-116052380D01*
X106385714Y-115480952D02*
X106433333Y-115433333D01*
X106528571Y-115385714D01*
X106671428Y-115385714D01*
X106766666Y-115433333D01*
X106814285Y-115528571D01*
X106814285Y-116052380D01*
X107623809Y-115528571D02*
X107290476Y-115528571D01*
X107290476Y-116052380D02*
X107290476Y-115052380D01*
X107766666Y-115052380D01*
%TO.C,C5*%
X98357142Y-123416666D02*
X98404761Y-123464285D01*
X98452380Y-123607142D01*
X98452380Y-123702380D01*
X98404761Y-123845238D01*
X98309523Y-123940476D01*
X98214285Y-123988095D01*
X98023809Y-124035714D01*
X97880952Y-124035714D01*
X97690476Y-123988095D01*
X97595238Y-123940476D01*
X97500000Y-123845238D01*
X97452380Y-123702380D01*
X97452380Y-123607142D01*
X97500000Y-123464285D01*
X97547619Y-123416666D01*
X97452380Y-122511904D02*
X97452380Y-122988095D01*
X97928571Y-123035714D01*
X97880952Y-122988095D01*
X97833333Y-122892857D01*
X97833333Y-122654761D01*
X97880952Y-122559523D01*
X97928571Y-122511904D01*
X98023809Y-122464285D01*
X98261904Y-122464285D01*
X98357142Y-122511904D01*
X98404761Y-122559523D01*
X98452380Y-122654761D01*
X98452380Y-122892857D01*
X98404761Y-122988095D01*
X98357142Y-123035714D01*
X99035714Y-124416666D02*
X99702380Y-124416666D01*
X98654761Y-124654761D02*
X99369047Y-124892857D01*
X99369047Y-124273809D01*
X98702380Y-123988095D02*
X98702380Y-123321428D01*
X99702380Y-123750000D01*
X99035714Y-122511904D02*
X99702380Y-122511904D01*
X99035714Y-122940476D02*
X99559523Y-122940476D01*
X99654761Y-122892857D01*
X99702380Y-122797619D01*
X99702380Y-122654761D01*
X99654761Y-122559523D01*
X99607142Y-122511904D01*
X99178571Y-121702380D02*
X99178571Y-122035714D01*
X99702380Y-122035714D02*
X98702380Y-122035714D01*
X98702380Y-121559523D01*
%TO.C,C4*%
X107857142Y-109166666D02*
X107904761Y-109214285D01*
X107952380Y-109357142D01*
X107952380Y-109452380D01*
X107904761Y-109595238D01*
X107809523Y-109690476D01*
X107714285Y-109738095D01*
X107523809Y-109785714D01*
X107380952Y-109785714D01*
X107190476Y-109738095D01*
X107095238Y-109690476D01*
X107000000Y-109595238D01*
X106952380Y-109452380D01*
X106952380Y-109357142D01*
X107000000Y-109214285D01*
X107047619Y-109166666D01*
X107285714Y-108309523D02*
X107952380Y-108309523D01*
X106904761Y-108547619D02*
X107619047Y-108785714D01*
X107619047Y-108166666D01*
X102952380Y-110547619D02*
X102952380Y-111119047D01*
X102952380Y-110833333D02*
X101952380Y-110833333D01*
X102095238Y-110928571D01*
X102190476Y-111023809D01*
X102238095Y-111119047D01*
X101952380Y-109928571D02*
X101952380Y-109833333D01*
X102000000Y-109738095D01*
X102047619Y-109690476D01*
X102142857Y-109642857D01*
X102333333Y-109595238D01*
X102571428Y-109595238D01*
X102761904Y-109642857D01*
X102857142Y-109690476D01*
X102904761Y-109738095D01*
X102952380Y-109833333D01*
X102952380Y-109928571D01*
X102904761Y-110023809D01*
X102857142Y-110071428D01*
X102761904Y-110119047D01*
X102571428Y-110166666D01*
X102333333Y-110166666D01*
X102142857Y-110119047D01*
X102047619Y-110071428D01*
X102000000Y-110023809D01*
X101952380Y-109928571D01*
X101952380Y-108976190D02*
X101952380Y-108880952D01*
X102000000Y-108785714D01*
X102047619Y-108738095D01*
X102142857Y-108690476D01*
X102333333Y-108642857D01*
X102571428Y-108642857D01*
X102761904Y-108690476D01*
X102857142Y-108738095D01*
X102904761Y-108785714D01*
X102952380Y-108880952D01*
X102952380Y-108976190D01*
X102904761Y-109071428D01*
X102857142Y-109119047D01*
X102761904Y-109166666D01*
X102571428Y-109214285D01*
X102333333Y-109214285D01*
X102142857Y-109166666D01*
X102047619Y-109119047D01*
X102000000Y-109071428D01*
X101952380Y-108976190D01*
X102285714Y-108214285D02*
X102952380Y-108214285D01*
X102380952Y-108214285D02*
X102333333Y-108166666D01*
X102285714Y-108071428D01*
X102285714Y-107928571D01*
X102333333Y-107833333D01*
X102428571Y-107785714D01*
X102952380Y-107785714D01*
X102428571Y-106976190D02*
X102428571Y-107309523D01*
X102952380Y-107309523D02*
X101952380Y-107309523D01*
X101952380Y-106833333D01*
%TO.C,R5*%
X105103333Y-74082380D02*
X104770000Y-73606190D01*
X104531904Y-74082380D02*
X104531904Y-73082380D01*
X104912857Y-73082380D01*
X105008095Y-73130000D01*
X105055714Y-73177619D01*
X105103333Y-73272857D01*
X105103333Y-73415714D01*
X105055714Y-73510952D01*
X105008095Y-73558571D01*
X104912857Y-73606190D01*
X104531904Y-73606190D01*
X106008095Y-73082380D02*
X105531904Y-73082380D01*
X105484285Y-73558571D01*
X105531904Y-73510952D01*
X105627142Y-73463333D01*
X105865238Y-73463333D01*
X105960476Y-73510952D01*
X106008095Y-73558571D01*
X106055714Y-73653809D01*
X106055714Y-73891904D01*
X106008095Y-73987142D01*
X105960476Y-74034761D01*
X105865238Y-74082380D01*
X105627142Y-74082380D01*
X105531904Y-74034761D01*
X105484285Y-73987142D01*
X104579523Y-78155714D02*
X104579523Y-78822380D01*
X104341428Y-77774761D02*
X104103333Y-78489047D01*
X104722380Y-78489047D01*
X105103333Y-78822380D02*
X105103333Y-77822380D01*
X105198571Y-78441428D02*
X105484285Y-78822380D01*
X105484285Y-78155714D02*
X105103333Y-78536666D01*
X105817619Y-77822380D02*
X106484285Y-77822380D01*
X106055714Y-78822380D01*
%TO.C,Q1*%
X92404761Y-113247619D02*
X92309523Y-113200000D01*
X92214285Y-113104761D01*
X92071428Y-112961904D01*
X91976190Y-112914285D01*
X91880952Y-112914285D01*
X91928571Y-113152380D02*
X91833333Y-113104761D01*
X91738095Y-113009523D01*
X91690476Y-112819047D01*
X91690476Y-112485714D01*
X91738095Y-112295238D01*
X91833333Y-112200000D01*
X91928571Y-112152380D01*
X92119047Y-112152380D01*
X92214285Y-112200000D01*
X92309523Y-112295238D01*
X92357142Y-112485714D01*
X92357142Y-112819047D01*
X92309523Y-113009523D01*
X92214285Y-113104761D01*
X92119047Y-113152380D01*
X91928571Y-113152380D01*
X93309523Y-113152380D02*
X92738095Y-113152380D01*
X93023809Y-113152380D02*
X93023809Y-112152380D01*
X92928571Y-112295238D01*
X92833333Y-112390476D01*
X92738095Y-112438095D01*
X94685714Y-112247619D02*
X94733333Y-112200000D01*
X94828571Y-112152380D01*
X95066666Y-112152380D01*
X95161904Y-112200000D01*
X95209523Y-112247619D01*
X95257142Y-112342857D01*
X95257142Y-112438095D01*
X95209523Y-112580952D01*
X94638095Y-113152380D01*
X95257142Y-113152380D01*
X95685714Y-113152380D02*
X95685714Y-112152380D01*
X96257142Y-113152380D01*
X96257142Y-112152380D01*
X96638095Y-112152380D02*
X97257142Y-112152380D01*
X96923809Y-112533333D01*
X97066666Y-112533333D01*
X97161904Y-112580952D01*
X97209523Y-112628571D01*
X97257142Y-112723809D01*
X97257142Y-112961904D01*
X97209523Y-113057142D01*
X97161904Y-113104761D01*
X97066666Y-113152380D01*
X96780952Y-113152380D01*
X96685714Y-113104761D01*
X96638095Y-113057142D01*
X97733333Y-113152380D02*
X97923809Y-113152380D01*
X98019047Y-113104761D01*
X98066666Y-113057142D01*
X98161904Y-112914285D01*
X98209523Y-112723809D01*
X98209523Y-112342857D01*
X98161904Y-112247619D01*
X98114285Y-112200000D01*
X98019047Y-112152380D01*
X97828571Y-112152380D01*
X97733333Y-112200000D01*
X97685714Y-112247619D01*
X97638095Y-112342857D01*
X97638095Y-112580952D01*
X97685714Y-112676190D01*
X97733333Y-112723809D01*
X97828571Y-112771428D01*
X98019047Y-112771428D01*
X98114285Y-112723809D01*
X98161904Y-112676190D01*
X98209523Y-112580952D01*
X98828571Y-112152380D02*
X98923809Y-112152380D01*
X99019047Y-112200000D01*
X99066666Y-112247619D01*
X99114285Y-112342857D01*
X99161904Y-112533333D01*
X99161904Y-112771428D01*
X99114285Y-112961904D01*
X99066666Y-113057142D01*
X99019047Y-113104761D01*
X98923809Y-113152380D01*
X98828571Y-113152380D01*
X98733333Y-113104761D01*
X98685714Y-113057142D01*
X98638095Y-112961904D01*
X98590476Y-112771428D01*
X98590476Y-112533333D01*
X98638095Y-112342857D01*
X98685714Y-112247619D01*
X98733333Y-112200000D01*
X98828571Y-112152380D01*
X100019047Y-112485714D02*
X100019047Y-113152380D01*
X99780952Y-112104761D02*
X99542857Y-112819047D01*
X100161904Y-112819047D01*
D11*
%TO.C,R4*%
X116325000Y-124000000D02*
X116395000Y-124000000D01*
X116325000Y-124000000D02*
G75*
G03*
X116325000Y-124000000I-1370000J0D01*
G01*
%TO.C,R2*%
X110125000Y-124000000D02*
X110195000Y-124000000D01*
X110125000Y-124000000D02*
G75*
G03*
X110125000Y-124000000I-1370000J0D01*
G01*
%TO.C,C2*%
X118370000Y-49370000D02*
X118370000Y-46630000D01*
X118370000Y-46630000D02*
X113130000Y-46630000D01*
X113130000Y-49370000D02*
X113130000Y-46630000D01*
X118370000Y-49370000D02*
X113130000Y-49370000D01*
%TO.C,R3*%
X94000000Y-144630000D02*
X94000000Y-144560000D01*
X95370000Y-146000000D02*
G75*
G03*
X95370000Y-146000000I-1370000J0D01*
G01*
%TO.C,D2*%
X108470000Y-65090000D02*
X108470000Y-70530000D01*
X105860000Y-65090000D02*
X105530000Y-65090000D01*
X108470000Y-65990000D02*
X105530000Y-65990000D01*
X108470000Y-65870000D02*
X105530000Y-65870000D01*
X108470000Y-70530000D02*
X108140000Y-70530000D01*
X105530000Y-70530000D02*
X105860000Y-70530000D01*
X108140000Y-65090000D02*
X108470000Y-65090000D01*
X105530000Y-65090000D02*
X105530000Y-70530000D01*
X108470000Y-66110000D02*
X105530000Y-66110000D01*
%TO.C,J3*%
X111330000Y-147595000D02*
X98510000Y-147595000D01*
X111330000Y-142395000D02*
X111330000Y-143725000D01*
X110000000Y-142395000D02*
X111330000Y-142395000D01*
X108730000Y-142395000D02*
X98510000Y-142395000D01*
X108730000Y-142395000D02*
X108730000Y-144995000D01*
X108730000Y-144995000D02*
X111330000Y-144995000D01*
X98510000Y-142395000D02*
X98510000Y-147595000D01*
X111330000Y-144995000D02*
X111330000Y-147595000D01*
%TO.C,Q2*%
X108934144Y-113111961D02*
X109825098Y-114002916D01*
X110602916Y-113225098D02*
X109711961Y-112334144D01*
X109711961Y-112334144D02*
X108934144Y-113111961D01*
X109825326Y-114002629D02*
G75*
G03*
X110602916Y-113225098I3774674J-2997371D01*
G01*
%TO.C,D1*%
X101530000Y-70530000D02*
X101530000Y-65090000D01*
X104140000Y-70530000D02*
X104470000Y-70530000D01*
X101530000Y-65090000D02*
X101860000Y-65090000D01*
X104470000Y-65090000D02*
X104140000Y-65090000D01*
X104470000Y-70530000D02*
X104470000Y-65090000D01*
X101530000Y-69750000D02*
X104470000Y-69750000D01*
X101530000Y-69510000D02*
X104470000Y-69510000D01*
X101860000Y-70530000D02*
X101530000Y-70530000D01*
X101530000Y-69630000D02*
X104470000Y-69630000D01*
%TO.C,R1*%
X99000000Y-116630000D02*
X99000000Y-116560000D01*
X100370000Y-118000000D02*
G75*
G03*
X100370000Y-118000000I-1370000J0D01*
G01*
%TO.C,C1*%
X112370000Y-49370000D02*
X107130000Y-49370000D01*
X107130000Y-49370000D02*
X107130000Y-46630000D01*
X112370000Y-46630000D02*
X107130000Y-46630000D01*
X112370000Y-49370000D02*
X112370000Y-46630000D01*
%TO.C,C3*%
X102630000Y-119370000D02*
X107870000Y-119370000D01*
X107870000Y-116630000D02*
X107870000Y-119370000D01*
X102630000Y-116630000D02*
X102630000Y-119370000D01*
X102630000Y-116630000D02*
X107870000Y-116630000D01*
%TO.C,C5*%
X105576000Y-123410000D02*
X100424000Y-123410000D01*
X105290000Y-124451000D02*
X104040000Y-124451000D01*
X104971000Y-124931000D02*
X104040000Y-124931000D01*
X101960000Y-123850000D02*
X100489000Y-123850000D01*
X101960000Y-123770000D02*
X100472000Y-123770000D01*
X101960000Y-123570000D02*
X100439000Y-123570000D01*
X101960000Y-124891000D02*
X100996000Y-124891000D01*
X101960000Y-124571000D02*
X100776000Y-124571000D01*
X105398000Y-124211000D02*
X104040000Y-124211000D01*
X105268000Y-124491000D02*
X104040000Y-124491000D01*
X101960000Y-124051000D02*
X100545000Y-124051000D01*
X105329000Y-124371000D02*
X104040000Y-124371000D01*
X104937000Y-124971000D02*
X104040000Y-124971000D01*
X101960000Y-123730000D02*
X100464000Y-123730000D01*
X101960000Y-123890000D02*
X100499000Y-123890000D01*
X101960000Y-124291000D02*
X100635000Y-124291000D01*
X104901000Y-125011000D02*
X104040000Y-125011000D01*
X105065000Y-124811000D02*
X104040000Y-124811000D01*
X105569000Y-123490000D02*
X104040000Y-123490000D01*
X101960000Y-124091000D02*
X100558000Y-124091000D01*
X105580000Y-123290000D02*
X100420000Y-123290000D01*
X105543000Y-123690000D02*
X104040000Y-123690000D01*
X105310000Y-124411000D02*
X104040000Y-124411000D01*
X105122000Y-124731000D02*
X104040000Y-124731000D01*
X101960000Y-125291000D02*
X101395000Y-125291000D01*
X105491000Y-123930000D02*
X104040000Y-123930000D01*
X105550000Y-123650000D02*
X104040000Y-123650000D01*
X105455000Y-124051000D02*
X104040000Y-124051000D01*
X105528000Y-123770000D02*
X104040000Y-123770000D01*
X105414000Y-124171000D02*
X104040000Y-124171000D01*
X104500000Y-125371000D02*
X104040000Y-125371000D01*
X104605000Y-125291000D02*
X104040000Y-125291000D01*
X104785000Y-125131000D02*
X104040000Y-125131000D01*
X101960000Y-123810000D02*
X100480000Y-123810000D01*
X104699000Y-125211000D02*
X104040000Y-125211000D01*
X105511000Y-123850000D02*
X104040000Y-123850000D01*
X105365000Y-124291000D02*
X104040000Y-124291000D01*
X101960000Y-123690000D02*
X100457000Y-123690000D01*
X105247000Y-124531000D02*
X104040000Y-124531000D01*
X101960000Y-123930000D02*
X100509000Y-123930000D01*
X105480000Y-123971000D02*
X104040000Y-123971000D01*
X105428000Y-124131000D02*
X104040000Y-124131000D01*
X105095000Y-124771000D02*
X104040000Y-124771000D01*
X101960000Y-125491000D02*
X101681000Y-125491000D01*
X101960000Y-125091000D02*
X101174000Y-125091000D01*
X101960000Y-124811000D02*
X100935000Y-124811000D01*
X105579000Y-123330000D02*
X100421000Y-123330000D01*
X101960000Y-125251000D02*
X101347000Y-125251000D01*
X105501000Y-123890000D02*
X104040000Y-123890000D01*
X101960000Y-123490000D02*
X100431000Y-123490000D01*
X105035000Y-124851000D02*
X104040000Y-124851000D01*
X104098000Y-125611000D02*
X101902000Y-125611000D01*
X101960000Y-124731000D02*
X100878000Y-124731000D01*
X105573000Y-123450000D02*
X100427000Y-123450000D01*
X104475000Y-120445225D02*
X104475000Y-120945225D01*
X104383000Y-125451000D02*
X104040000Y-125451000D01*
X103915000Y-125691000D02*
X102085000Y-125691000D01*
X104826000Y-125091000D02*
X104040000Y-125091000D01*
X105224000Y-124571000D02*
X104040000Y-124571000D01*
X101960000Y-125051000D02*
X101136000Y-125051000D01*
X101960000Y-124331000D02*
X100652000Y-124331000D01*
X104011000Y-125651000D02*
X101989000Y-125651000D01*
X105468000Y-124011000D02*
X104040000Y-124011000D01*
X103677000Y-125771000D02*
X102323000Y-125771000D01*
X101960000Y-124491000D02*
X100732000Y-124491000D01*
X101960000Y-123530000D02*
X100435000Y-123530000D01*
X101960000Y-123971000D02*
X100520000Y-123971000D01*
X104319000Y-125491000D02*
X104040000Y-125491000D01*
X104251000Y-125531000D02*
X104040000Y-125531000D01*
X105578000Y-123370000D02*
X100422000Y-123370000D01*
X101960000Y-124651000D02*
X100825000Y-124651000D01*
X101960000Y-123650000D02*
X100450000Y-123650000D01*
X105382000Y-124251000D02*
X104040000Y-124251000D01*
X103518000Y-125811000D02*
X102482000Y-125811000D01*
X105580000Y-123250000D02*
X100420000Y-123250000D01*
X104725000Y-120695225D02*
X104225000Y-120695225D01*
X101960000Y-124691000D02*
X100851000Y-124691000D01*
X101960000Y-124211000D02*
X100602000Y-124211000D01*
X105004000Y-124891000D02*
X104040000Y-124891000D01*
X101960000Y-125011000D02*
X101099000Y-125011000D01*
X101960000Y-124251000D02*
X100618000Y-124251000D01*
X105561000Y-123570000D02*
X104040000Y-123570000D01*
X101960000Y-124971000D02*
X101063000Y-124971000D01*
X105149000Y-124691000D02*
X104040000Y-124691000D01*
X101960000Y-124411000D02*
X100690000Y-124411000D01*
X105348000Y-124331000D02*
X104040000Y-124331000D01*
X105175000Y-124651000D02*
X104040000Y-124651000D01*
X101960000Y-124851000D02*
X100965000Y-124851000D01*
X103284000Y-125851000D02*
X102716000Y-125851000D01*
X105200000Y-124611000D02*
X104040000Y-124611000D01*
X105442000Y-124091000D02*
X104040000Y-124091000D01*
X101960000Y-125211000D02*
X101301000Y-125211000D01*
X105565000Y-123530000D02*
X104040000Y-123530000D01*
X101960000Y-125451000D02*
X101617000Y-125451000D01*
X104554000Y-125331000D02*
X104040000Y-125331000D01*
X101960000Y-124011000D02*
X100532000Y-124011000D01*
X101960000Y-124771000D02*
X100905000Y-124771000D01*
X101960000Y-124531000D02*
X100753000Y-124531000D01*
X105520000Y-123810000D02*
X104040000Y-123810000D01*
X104653000Y-125251000D02*
X104040000Y-125251000D01*
X104864000Y-125051000D02*
X104040000Y-125051000D01*
X101960000Y-125331000D02*
X101446000Y-125331000D01*
X101960000Y-125411000D02*
X101557000Y-125411000D01*
X104178000Y-125571000D02*
X101822000Y-125571000D01*
X101960000Y-125371000D02*
X101500000Y-125371000D01*
X101960000Y-125531000D02*
X101749000Y-125531000D01*
X101960000Y-124931000D02*
X101029000Y-124931000D01*
X101960000Y-124131000D02*
X100572000Y-124131000D01*
X104443000Y-125411000D02*
X104040000Y-125411000D01*
X104743000Y-125171000D02*
X104040000Y-125171000D01*
X101960000Y-124371000D02*
X100671000Y-124371000D01*
X105556000Y-123610000D02*
X104040000Y-123610000D01*
X101960000Y-125131000D02*
X101215000Y-125131000D01*
X101960000Y-124451000D02*
X100710000Y-124451000D01*
X101960000Y-124611000D02*
X100800000Y-124611000D01*
X101960000Y-124171000D02*
X100586000Y-124171000D01*
X105536000Y-123730000D02*
X104040000Y-123730000D01*
X101960000Y-123610000D02*
X100444000Y-123610000D01*
X101960000Y-125171000D02*
X101257000Y-125171000D01*
X103805000Y-125731000D02*
X102195000Y-125731000D01*
X105620000Y-123250000D02*
G75*
G03*
X105620000Y-123250000I-2620000J0D01*
G01*
%TO.C,C4*%
X106370000Y-105630000D02*
X103630000Y-105630000D01*
X103630000Y-105630000D02*
X103630000Y-110870000D01*
X106370000Y-105630000D02*
X106370000Y-110870000D01*
X106370000Y-110870000D02*
X103630000Y-110870000D01*
%TO.C,R5*%
X105370000Y-76000000D02*
X105440000Y-76000000D01*
X105370000Y-76000000D02*
G75*
G03*
X105370000Y-76000000I-1370000J0D01*
G01*
%TO.C,Q1*%
X92150000Y-114470000D02*
X92150000Y-118070000D01*
X96600001Y-116270000D02*
G75*
G03*
X92161522Y-114431522I-2600001J0D01*
G01*
X92161522Y-118108478D02*
G75*
G03*
X96600000Y-116270000I1838478J1838478D01*
G01*
%TD*%
M02*
