%TF.GenerationSoftware,KiCad,Pcbnew,(6.0.4-0)*%
%TF.CreationDate,2022-12-20T09:34:10-08:00*%
%TF.ProjectId,harmonic_percolator,6861726d-6f6e-4696-935f-706572636f6c,rev?*%
%TF.SameCoordinates,Original*%
%TF.FileFunction,Copper,L2,Bot*%
%TF.FilePolarity,Positive*%
%FSLAX46Y46*%
G04 Gerber Fmt 4.6, Leading zero omitted, Abs format (unit mm)*
G04 Created by KiCad (PCBNEW (6.0.4-0)) date 2022-12-20 09:34:10*
%MOMM*%
%LPD*%
G01*
G04 APERTURE LIST*
%TA.AperFunction,ComponentPad*%
%ADD10C,1.600000*%
%TD*%
%TA.AperFunction,ComponentPad*%
%ADD11O,1.600000X1.600000*%
%TD*%
%TA.AperFunction,ComponentPad*%
%ADD12R,1.800000X1.800000*%
%TD*%
%TA.AperFunction,ComponentPad*%
%ADD13O,1.800000X1.800000*%
%TD*%
%TA.AperFunction,ComponentPad*%
%ADD14R,1.700000X1.700000*%
%TD*%
%TA.AperFunction,ComponentPad*%
%ADD15O,1.700000X1.700000*%
%TD*%
%TA.AperFunction,ComponentPad*%
%ADD16O,1.600000X1.200000*%
%TD*%
%TA.AperFunction,ComponentPad*%
%ADD17O,1.200000X1.200000*%
%TD*%
%TA.AperFunction,ComponentPad*%
%ADD18R,1.600000X1.600000*%
%TD*%
%TA.AperFunction,ComponentPad*%
%ADD19R,1.300000X1.300000*%
%TD*%
%TA.AperFunction,ComponentPad*%
%ADD20C,1.300000*%
%TD*%
%TA.AperFunction,ComponentPad*%
%ADD21R,1.750000X1.750000*%
%TD*%
%TA.AperFunction,ComponentPad*%
%ADD22C,1.750000*%
%TD*%
%TA.AperFunction,ComponentPad*%
%ADD23C,2.700000*%
%TD*%
%TA.AperFunction,ComponentPad*%
%ADD24R,1.930000X1.830000*%
%TD*%
%TA.AperFunction,ComponentPad*%
%ADD25C,2.130000*%
%TD*%
%TA.AperFunction,Conductor*%
%ADD26C,0.500000*%
%TD*%
%TA.AperFunction,Conductor*%
%ADD27C,0.250000*%
%TD*%
G04 APERTURE END LIST*
D10*
%TO.P,R4,1*%
%TO.N,Net-(Q2-Pad3)*%
X114955000Y-124000000D03*
D11*
%TO.P,R4,2*%
%TO.N,GND*%
X117495000Y-124000000D03*
%TD*%
D10*
%TO.P,R2,1*%
%TO.N,Net-(C2-Pad1)*%
X108755000Y-124000000D03*
D11*
%TO.P,R2,2*%
%TO.N,Net-(Q2-Pad3)*%
X111295000Y-124000000D03*
%TD*%
D10*
%TO.P,C2,1*%
%TO.N,Net-(C2-Pad1)*%
X117000000Y-48000000D03*
%TO.P,C2,2*%
%TO.N,Net-(C1-Pad1)*%
X114500000Y-48000000D03*
%TD*%
%TO.P,R3,1*%
%TO.N,+12V*%
X94000000Y-146000000D03*
D11*
%TO.P,R3,2*%
%TO.N,Net-(C4-Pad2)*%
X94000000Y-143460000D03*
%TD*%
D12*
%TO.P,D2,1,K*%
%TO.N,GND*%
X107000000Y-64000000D03*
D13*
%TO.P,D2,2,A*%
%TO.N,Net-(D2-Pad2)*%
X107000000Y-71620000D03*
%TD*%
D14*
%TO.P,J3,1,Pin_1*%
%TO.N,-12V*%
X110000000Y-143725000D03*
D15*
%TO.P,J3,2,Pin_2*%
X110000000Y-146265000D03*
%TO.P,J3,3,Pin_3*%
%TO.N,GND*%
X107460000Y-143725000D03*
%TO.P,J3,4,Pin_4*%
X107460000Y-146265000D03*
%TO.P,J3,5,Pin_5*%
X104920000Y-143725000D03*
%TO.P,J3,6,Pin_6*%
X104920000Y-146265000D03*
%TO.P,J3,7,Pin_7*%
X102380000Y-143725000D03*
%TO.P,J3,8,Pin_8*%
X102380000Y-146265000D03*
%TO.P,J3,9,Pin_9*%
%TO.N,+12V*%
X99840000Y-143725000D03*
%TO.P,J3,10,Pin_10*%
X99840000Y-146265000D03*
%TD*%
D16*
%TO.P,Q2,1,E*%
%TO.N,Net-(C5-Pad1)*%
X111060000Y-117000000D03*
D17*
%TO.P,Q2,2,B*%
%TO.N,Net-(C2-Pad1)*%
X113600000Y-119540000D03*
%TO.P,Q2,3,C*%
%TO.N,Net-(Q2-Pad3)*%
X116140000Y-117000000D03*
%TD*%
D12*
%TO.P,D1,1,K*%
%TO.N,Net-(C4-Pad1)*%
X103000000Y-71620000D03*
D13*
%TO.P,D1,2,A*%
%TO.N,GND*%
X103000000Y-64000000D03*
%TD*%
D10*
%TO.P,R1,1*%
%TO.N,Net-(C4-Pad2)*%
X99000000Y-118000000D03*
D11*
%TO.P,R1,2*%
%TO.N,Net-(C3-Pad1)*%
X99000000Y-115460000D03*
%TD*%
D10*
%TO.P,C1,1*%
%TO.N,Net-(C1-Pad1)*%
X111000000Y-48000000D03*
%TO.P,C1,2*%
%TO.N,GND*%
X108500000Y-48000000D03*
%TD*%
%TO.P,C3,1*%
%TO.N,Net-(C3-Pad1)*%
X104000000Y-118000000D03*
%TO.P,C3,2*%
%TO.N,Net-(C2-Pad1)*%
X106500000Y-118000000D03*
%TD*%
D18*
%TO.P,C5,1*%
%TO.N,Net-(C5-Pad1)*%
X103000000Y-122000000D03*
D10*
%TO.P,C5,2*%
%TO.N,GND*%
X103000000Y-124500000D03*
%TD*%
%TO.P,C4,1*%
%TO.N,Net-(C4-Pad1)*%
X105000000Y-107000000D03*
%TO.P,C4,2*%
%TO.N,Net-(C4-Pad2)*%
X105000000Y-109500000D03*
%TD*%
%TO.P,R5,1*%
%TO.N,Net-(C4-Pad1)*%
X104000000Y-76000000D03*
D11*
%TO.P,R5,2*%
%TO.N,Net-(D2-Pad2)*%
X106540000Y-76000000D03*
%TD*%
D19*
%TO.P,Q1,1,E*%
%TO.N,Net-(C5-Pad1)*%
X94000000Y-115000000D03*
D20*
%TO.P,Q1,2,B*%
%TO.N,Net-(C3-Pad1)*%
X95270000Y-116270000D03*
%TO.P,Q1,3,C*%
%TO.N,Net-(C4-Pad2)*%
X94000000Y-117540000D03*
%TD*%
D21*
%TO.P,RV1 harmonics ,1,1*%
%TO.N,Net-(J1-PadT)*%
X111250000Y-51000000D03*
D22*
%TO.P,RV1 harmonics ,2,2*%
%TO.N,Net-(C1-Pad1)*%
X114750000Y-51000000D03*
%TO.P,RV1 harmonics ,3,3*%
%TO.N,GND*%
X111250000Y-109500000D03*
D23*
%TO.P,RV1 harmonics ,MP*%
%TO.N,N/C*%
X108800000Y-56350000D03*
X117200000Y-105350000D03*
X108800000Y-104150000D03*
X117200000Y-55150000D03*
%TD*%
D21*
%TO.P,RV2 balance,1,1*%
%TO.N,Net-(C4-Pad1)*%
X95250000Y-51000000D03*
D22*
%TO.P,RV2 balance,2,2*%
%TO.N,Net-(J2-PadT)*%
X98750000Y-51000000D03*
%TO.P,RV2 balance,3,3*%
%TO.N,GND*%
X95250000Y-109500000D03*
D23*
%TO.P,RV2 balance,MP*%
%TO.N,N/C*%
X92800000Y-56350000D03*
X92800000Y-104150000D03*
X101200000Y-105350000D03*
X101200000Y-55150000D03*
%TD*%
D24*
%TO.P,J2,S*%
%TO.N,GND*%
X98000000Y-139000000D03*
D25*
%TO.P,J2,T*%
%TO.N,Net-(J2-PadT)*%
X98000000Y-127600000D03*
%TO.P,J2,TN*%
%TO.N,N/C*%
X98000000Y-135900000D03*
%TD*%
D24*
%TO.P,J1,S*%
%TO.N,GND*%
X113000000Y-139000000D03*
D25*
%TO.P,J1,T*%
%TO.N,Net-(J1-PadT)*%
X113000000Y-127600000D03*
%TO.P,J1,TN*%
%TO.N,N/C*%
X113000000Y-135900000D03*
%TD*%
D26*
%TO.N,GND*%
X117700000Y-123700000D02*
X117700000Y-115950000D01*
X117700000Y-115950000D02*
X111250000Y-109500000D01*
D27*
%TO.N,Net-(C2-Pad1)*%
X112000000Y-57981883D02*
X112000000Y-107000000D01*
X106500000Y-112500000D02*
X106500000Y-118000000D01*
X117000000Y-48000000D02*
X117000000Y-52981883D01*
X112000000Y-107000000D02*
X106500000Y-112500000D01*
X117000000Y-52981883D02*
X112000000Y-57981883D01*
X109000000Y-124000000D02*
X113460000Y-119540000D01*
%TO.N,Net-(C4-Pad2)*%
X105000000Y-112000000D02*
X105000000Y-109500000D01*
X99000000Y-118000000D02*
X105000000Y-112000000D01*
%TO.N,Net-(C5-Pad1)*%
X97000000Y-119000000D02*
X97000000Y-116000000D01*
X100000000Y-122000000D02*
X97000000Y-119000000D01*
X97000000Y-116000000D02*
X96000000Y-115000000D01*
X103000000Y-122000000D02*
X100000000Y-122000000D01*
X106460000Y-122000000D02*
X111460000Y-117000000D01*
X96000000Y-115000000D02*
X94000000Y-115000000D01*
X103000000Y-122000000D02*
X106460000Y-122000000D01*
%TO.N,Net-(J2-PadT)*%
X92000000Y-121600000D02*
X98000000Y-127600000D01*
X94025489Y-112000000D02*
X92000000Y-114025489D01*
X98750000Y-51000000D02*
X98750000Y-109250000D01*
X92000000Y-114025489D02*
X92000000Y-121600000D01*
X98750000Y-109250000D02*
X96000000Y-112000000D01*
X96000000Y-112000000D02*
X94000000Y-112000000D01*
%TO.N,Net-(Q2-Pad3)*%
X115460000Y-124000000D02*
X111540000Y-124000000D01*
%TD*%
M02*
